{
.appVersion = "3343";
.formatVersion = 3;
axes = (
{
name = "Split Ends";
tag = SPLT;
}
);
date = "2016-06-11 02:01:29 +0000";
familyName = "Jost Split Ends";
fontMaster = (
{
axesValues = (
0
);
customParameters = (
{
name = typoAscender;
value = 1070;
},
{
name = typoDescender;
value = -375;
},
{
name = typoLineGap;
value = 0;
},
{
name = winAscent;
value = 1070;
},
{
name = winDescent;
value = 375;
},
{
name = hheaAscender;
value = 1070;
},
{
name = hheaDescender;
value = -375;
},
{
name = strikeoutPosition;
value = 276;
},
{
name = strikeoutSize;
value = 50;
}
);
id = m01;
metricValues = (
{
pos = 1070;
},
{
pos = 700;
},
{
pos = 460;
},
{
},
{
pos = -375;
},
{
}
);
name = Regular;
},
{
axesValues = (
250
);
customParameters = (
{
name = typoAscender;
value = 1070;
},
{
name = typoDescender;
value = -375;
},
{
name = typoLineGap;
value = 0;
},
{
name = winAscent;
value = 1070;
},
{
name = winDescent;
value = 375;
},
{
name = hheaAscender;
value = 1070;
},
{
name = hheaDescender;
value = -375;
},
{
name = strikeoutPosition;
value = 276;
},
{
name = strikeoutSize;
value = 50;
}
);
id = "2FFFB641-FAF4-44D5-BCCD-45A3ED2836BE";
metricValues = (
{
pos = 1070;
},
{
pos = 700;
},
{
pos = 460;
},
{
},
{
pos = -375;
},
{
}
);
name = "splt=250";
},
{
axesValues = (
500
);
customParameters = (
{
name = typoAscender;
value = 1070;
},
{
name = typoDescender;
value = -375;
},
{
name = typoLineGap;
value = 0;
},
{
name = winAscent;
value = 1070;
},
{
name = winDescent;
value = 375;
},
{
name = hheaAscender;
value = 1070;
},
{
name = hheaDescender;
value = -375;
},
{
name = strikeoutPosition;
value = 276;
},
{
name = strikeoutSize;
value = 50;
}
);
id = "10EBB935-FE11-436B-A293-72D268A19F55";
metricValues = (
{
pos = 1070;
},
{
pos = 700;
},
{
pos = 460;
},
{
},
{
pos = -375;
},
{
}
);
name = "splt=500";
}
);
glyphs = (
{
glyphname = A;
kernLeft = A;
kernRight = A;
layers = (
{
layerId = m01;
shapes = (
{
closed = 1;
nodes = (
(557,7,l),
(559,4,o),
(560,0,q),
(608,0,l),
(608,0,o),
(609,0,o),
(609,0,q),
(613,0,l),
(613,0,o),
(614,0,o),
(614,0,q),
(655,0,l),
(653,5,o),
(651,9,qs),
(330,735,l),
(9,9,ls),
(7,5,o),
(5,0,q),
(62,0,l),
(62,0,o),
(63,0,o),
(63,0,q),
(67,0,l),
(67,0,o),
(68,0,o),
(68,0,q),
(100,0,l),
(102,4,o),
(104,8,qs),
(189,210,l),
(471,210,l)
);
},
{
closed = 1;
nodes = (
(330,542,l),
(437,290,l),
(223,290,l)
);
}
);
width = 660;
},
{
layerId = "2FFFB641-FAF4-44D5-BCCD-45A3ED2836BE";
shapes = (
{
closed = 1;
nodes = (
(528,76,ls),
(546,35,o),
(535,0,q),
(577,-12,l),
(583,8,o),
(583,57,o),
(575,75,q),
(579,75,l),
(588,54,o),
(633,-7,o),
(653,-25,q),
(680,0,l),
(639,36,o),
(621,76,qs),
(330,735,l),
(52,106,ls),
(26,48,o),
(-20,0,q),
(14,-33,l),
(38,-6,o),
(97,79,o),
(108,105,q),
(112,105,l),
(100,78,o),
(90,22,o),
(93,-3,q),
(125,0,l),
(120,47,o),
(144,104,qs),
(189,210,l),
(471,210,l)
);
},
{
closed = 1;
nodes = (
(330,542,l),
(437,290,l),
(223,290,l)
);
}
);
width = 660;
},
{
layerId = "10EBB935-FE11-436B-A293-72D268A19F55";
shapes = (
{
closed = 1;
nodes = (
(497,149,ls),
(531,69,o),
(510,0,q),
(553,-16,l),
(564,23,o),
(559,112,o),
(543,149,q),
(547,149,l),
(566,106,o),
(637,7,o),
(679,-28,q),
(705,0,l),
(626,65,o),
(589,149,qs),
(330,735,l),
(98,210,ls),
(49,100,o),
(-45,0,q),
(-11,-35,l),
(37,17,o),
(130,157,o),
(153,210,q),
(157,210,l),
(135,159,o),
(118,49,o),
(122,-5,q),
(154,-5,l),
(146,108,o),
(188,208,qs),
(189,210,l),
(471,210,l)
);
},
{
closed = 1;
nodes = (
(330,542,l),
(437,290,l),
(223,290,l)
);
}
);
width = 660;
}
);
note = A;
unicode = 65;
},
{
glyphname = B;
kernRight = B;
layers = (
{
layerId = m01;
shapes = (
{
closed = 1;
nodes = (
(508,278,o),
(424,367,o),
(352,382,q),
(407,399,o),
(468,472,o),
(468,525,qs),
(468,612,o),
(357,700,o),
(260,700,qs),
(80,700,l),
(80,1,l),
(80,1,o),
(80,0,o),
(80,0,q),
(93,0,l),
(93,0,o),
(94,0,o),
(94,0,q),
(98,0,l),
(99,0,l),
(270,0,ls),
(376,0,o),
(508,105,o),
(508,205,qs)
);
},
{
closed = 1;
nodes = (
(260,625,ls),
(314,625,o),
(383,568,o),
(383,520,qs),
(383,472,o),
(314,417,o),
(260,417,qs),
(165,417,l),
(165,625,l)
);
},
{
closed = 1;
nodes = (
(165,75,l),
(165,343,l),
(270,343,ls),
(339,343,o),
(423,273,o),
(423,210,qs),
(423,147,o),
(339,75,o),
(270,75,qs)
);
}
);
width = 558;
},
{
layerId = "2FFFB641-FAF4-44D5-BCCD-45A3ED2836BE";
shapes = (
{
closed = 1;
nodes = (
(508,278,o),
(424,367,o),
(352,382,q),
(407,399,o),
(468,472,o),
(468,525,qs),
(468,612,o),
(357,700,o),
(260,700,qs),
(80,700,l),
(80,200,ls),
(80,150,o),
(68,53,o),
(55,3,q),
(69,0,l),
(82,50,o),
(94,149,o),
(94,200,q),
(98,200,l),
(98,0,l),
(270,0,ls),
(376,0,o),
(508,105,o),
(508,205,qs)
);
},
{
closed = 1;
nodes = (
(260,625,ls),
(314,625,o),
(383,568,o),
(383,520,qs),
(383,472,o),
(314,417,o),
(260,417,qs),
(165,417,l),
(165,625,l)
);
},
{
closed = 1;
nodes = (
(165,75,l),
(165,343,l),
(270,343,ls),
(339,343,o),
(423,273,o),
(423,210,qs),
(423,147,o),
(339,75,o),
(270,75,qs)
);
}
);
width = 558;
},
{
layerId = "10EBB935-FE11-436B-A293-72D268A19F55";
shapes = (
{
closed = 1;
nodes = (
(508,278,o),
(424,367,o),
(352,382,q),
(407,399,o),
(468,472,o),
(468,525,qs),
(468,612,o),
(357,700,o),
(260,700,qs),
(80,700,l),
(80,400,ls),
(80,300,o),
(55,103,o),
(30,4,q),
(44,0,l),
(69,99,o),
(94,299,o),
(94,400,q),
(98,400,l),
(98,0,l),
(270,0,ls),
(376,0,o),
(508,105,o),
(508,205,qs)
);
},
{
closed = 1;
nodes = (
(260,625,ls),
(314,625,o),
(383,568,o),
(383,520,qs),
(383,472,o),
(314,417,o),
(260,417,qs),
(165,417,l),
(165,625,l)
);
},
{
closed = 1;
nodes = (
(165,75,l),
(165,343,l),
(270,343,ls),
(339,343,o),
(423,273,o),
(423,210,qs),
(423,147,o),
(339,75,o),
(270,75,qs)
);
}
);
width = 558;
}
);
note = B;
unicode = 66;
},
{
glyphname = C;
kernLeft = C;
kernRight = B;
layers = (
{
layerId = m01;
shapes = (
{
closed = 1;
nodes = (
(130,429,o),
(201,555,o),
(321,625,o),
(390,625,qs),
(462,625,o),
(577,569,o),
(615,521,q),
(615,633,l),
(570,673,o),
(465,710,o),
(390,710,qs),
(294,710,o),
(133,617,o),
(40,452,o),
(40,350,qs),
(40,248,o),
(133,83,o),
(294,-10,o),
(390,-10,qs),
(465,-10,o),
(570,27,o),
(615,67,q),
(615,144,l),
(570,97,o),
(460,51,o),
(390,51,q),
(390,51,l),
(438,51,o),
(513,69,o),
(580,109,o),
(615,143,q),
(615,179,l),
(590,147,o),
(522,101,o),
(438,75,o),
(390,75,qs),
(321,75,o),
(201,145,o),
(130,271,o),
(130,350,qs)
);
}
);
width = 685;
},
{
layerId = "10EBB935-FE11-436B-A293-72D268A19F55";
shapes = (
{
closed = 1;
nodes = (
(130,429,o),
(201,555,o),
(321,625,o),
(390,625,qs),
(462,625,o),
(577,569,o),
(615,521,q),
(615,633,l),
(570,673,o),
(465,710,o),
(390,710,qs),
(294,710,o),
(133,617,o),
(40,452,o),
(40,350,qs),
(40,248,o),
(133,83,o),
(294,-10,o),
(390,-10,qs),
(466,-10,o),
(543,-25,o),
(587,-48,q),
(615,1,l),
(571,29,o),
(458,49,o),
(390,49,q),
(390,53,l),
(441,53,o),
(521,104,o),
(566,191,o),
(566,242,q),
(542,242,l),
(542,196,o),
(500,120,o),
(430,75,o),
(390,75,qs),
(321,75,o),
(201,145,o),
(130,271,o),
(130,350,qs)
);
}
);
width = 685;
},
{
layerId = "2FFFB641-FAF4-44D5-BCCD-45A3ED2836BE";
shapes = (
{
closed = 1;
nodes = (
(130,429,o),
(201,555,o),
(321,625,o),
(390,625,qs),
(462,625,o),
(577,569,o),
(615,521,q),
(615,633,l),
(570,673,o),
(465,710,o),
(390,710,qs),
(294,710,o),
(133,617,o),
(40,452,o),
(40,350,qs),
(40,248,o),
(133,83,o),
(294,-10,o),
(390,-10,qs),
(465,-10,o),
(570,27,o),
(615,67,q),
(615,144,l),
(570,97,o),
(460,51,o),
(390,51,q),
(390,51,l),
(438,51,o),
(513,69,o),
(580,109,o),
(615,143,q),
(615,179,l),
(590,147,o),
(522,101,o),
(438,75,o),
(390,75,qs),
(321,75,o),
(201,145,o),
(130,271,o),
(130,350,qs)
);
}
);
width = 685;
}
);
note = C;
unicode = 67;
},
{
glyphname = D;
kernRight = D;
layers = (
{
layerId = m01;
shapes = (
{
closed = 1;
nodes = (
(89,0,l),
(89,0,o),
(90,0,o),
(90,0,q),
(94,0,l),
(94,0,o),
(95,0,o),
(95,0,q),
(120,0,l),
(120,0,o),
(121,0,o),
(121,0,q),
(125,0,l),
(126,0,l),
(290,0,ls),
(391,0,o),
(550,88,o),
(640,247,o),
(640,350,qs),
(640,453,o),
(550,612,o),
(391,700,o),
(290,700,qs),
(80,700,l),
(80,1,l),
(80,1,o),
(80,0,o),
(80,0,q)
);
},
{
closed = 1;
nodes = (
(290,615,ls),
(369,615,o),
(489,550,o),
(555,430,o),
(555,350,qs),
(555,270,o),
(489,150,o),
(369,85,o),
(290,85,qs),
(165,85,l),
(165,615,l)
);
}
);
width = 680;
},
{
layerId = "2FFFB641-FAF4-44D5-BCCD-45A3ED2836BE";
shapes = (
{
closed = 1;
nodes = (
(64,0,l),
(64,0,o),
(65,0,o),
(65,0,q),
(69,0,l),
(69,0,o),
(70,0,o),
(70,0,q),
(96,0,l),
(109,37,o),
(121,112,o),
(121,150,q),
(125,150,l),
(125,0,l),
(290,0,ls),
(391,0,o),
(550,88,o),
(640,247,o),
(640,350,qs),
(640,453,o),
(550,612,o),
(391,700,o),
(290,700,qs),
(80,700,l),
(80,150,ls),
(80,112,o),
(68,37,o),
(55,0,q)
);
},
{
closed = 1;
nodes = (
(290,615,ls),
(369,615,o),
(489,550,o),
(555,430,o),
(555,350,qs),
(555,270,o),
(489,150,o),
(369,85,o),
(290,85,qs),
(165,85,l),
(165,615,l)
);
}
);
width = 680;
},
{
layerId = "10EBB935-FE11-436B-A293-72D268A19F55";
shapes = (
{
closed = 1;
nodes = (
(24,0,l),
(36,22,o),
(58,75,o),
(67,100,q),
(71,100,l),
(66,75,o),
(52,25,o),
(44,0,q),
(71,0,l),
(96,75,o),
(121,225,o),
(121,300,q),
(125,300,l),
(125,0,l),
(290,0,ls),
(391,0,o),
(550,88,o),
(640,247,o),
(640,350,qs),
(640,453,o),
(550,612,o),
(391,700,o),
(290,700,qs),
(80,700,l),
(80,300,ls),
(80,224,o),
(46,74,o),
(10,0,q)
);
},
{
closed = 1;
nodes = (
(290,615,ls),
(369,615,o),
(489,550,o),
(555,430,o),
(555,350,qs),
(555,270,o),
(489,150,o),
(369,85,o),
(290,85,qs),
(165,85,l),
(165,615,l)
);
}
);
width = 680;
}
);
note = D;
unicode = 68;
},
{
glyphname = E;
layers = (
{
layerId = m01;
shapes = (
{
closed = 1;
nodes = (
(80,700,l),
(80,0,l),
(479,0,l),
(479,0,o),
(480,0,o),
(480,0,q),
(480,37,l),
(480,37,o),
(480,38,o),
(480,38,q),
(480,42,l),
(480,42,o),
(480,43,o),
(480,43,q),
(480,58,l),
(480,58,l),
(480,58,o),
(480,59,o),
(480,59,q),
(480,63,l),
(480,63,o),
(480,64,o),
(480,64,q),
(480,80,l),
(480,80,o),
(479,80,o),
(479,80,q),
(165,80,l),
(165,340,l),
(460,340,l),
(460,420,l),
(165,420,l),
(165,620,l),
(480,620,l),
(480,700,l)
);
}
);
width = 550;
},
{
layerId = "2FFFB641-FAF4-44D5-BCCD-45A3ED2836BE";
shapes = (
{
closed = 1;
nodes = (
(80,700,l),
(80,0,l),
(323,0,ls),
(361,0,o),
(428,-12,o),
(469,-24,q),
(480,13,l),
(440,25,o),
(361,38,o),
(323,38,q),
(323,42,l),
(361,42,o),
(440,55,o),
(480,67,q),
(475,83,l),
(465,80,ls),
(452,76,o),
(426,69,o),
(412,67,q),
(411,72,l),
(429,77,o),
(464,89,o),
(480,98,q),
(471,115,l),
(446,100,o),
(362,80,o),
(323,80,qs),
(165,80,l),
(165,340,l),
(460,340,l),
(460,420,l),
(165,420,l),
(165,620,l),
(480,620,l),
(480,700,l)
);
}
);
width = 550;
},
{
layerId = "10EBB935-FE11-436B-A293-72D268A19F55";
shapes = (
{
closed = 1;
nodes = (
(80,700,l),
(80,0,l),
(165,0,ls),
(248,0,o),
(392,-23,o),
(468,-50,q),
(480,-12,l),
(405,15,o),
(250,38,o),
(165,38,q),
(165,42,l),
(246,42,o),
(403,66,o),
(480,92,q),
(475,109,l),
(452,101,ls),
(418,90,o),
(355,75,o),
(323,71,q),
(323,75,l),
(362,85,o),
(441,116,o),
(480,138,q),
(472,155,l),
(391,117,o),
(242,80,o),
(165,80,qs),
(164,80,l),
(165,340,l),
(460,340,l),
(460,420,l),
(165,420,l),
(165,620,l),
(480,620,l),
(480,700,l)
);
}
);
width = 550;
}
);
note = E;
unicode = 69;
},
{
glyphname = F;
kernRight = F;
layers = (
{
layerId = m01;
shapes = (
{
closed = 1;
nodes = (
(80,700,l),
(80,1,l),
(80,1,o),
(80,0,o),
(80,0,q),
(94,0,l),
(94,0,o),
(95,0,o),
(95,0,q),
(99,0,l),
(99,0,o),
(100,0,o),
(100,0,q),
(132,0,l),
(132,0,o),
(133,0,o),
(133,0,q),
(137,0,l),
(137,0,o),
(138,0,o),
(138,0,q),
(165,0,l),
(165,0,o),
(165,1,o),
(165,1,q),
(165,340,l),
(430,340,l),
(430,420,l),
(165,420,l),
(165,620,l),
(440,620,l),
(440,700,l)
);
}
);
width = 500;
},
{
layerId = "2FFFB641-FAF4-44D5-BCCD-45A3ED2836BE";
shapes = (
{
closed = 1;
nodes = (
(80,700,l),
(80,150,ls),
(80,111,o),
(61,37,o),
(40,0,q),
(53,-8,l),
(64,9,o),
(80,49,o),
(88,75,q),
(92,74,l),
(89,55,o),
(80,19,o),
(74,0,q),
(108,-10,l),
(120,26,o),
(133,111,o),
(133,150,q),
(137,150,l),
(137,111,o),
(149,36,o),
(162,0,q),
(190,10,l),
(176,48,o),
(165,113,o),
(165,150,qs),
(165,340,l),
(430,340,l),
(430,420,l),
(165,420,l),
(165,620,l),
(440,620,l),
(440,700,l)
);
}
);
width = 500;
},
{
layerId = "10EBB935-FE11-436B-A293-72D268A19F55";
shapes = (
{
closed = 1;
nodes = (
(80,700,l),
(80,300,ls),
(80,223,o),
(45,83,o),
(5,9,q),
(20,0,l),
(42,35,o),
(72,109,o),
(83,150,q),
(87,150,l),
(83,113,o),
(63,37,o),
(49,-1,q),
(73,-13,l),
(105,48,o),
(133,214,o),
(133,300,q),
(137,300,l),
(137,222,o),
(161,73,o),
(187,0,q),
(215,11,l),
(189,85,o),
(165,223,o),
(165,300,qs),
(165,340,l),
(430,340,l),
(430,420,l),
(165,420,l),
(165,620,l),
(440,620,l),
(440,700,l)
);
}
);
width = 500;
}
);
note = F;
unicode = 70;
},
{
glyphname = G;
kernLeft = C;
kernRight = D;
layers = (
{
layerId = m01;
shapes = (
{
closed = 1;
nodes = (
(405,333,l),
(405,333,o),
(405,332,o),
(405,332,q),
(405,328,l),
(405,328,o),
(405,327,o),
(405,327,q),
(405,275,l),
(405,275,o),
(406,275,o),
(406,275,q),
(638,275,l),
(620,188,o),
(494,75,o),
(395,75,qs),
(321,75,o),
(200,145,o),
(130,270,o),
(130,350,qs),
(130,430,o),
(200,555,o),
(321,625,o),
(395,625,qs),
(474,625,o),
(592,563,o),
(626,506,q),
(686,561,l),
(641,634,o),
(492,710,o),
(395,710,qs),
(294,710,o),
(132,617,o),
(40,453,o),
(40,350,qs),
(40,247,o),
(132,83,o),
(294,-10,o),
(395,-10,qs),
(498,-10,o),
(650,90,o),
(730,256,o),
(730,355,q),
(406,355,l),
(406,355,o),
(405,355,o),
(405,355,q)
);
}
);
width = 775;
},
{
layerId = "2FFFB641-FAF4-44D5-BCCD-45A3ED2836BE";
shapes = (
{
closed = 1;
nodes = (
(395,360,l),
(420,347,o),
(480,332,o),
(505,332,q),
(505,328,l),
(480,328,o),
(411,310,o),
(386,297,q),
(405,250,l),
(429,263,o),
(480,275,o),
(505,275,qs),
(638,275,l),
(620,188,o),
(494,75,o),
(395,75,qs),
(321,75,o),
(200,145,o),
(130,270,o),
(130,350,qs),
(130,430,o),
(200,555,o),
(321,625,o),
(395,625,qs),
(474,625,o),
(592,563,o),
(626,506,q),
(686,561,l),
(641,634,o),
(492,710,o),
(395,710,qs),
(294,710,o),
(132,617,o),
(40,453,o),
(40,350,qs),
(40,247,o),
(132,83,o),
(294,-10,o),
(395,-10,qs),
(498,-10,o),
(650,90,o),
(730,256,o),
(730,355,q),
(505,355,ls),
(480,355,o),
(429,367,o),
(405,380,q)
);
}
);
width = 775;
},
{
layerId = "10EBB935-FE11-436B-A293-72D268A19F55";
shapes = (
{
closed = 1;
nodes = (
(395,382,l),
(444,357,o),
(553,332,o),
(605,332,q),
(605,328,l),
(556,328,o),
(438,295,o),
(386,268,q),
(405,225,l),
(455,250,o),
(554,275,o),
(605,275,qs),
(638,275,l),
(620,188,o),
(494,75,o),
(395,75,qs),
(321,75,o),
(200,145,o),
(130,270,o),
(130,350,qs),
(130,430,o),
(200,555,o),
(321,625,o),
(395,625,qs),
(474,625,o),
(592,563,o),
(626,506,q),
(686,561,l),
(641,634,o),
(492,710,o),
(395,710,qs),
(294,710,o),
(132,617,o),
(40,453,o),
(40,350,qs),
(40,247,o),
(132,83,o),
(294,-10,o),
(395,-10,qs),
(498,-10,o),
(650,90,o),
(730,256,o),
(730,355,q),
(605,355,ls),
(554,355,o),
(455,380,o),
(405,405,q)
);
}
);
width = 775;
}
);
note = G;
unicode = 71;
},
{
glyphname = H;
layers = (
{
layerId = m01;
shapes = (
{
closed = 1;
nodes = (
(80,700,l),
(80,1,l),
(80,1,o),
(80,0,o),
(80,0,q),
(108,0,l),
(108,0,o),
(109,0,o),
(109,0,q),
(113,0,l),
(113,0,o),
(114,0,o),
(114,0,q),
(165,0,l),
(165,0,o),
(165,1,o),
(165,1,q),
(165,340,l),
(550,340,l),
(550,1,l),
(550,1,o),
(550,0,o),
(550,0,q),
(566,0,l),
(566,0,o),
(567,0,o),
(567,0,q),
(571,0,l),
(571,0,o),
(572,0,o),
(572,0,q),
(603,0,l),
(603,0,o),
(604,0,o),
(604,0,q),
(608,0,l),
(608,0,o),
(609,0,o),
(609,0,q),
(635,0,l),
(635,0,o),
(635,1,o),
(635,1,q),
(635,700,l),
(550,700,l),
(550,420,l),
(165,420,l),
(165,700,l)
);
}
);
width = 715;
},
{
layerId = "2FFFB641-FAF4-44D5-BCCD-45A3ED2836BE";
shapes = (
{
closed = 1;
nodes = (
(80,700,l),
(80,171,ls),
(80,128,o),
(68,42,o),
(55,0,q),
(83,-8,l),
(96,34,o),
(109,128,o),
(109,171,q),
(113,171,l),
(113,130,o),
(127,37,o),
(139,-8,q),
(190,0,l),
(178,46,o),
(165,130,o),
(165,171,qs),
(165,341,l),
(550,340,l),
(550,121,ls),
(550,91,o),
(530,30,o),
(510,0,q),
(526,-10,l),
(538,6,o),
(555,50,o),
(560,71,q),
(564,71,l),
(562,54,o),
(552,17,o),
(546,0,q),
(578,-11,l),
(590,19,o),
(604,91,o),
(604,121,q),
(608,121,l),
(608,91,o),
(623,19,o),
(635,-11,q),
(660,0,l),
(648,31,o),
(635,91,o),
(635,121,qs),
(635,700,l),
(550,700,l),
(550,420,l),
(165,420,l),
(165,700,l)
);
}
);
width = 715;
},
{
layerId = "10EBB935-FE11-436B-A293-72D268A19F55";
shapes = (
{
closed = 1;
nodes = (
(80,700,l),
(80,341,ls),
(80,256,o),
(55,86,o),
(30,0,q),
(59,-9,l),
(84,76,o),
(109,255,o),
(109,341,q),
(113,341,l),
(113,251,o),
(138,67,o),
(163,-15,q),
(215,0,l),
(189,84,o),
(165,253,o),
(165,341,q),
(165,340,l),
(550,340,l),
(550,241,ls),
(550,181,o),
(512,60,o),
(475,0,q),
(491,-9,l),
(511,23,o),
(541,98,o),
(554,141,q),
(558,141,l),
(556,105,o),
(537,35,o),
(521,0,q),
(553,-11,l),
(578,48,o),
(604,180,o),
(604,241,q),
(608,241,l),
(608,180,o),
(634,49,o),
(659,-10,q),
(685,0,l),
(660,59,o),
(635,180,o),
(635,241,qs),
(635,700,l),
(550,700,l),
(550,420,l),
(165,420,l),
(165,700,l)
);
}
);
width = 715;
}
);
note = H;
unicode = 72;
},
{
glyphname = I;
layers = (
{
layerId = m01;
shapes = (
{
closed = 1;
nodes = (
(165,700,l),
(80,700,l),
(80,1,l),
(80,1,o),
(80,0,o),
(80,0,q),
(96,0,l),
(96,0,o),
(97,0,o),
(97,0,q),
(101,0,l),
(101,0,o),
(102,0,o),
(102,0,q),
(143,0,l),
(143,0,o),
(144,0,o),
(144,0,q),
(148,0,l),
(148,0,o),
(149,0,o),
(149,0,q),
(165,0,l),
(165,0,o),
(165,1,o),
(165,1,q)
);
}
);
width = 245;
},
{
layerId = "2FFFB641-FAF4-44D5-BCCD-45A3ED2836BE";
shapes = (
{
closed = 1;
nodes = (
(165,700,l),
(80,700,l),
(80,200,ls),
(80,149,o),
(68,50,o),
(55,0,q),
(72,-6,l),
(84,43,o),
(97,149,o),
(97,200,q),
(101,200,l),
(101,150,o),
(116,40,o),
(129,-10,q),
(170,0,l),
(161,25,o),
(151,75,o),
(149,100,q),
(153,101,l),
(162,75,o),
(187,15,o),
(199,-7,q),
(213,0,l),
(187,52,o),
(165,139,o),
(165,200,qs)
);
}
);
width = 245;
},
{
layerId = "10EBB935-FE11-436B-A293-72D268A19F55";
shapes = (
{
closed = 1;
nodes = (
(165,700,l),
(80,700,l),
(80,400,ls),
(80,301,o),
(55,100,o),
(30,0,q),
(47,-6,l),
(72,93,o),
(97,300,o),
(97,400,q),
(101,400,l),
(101,294,o),
(125,84,o),
(151,-11,q),
(194,0,l),
(178,56,o),
(157,153,o),
(152,200,q),
(156,201,l),
(167,146,o),
(198,40,o),
(218,-7,q),
(235,0,l),
(201,104,o),
(165,304,o),
(165,400,qs)
);
}
);
width = 245;
}
);
note = I;
unicode = 73;
},
{
glyphname = J;
kernLeft = J;
kernRight = J;
layers = (
{
layerId = m01;
shapes = (
{
closed = 1;
nodes = (
(-88,-134,l),
(-68,-152,o),
(-16,-174,o),
(12,-176,q),
(-16,-174,o),
(-68,-152,o),
(-88,-134,q),
(-111,-170,l),
(-89,-192,o),
(-23,-220,o),
(7,-220,qs),
(79,-220,o),
(160,-140,o),
(160,-60,qs),
(160,700,l),
(80,700,l),
(80,-50,ls),
(80,-95,o),
(38,-140,o),
(12,-140,qs),
(-18,-140,o),
(-46,-125,o),
(-67,-104,q)
);
}
);
width = 240;
},
{
layerId = "2FFFB641-FAF4-44D5-BCCD-45A3ED2836BE";
shapes = (
{
closed = 1;
nodes = (
(-85,-85,l),
(-83,-123,o),
(-41,-173,o),
(12,-176,q),
(-16,-174,o),
(-97,-187,o),
(-117,-197,q),
(-107,-243,l),
(-84,-233,o),
(-23,-220,o),
(7,-220,qs),
(79,-220,o),
(160,-140,o),
(160,-60,qs),
(160,700,l),
(80,700,l),
(80,-50,ls),
(80,-95,o),
(38,-140,o),
(12,-140,qs),
(-19,-140,o),
(-51,-109,o),
(-53,-81,q)
);
}
);
width = 240;
},
{
layerId = "10EBB935-FE11-436B-A293-72D268A19F55";
shapes = (
{
closed = 1;
nodes = (
(-55,-67,l),
(-64,-112,o),
(-44,-171,o),
(12,-176,q),
(-17,-174,o),
(-95,-202,o),
(-114,-223,q),
(-88,-261,l),
(-70,-241,o),
(-23,-220,o),
(7,-220,qs),
(79,-220,o),
(160,-140,o),
(160,-60,qs),
(160,700,l),
(80,700,l),
(80,-50,ls),
(80,-95,o),
(38,-140,o),
(12,-140,qs),
(-18,-140,o),
(-30,-105,o),
(-22,-74,q)
);
}
);
width = 240;
}
);
note = J;
unicode = 74;
},
{
glyphname = K;
kernRight = K;
layers = (
{
layerId = m01;
shapes = (
{
closed = 1;
nodes = (
(80,700,l),
(80,1,l),
(80,1,o),
(80,0,o),
(80,0,q),
(143,0,l),
(143,0,o),
(144,0,o),
(144,0,q),
(148,0,l),
(148,0,o),
(149,0,o),
(149,0,q),
(165,0,l),
(165,0,o),
(165,1,o),
(165,1,q),
(165,340,l),
(455,0,l),
(560,0,l),
(242,372,l),
(545,700,l),
(440,700,l),
(165,399,l),
(165,700,l)
);
}
);
width = 565;
},
{
layerId = "2FFFB641-FAF4-44D5-BCCD-45A3ED2836BE";
shapes = (
{
closed = 1;
nodes = (
(80,700,l),
(80,120,ls),
(80,90,o),
(68,30,o),
(55,0,q),
(112,-24,l),
(125,7,o),
(144,91,o),
(144,120,q),
(148,120,l),
(148,90,o),
(162,23,o),
(174,-7,q),
(190,0,l),
(178,31,o),
(165,91,o),
(165,120,qs),
(165,340,l),
(455,0,l),
(560,0,l),
(242,372,l),
(545,700,l),
(440,700,l),
(165,399,l),
(165,700,l)
);
}
);
width = 565;
},
{
layerId = "10EBB935-FE11-436B-A293-72D268A19F55";
shapes = (
{
closed = 1;
nodes = (
(80,700,l),
(80,240,ls),
(80,179,o),
(55,59,o),
(30,0,q),
(86,-28,l),
(112,33,o),
(144,181,o),
(144,240,q),
(148,240,l),
(148,179,o),
(175,51,o),
(201,-8,q),
(215,0,l),
(189,59,o),
(165,178,o),
(165,240,qs),
(165,340,l),
(455,0,l),
(560,0,l),
(242,372,l),
(545,700,l),
(440,700,l),
(165,399,l),
(165,700,l)
);
}
);
width = 565;
}
);
note = K;
unicode = 75;
},
{
glyphname = L;
kernRight = A;
layers = (
{
layerId = m01;
shapes = (
{
closed = 1;
nodes = (
(80,700,l),
(80,0,l),
(439,0,l),
(439,0,o),
(440,0,o),
(440,0,q),
(440,27,l),
(440,27,o),
(440,28,o),
(440,28,q),
(440,32,l),
(440,32,o),
(440,33,o),
(440,33,q),
(440,58,l),
(440,58,o),
(440,59,o),
(440,59,q),
(440,63,l),
(440,63,o),
(440,64,o),
(440,64,q),
(440,80,l),
(440,80,o),
(439,80,o),
(439,80,q),
(165,80,l),
(165,700,l)
);
}
);
width = 450;
},
{
layerId = "2FFFB641-FAF4-44D5-BCCD-45A3ED2836BE";
shapes = (
{
closed = 1;
nodes = (
(80,700,l),
(80,0,l),
(340,0,ls),
(365,0,o),
(416,-12,o),
(440,-25,q),
(449,0,l),
(424,13,o),
(365,28,o),
(340,28,q),
(340,32,l),
(366,32,o),
(428,47,o),
(452,59,q),
(440,84,l),
(427,78,o),
(403,69,o),
(390,68,q),
(389,72,l),
(403,78,o),
(440,98,o),
(450,106,q),
(440,120,l),
(417,101,o),
(365,80,o),
(340,80,qs),
(165,80,l),
(165,700,l)
);
}
);
width = 450;
},
{
layerId = "10EBB935-FE11-436B-A293-72D268A19F55";
shapes = (
{
closed = 1;
nodes = (
(80,700,l),
(80,0,l),
(240,0,ls),
(291,0,o),
(391,-24,o),
(440,-50,q),
(450,-26,l),
(400,0,o),
(291,28,o),
(240,28,q),
(240,32,l),
(292,32,o),
(403,58,o),
(452,84,q),
(440,109,l),
(412,95,o),
(363,77,o),
(340,74,q),
(339,78,l),
(365,88,o),
(424,116,o),
(448,131,q),
(440,145,l),
(391,111,o),
(292,80,o),
(240,80,qs),
(165,80,l),
(165,700,l)
);
}
);
width = 450;
}
);
note = L;
unicode = 76;
},
{
glyphname = M;
layers = (
{
layerId = m01;
shapes = (
{
closed = 1;
nodes = (
(125,0,l),
(126,4,o),
(126,8,qs),
(177,473,l),
(405,65,l),
(633,473,l),
(684,9,l),
(685,5,o),
(685,0,q),
(732,0,l),
(732,0,o),
(733,0,o),
(733,0,q),
(737,0,l),
(737,0,o),
(738,0,o),
(738,0,q),
(770,0,l),
(770,5,o),
(769,9,q),
(685,735,l),
(405,228,l),
(125,735,l),
(41,8,ls),
(41,4,o),
(40,0,q),
(55,0,l),
(55,0,o),
(56,0,o),
(56,0,q),
(60,0,l),
(60,0,o),
(61,0,o),
(61,0,q)
);
}
);
width = 810;
},
{
layerId = "2FFFB641-FAF4-44D5-BCCD-45A3ED2836BE";
shapes = (
{
closed = 1;
nodes = (
(150,0,l),
(136,94,o),
(147,200,qs),
(177,473,l),
(405,65,l),
(633,473,l),
(674,100,ls),
(680,51,o),
(660,0,q),
(707,-14,l),
(717,10,o),
(724,75,o),
(721,100,q),
(725,100,l),
(728,74,o),
(752,8,o),
(767,-16,q),
(795,0,l),
(766,48,o),
(758,100,q),
(685,735,l),
(405,228,l),
(125,735,l),
(63,200,ls),
(50,90,o),
(15,0,q),
(32,-7,l),
(50,41,o),
(75,146,o),
(81,200,q),
(85,200,l),
(79,150,o),
(80,42,o),
(87,-9,q)
);
}
);
width = 810;
},
{
layerId = "10EBB935-FE11-436B-A293-72D268A19F55";
shapes = (
{
closed = 1;
nodes = (
(175,0,l),
(147,200,o),
(169,399,qs),
(177,473,l),
(405,65,l),
(633,473,l),
(663,199,ls),
(674,93,o),
(635,0,q),
(680,-17,l),
(700,33,o),
(716,149,o),
(710,200,q),
(714,200,l),
(720,148,o),
(762,33,o),
(793,-16,q),
(820,0,l),
(760,94,o),
(747,200,qs),
(685,735,l),
(405,228,l),
(125,735,l),
(86,400,ls),
(63,199,o),
(-10,0,q),
(6,-7,l),
(43,90,o),
(92,297,o),
(104,400,q),
(108,400,l),
(96,299,o),
(97,89,o),
(110,-10,q)
);
}
);
width = 810;
}
);
note = M;
unicode = 77;
},
{
glyphname = N;
layers = (
{
layerId = m01;
shapes = (
{
closed = 1;
nodes = (
(610,700,l),
(610,179,l),
(80,735,l),
(80,1,l),
(80,1,o),
(80,0,o),
(80,0,q),
(111,0,l),
(111,0,o),
(112,0,o),
(112,0,q),
(116,0,l),
(116,0,o),
(117,0,o),
(117,0,q),
(165,0,l),
(165,0,o),
(165,1,o),
(165,1,q),
(165,521,l),
(695,-35,l),
(695,700,l)
);
}
);
width = 775;
},
{
layerId = "2FFFB641-FAF4-44D5-BCCD-45A3ED2836BE";
shapes = (
{
closed = 1;
nodes = (
(610,700,l),
(610,179,l),
(80,735,l),
(80,150,ls),
(80,113,o),
(68,49,o),
(55,10,q),
(87,0,l),
(100,37,o),
(112,112,o),
(112,150,q),
(116,150,l),
(116,112,o),
(128,37,o),
(141,0,q),
(190,15,l),
(177,55,o),
(165,114,o),
(165,150,qs),
(165,521,l),
(695,-35,l),
(695,700,l)
);
}
);
width = 775;
},
{
layerId = "10EBB935-FE11-436B-A293-72D268A19F55";
shapes = (
{
closed = 1;
nodes = (
(610,700,l),
(610,179,l),
(80,735,l),
(80,300,ls),
(80,224,o),
(56,84,o),
(30,10,q),
(62,0,l),
(88,73,o),
(112,223,o),
(112,300,q),
(116,300,l),
(116,223,o),
(140,73,o),
(166,0,q),
(215,15,l),
(189,90,o),
(165,225,o),
(165,300,qs),
(165,521,l),
(695,-35,l),
(695,700,l)
);
}
);
width = 775;
}
);
note = N;
unicode = 78;
},
{
glyphname = O;
kernLeft = C;
kernRight = D;
layers = (
{
layerId = m01;
shapes = (
{
closed = 1;
nodes = (
(40,249,o),
(132,85,o),
(295,-10,o),
(395,-10,qs),
(495,-10,o),
(658,85,o),
(750,249,o),
(750,350,qs),
(750,451,o),
(658,615,o),
(495,710,o),
(395,710,qs),
(295,710,o),
(132,615,o),
(40,451,o),
(40,350,qs)
);
},
{
closed = 1;
nodes = (
(130,428,o),
(199,554,o),
(320,625,o),
(395,625,qs),
(470,625,o),
(591,554,o),
(660,428,o),
(660,350,qs),
(660,272,o),
(591,146,o),
(470,75,o),
(395,75,qs),
(320,75,o),
(199,146,o),
(130,272,o),
(130,350,qs)
);
}
);
width = 790;
},
{
layerId = "2FFFB641-FAF4-44D5-BCCD-45A3ED2836BE";
shapes = (
{
closed = 1;
nodes = (
(40,249,o),
(132,85,o),
(295,-10,o),
(395,-10,qs),
(495,-10,o),
(658,85,o),
(750,249,o),
(750,350,qs),
(750,451,o),
(658,615,o),
(495,710,o),
(395,710,qs),
(295,710,o),
(132,615,o),
(40,451,o),
(40,350,qs)
);
},
{
closed = 1;
nodes = (
(130,428,o),
(199,554,o),
(320,625,o),
(395,625,qs),
(470,625,o),
(591,554,o),
(660,428,o),
(660,350,qs),
(660,272,o),
(591,146,o),
(470,75,o),
(395,75,qs),
(320,75,o),
(199,146,o),
(130,272,o),
(130,350,qs)
);
}
);
width = 790;
},
{
layerId = "10EBB935-FE11-436B-A293-72D268A19F55";
shapes = (
{
closed = 1;
nodes = (
(40,249,o),
(132,85,o),
(295,-10,o),
(395,-10,qs),
(495,-10,o),
(658,85,o),
(750,249,o),
(750,350,qs),
(750,451,o),
(658,615,o),
(495,710,o),
(395,710,qs),
(295,710,o),
(132,615,o),
(40,451,o),
(40,350,qs)
);
},
{
closed = 1;
nodes = (
(130,428,o),
(199,554,o),
(320,625,o),
(395,625,qs),
(470,625,o),
(591,554,o),
(660,428,o),
(660,350,qs),
(660,272,o),
(591,146,o),
(470,75,o),
(395,75,qs),
(320,75,o),
(199,146,o),
(130,272,o),
(130,350,qs)
);
}
);
width = 790;
}
);
note = O;
unicode = 79;
},
{
glyphname = P;
kernRight = F;
layers = (
{
layerId = m01;
shapes = (
{
closed = 1;
nodes = (
(80,700,l),
(80,1,l),
(80,1,o),
(80,0,o),
(80,0,q),
(97,0,l),
(97,0,o),
(98,0,o),
(98,0,q),
(102,0,l),
(102,0,o),
(103,0,o),
(103,0,q),
(165,0,l),
(165,0,o),
(165,1,o),
(165,1,q),
(165,280,l),
(270,280,ls),
(338,280,o),
(446,332,o),
(508,427,o),
(508,490,qs),
(508,553,o),
(446,648,o),
(338,700,o),
(270,700,qs)
);
},
{
closed = 1;
nodes = (
(270,620,ls),
(340,620,o),
(423,553,o),
(423,490,qs),
(423,427,o),
(340,360,o),
(270,360,qs),
(165,360,l),
(165,620,l)
);
}
);
width = 548;
},
{
layerId = "2FFFB641-FAF4-44D5-BCCD-45A3ED2836BE";
shapes = (
{
closed = 1;
nodes = (
(80,700,l),
(80,125,ls),
(80,92,o),
(68,31,o),
(55,0,q),
(71,-7,l),
(84,24,o),
(98,93,o),
(98,125,q),
(102,125,l),
(102,92,o),
(118,10,o),
(131,-21,q),
(190,0,l),
(177,31,o),
(165,92,o),
(165,125,qs),
(165,280,l),
(270,280,ls),
(338,280,o),
(446,332,o),
(508,427,o),
(508,490,qs),
(508,553,o),
(446,648,o),
(338,700,o),
(270,700,qs)
);
},
{
closed = 1;
nodes = (
(270,620,ls),
(340,620,o),
(423,553,o),
(423,490,qs),
(423,427,o),
(340,360,o),
(270,360,qs),
(165,360,l),
(165,620,l)
);
}
);
width = 548;
},
{
layerId = "10EBB935-FE11-436B-A293-72D268A19F55";
shapes = (
{
closed = 1;
nodes = (
(80,700,l),
(80,250,ls),
(80,189,o),
(54,63,o),
(30,0,q),
(46,-7,l),
(71,57,o),
(98,189,o),
(98,250,q),
(102,250,l),
(102,190,o),
(134,44,o),
(159,-21,q),
(215,0,l),
(191,63,o),
(165,189,o),
(165,250,qs),
(165,280,l),
(270,280,ls),
(338,280,o),
(446,332,o),
(508,427,o),
(508,490,qs),
(508,553,o),
(446,648,o),
(338,700,o),
(270,700,qs)
);
},
{
closed = 1;
nodes = (
(270,620,ls),
(340,620,o),
(423,553,o),
(423,490,qs),
(423,427,o),
(340,360,o),
(270,360,qs),
(165,360,l),
(165,620,l)
);
}
);
width = 548;
}
);
note = P;
unicode = 80;
},
{
glyphname = Q;
kernLeft = C;
layers = (
{
layerId = m01;
shapes = (
{
closed = 1;
nodes = (
(40,249,o),
(132,85,o),
(295,-10,o),
(395,-10,qs),
(458,-10,o),
(570,28,o),
(615,64,q),
(679,0,l),
(789,0,l),
(671,118,l),
(709,165,o),
(750,283,o),
(750,350,qs),
(750,451,o),
(658,615,o),
(495,710,o),
(395,710,qs),
(295,710,o),
(132,615,o),
(40,451,o),
(40,350,qs)
);
},
{
closed = 1;
nodes = (
(130,428,o),
(199,554,o),
(320,625,o),
(395,625,qs),
(470,625,o),
(591,554,o),
(660,428,o),
(660,350,qs),
(660,253,o),
(608,181,q),
(489,300,l),
(379,300,l),
(553,126,l),
(487,75,o),
(395,75,qs),
(320,75,o),
(199,146,o),
(130,272,o),
(130,350,qs)
);
}
);
width = 790;
},
{
layerId = "2FFFB641-FAF4-44D5-BCCD-45A3ED2836BE";
shapes = (
{
closed = 1;
nodes = (
(40,249,o),
(132,85,o),
(295,-10,o),
(395,-10,qs),
(458,-10,o),
(570,28,o),
(615,64,q),
(679,0,l),
(789,0,l),
(671,118,l),
(709,165,o),
(750,283,o),
(750,350,qs),
(750,451,o),
(658,615,o),
(495,710,o),
(395,710,qs),
(295,710,o),
(132,615,o),
(40,451,o),
(40,350,qs)
);
},
{
closed = 1;
nodes = (
(130,428,o),
(199,554,o),
(320,625,o),
(395,625,qs),
(470,625,o),
(591,554,o),
(660,428,o),
(660,350,qs),
(660,253,o),
(608,181,q),
(489,300,l),
(379,300,l),
(553,126,l),
(487,75,o),
(395,75,qs),
(320,75,o),
(199,146,o),
(130,272,o),
(130,350,qs)
);
}
);
width = 790;
},
{
layerId = "10EBB935-FE11-436B-A293-72D268A19F55";
shapes = (
{
closed = 1;
nodes = (
(40,249,o),
(132,85,o),
(295,-10,o),
(395,-10,qs),
(458,-10,o),
(570,28,o),
(615,64,q),
(679,0,l),
(789,0,l),
(671,118,l),
(709,165,o),
(750,283,o),
(750,350,qs),
(750,451,o),
(658,615,o),
(495,710,o),
(395,710,qs),
(295,710,o),
(132,615,o),
(40,451,o),
(40,350,qs)
);
},
{
closed = 1;
nodes = (
(130,428,o),
(199,554,o),
(320,625,o),
(395,625,qs),
(470,625,o),
(591,554,o),
(660,428,o),
(660,350,qs),
(660,253,o),
(608,181,q),
(489,300,l),
(379,300,l),
(553,126,l),
(487,75,o),
(395,75,qs),
(320,75,o),
(199,146,o),
(130,272,o),
(130,350,qs)
);
}
);
width = 790;
}
);
note = Q;
unicode = 81;
},
{
glyphname = R;
layers = (
{
layerId = m01;
shapes = (
{
closed = 1;
nodes = (
(80,700,l),
(80,1,l),
(80,1,o),
(80,0,o),
(80,0,q),
(94,0,l),
(94,0,o),
(95,0,o),
(95,0,q),
(99,0,l),
(99,0,o),
(100,0,o),
(100,0,q),
(165,0,l),
(165,0,o),
(165,1,o),
(165,1,q),
(165,280,l),
(250,280,l),
(443,3,ls),
(444,2,o),
(444,1,o),
(445,0,q),
(502,0,l),
(502,0,o),
(503,0,o),
(503,0,q),
(507,0,l),
(507,0,o),
(508,0,o),
(508,0,q),
(550,0,l),
(549,1,o),
(549,2,o),
(548,3,qs),
(341,288,l),
(417,306,o),
(508,413,o),
(508,490,qs),
(508,553,o),
(446,648,o),
(338,700,o),
(270,700,qs)
);
},
{
closed = 1;
nodes = (
(270,625,ls),
(339,625,o),
(423,553,o),
(423,490,qs),
(423,427,o),
(339,355,o),
(270,355,qs),
(165,355,l),
(165,625,l)
);
}
);
width = 560;
},
{
layerId = "2FFFB641-FAF4-44D5-BCCD-45A3ED2836BE";
shapes = (
{
closed = 1;
nodes = (
(80,700,l),
(80,75,ls),
(80,56,o),
(73,19,o),
(65,0,q),
(78,-6,l),
(86,13,o),
(95,57,o),
(95,75,q),
(99,75,l),
(99,57,o),
(112,1,o),
(120,-19,q),
(180,0,l),
(173,19,o),
(165,56,o),
(165,75,qs),
(165,280,l),
(250,280,l),
(366,114,ls),
(384,88,o),
(425,9,o),
(440,-24,q),
(488,0,l),
(474,30,o),
(441,87,o),
(422,114,q),
(426,114,l),
(446,86,o),
(494,29,o),
(522,0,q),
(545,23,l),
(518,50,o),
(489,84,o),
(467,114,qs),
(341,288,l),
(417,306,o),
(508,413,o),
(508,490,qs),
(508,553,o),
(446,648,o),
(338,700,o),
(270,700,qs)
);
},
{
closed = 1;
nodes = (
(270,625,ls),
(339,625,o),
(423,553,o),
(423,490,qs),
(423,427,o),
(339,355,o),
(270,355,qs),
(165,355,l),
(165,625,l)
);
}
);
width = 560;
},
{
layerId = "10EBB935-FE11-436B-A293-72D268A19F55";
shapes = (
{
closed = 1;
nodes = (
(80,700,l),
(80,150,ls),
(80,113,o),
(66,44,o),
(52,6,q),
(65,0,l),
(80,39,o),
(95,113,o),
(95,150,q),
(99,150,l),
(99,113,o),
(114,38,o),
(129,0,q),
(189,20,l),
(177,50,o),
(165,119,o),
(165,150,qs),
(165,280,l),
(250,280,l),
(287,227,ls),
(326,171,o),
(401,36,o),
(425,-22,q),
(473,0,l),
(449,55,o),
(383,168,o),
(341,227,q),
(345,227,l),
(387,171,o),
(472,88,o),
(537,36,q),
(556,59,l),
(496,106,o),
(417,185,o),
(385,227,qs),
(341,288,l),
(417,306,o),
(508,413,o),
(508,490,qs),
(508,553,o),
(446,648,o),
(338,700,o),
(270,700,qs)
);
},
{
closed = 1;
nodes = (
(270,625,ls),
(339,625,o),
(423,553,o),
(423,490,qs),
(423,427,o),
(339,355,o),
(270,355,qs),
(165,355,l),
(165,625,l)
);
}
);
width = 560;
}
);
note = R;
unicode = 82;
},
{
glyphname = S;
layers = (
{
layerId = m01;
shapes = (
{
closed = 1;
nodes = (
(38,166,l),
(74,91,o),
(207,-10,o),
(288,-10,qs),
(344,-10,o),
(443,40,o),
(503,131,o),
(503,190,qs),
(503,337,o),
(326,398,qs),
(236,429,o),
(164,494,o),
(164,540,qs),
(164,577,o),
(219,629,o),
(273,629,qs),
(329,629,o),
(399,569,o),
(424,521,q),
(497,563,l),
(467,626,o),
(356,710,o),
(278,710,qs),
(219,710,o),
(127,663,o),
(75,580,o),
(75,529,qs),
(75,471,o),
(133,392,o),
(211,350,o),
(260,332,qs),
(312,313,o),
(374,281,o),
(415,224,o),
(415,180,qs),
(415,132,o),
(347,70,o),
(291,70,qs),
(232,70,o),
(144,143,o),
(106,212,q)
);
}
);
width = 548;
},
{
layerId = "2FFFB641-FAF4-44D5-BCCD-45A3ED2836BE";
shapes = (
{
closed = 1;
nodes = (
(38,166,l),
(74,91,o),
(207,-10,o),
(288,-10,qs),
(344,-10,o),
(443,40,o),
(503,131,o),
(503,190,qs),
(503,337,o),
(326,398,qs),
(236,429,o),
(164,494,o),
(164,540,qs),
(164,577,o),
(219,629,o),
(273,629,qs),
(329,629,o),
(399,569,o),
(424,521,q),
(497,563,l),
(467,626,o),
(356,710,o),
(278,710,qs),
(219,710,o),
(127,663,o),
(75,580,o),
(75,529,qs),
(75,471,o),
(133,392,o),
(211,350,o),
(260,332,qs),
(312,313,o),
(374,281,o),
(415,224,o),
(415,180,qs),
(415,132,o),
(347,70,o),
(291,70,qs),
(232,70,o),
(144,143,o),
(106,212,q)
);
}
);
width = 548;
},
{
layerId = "10EBB935-FE11-436B-A293-72D268A19F55";
shapes = (
{
closed = 1;
nodes = (
(38,166,l),
(74,91,o),
(207,-10,o),
(288,-10,qs),
(344,-10,o),
(443,40,o),
(503,131,o),
(503,190,qs),
(503,337,o),
(326,398,qs),
(236,429,o),
(164,494,o),
(164,540,qs),
(164,577,o),
(219,629,o),
(273,629,qs),
(329,629,o),
(399,569,o),
(424,521,q),
(497,563,l),
(467,626,o),
(356,710,o),
(278,710,qs),
(219,710,o),
(127,663,o),
(75,580,o),
(75,529,qs),
(75,471,o),
(133,392,o),
(211,350,o),
(260,332,qs),
(312,313,o),
(374,281,o),
(415,224,o),
(415,180,qs),
(415,132,o),
(347,70,o),
(291,70,qs),
(232,70,o),
(144,143,o),
(106,212,q)
);
}
);
width = 548;
}
);
note = S;
unicode = 83;
},
{
glyphname = T;
kernLeft = T;
kernRight = T;
layers = (
{
layerId = m01;
shapes = (
{
closed = 1;
nodes = (
(10,620,l),
(190,620,l),
(190,1,l),
(190,1,o),
(190,0,o),
(190,0,q),
(228,0,l),
(228,0,o),
(229,0,o),
(229,0,q),
(233,0,l),
(233,0,o),
(234,0,o),
(234,0,q),
(253,0,l),
(253,0,o),
(254,0,o),
(254,0,q),
(258,0,l),
(258,0,o),
(259,0,o),
(259,0,q),
(275,0,l),
(275,0,o),
(275,1,o),
(275,1,q),
(275,620,l),
(455,620,l),
(455,700,l),
(10,700,l)
);
}
);
width = 465;
},
{
layerId = "2FFFB641-FAF4-44D5-BCCD-45A3ED2836BE";
shapes = (
{
closed = 1;
nodes = (
(10,620,l),
(190,620,l),
(190,150,ls),
(190,113,o),
(177,38,o),
(165,0,q),
(201,-14,l),
(213,25,o),
(229,114,o),
(229,150,q),
(233,150,l),
(233,113,o),
(247,30,o),
(260,-8,q),
(279,0,l),
(273,16,o),
(268,32,o),
(262,49,q),
(266,50,l),
(271,35,o),
(290,0,o),
(301,-12,q),
(315,0,l),
(292,36,o),
(275,101,o),
(275,150,qs),
(275,620,l),
(455,620,l),
(455,700,l),
(10,700,l)
);
}
);
width = 465;
},
{
layerId = "10EBB935-FE11-436B-A293-72D268A19F55";
shapes = (
{
closed = 1;
nodes = (
(10,620,l),
(190,620,l),
(190,300,ls),
(190,226,o),
(165,77,o),
(140,0,q),
(179,-13,l),
(203,62,o),
(229,225,o),
(229,300,q),
(233,300,l),
(233,227,o),
(260,70,o),
(285,-7,q),
(304,0,l),
(297,25,o),
(284,74,o),
(278,99,q),
(282,100,l),
(289,74,o),
(309,24,o),
(323,0,q),
(336,8,l),
(300,78,o),
(275,216,o),
(275,300,qs),
(275,620,l),
(455,620,l),
(455,700,l),
(10,700,l)
);
}
);
width = 465;
}
);
note = T;
unicode = 84;
},
{
glyphname = U;
layers = (
{
layerId = m01;
shapes = (
{
closed = 1;
nodes = (
(160,700,l),
(75,700,l),
(75,230,ls),
(75,161,o),
(134,52,o),
(242,-10,o),
(313,-10,qs),
(384,-10,o),
(492,52,o),
(551,161,o),
(551,230,qs),
(551,700,l),
(466,700,l),
(466,230,ls),
(466,156,o),
(387,70,o),
(313,70,qs),
(239,70,o),
(160,156,o),
(160,230,qs)
);
}
);
width = 626;
},
{
layerId = "2FFFB641-FAF4-44D5-BCCD-45A3ED2836BE";
shapes = (
{
closed = 1;
nodes = (
(160,700,l),
(75,700,l),
(75,230,ls),
(75,161,o),
(134,52,o),
(242,-10,o),
(313,-10,qs),
(384,-10,o),
(492,52,o),
(551,161,o),
(551,230,qs),
(551,700,l),
(466,700,l),
(466,230,ls),
(466,156,o),
(387,70,o),
(313,70,qs),
(239,70,o),
(160,156,o),
(160,230,qs)
);
}
);
width = 626;
},
{
layerId = "10EBB935-FE11-436B-A293-72D268A19F55";
shapes = (
{
closed = 1;
nodes = (
(160,700,l),
(75,700,l),
(75,230,ls),
(75,161,o),
(134,52,o),
(242,-10,o),
(313,-10,qs),
(384,-10,o),
(492,52,o),
(551,161,o),
(551,230,qs),
(551,700,l),
(466,700,l),
(466,230,ls),
(466,156,o),
(387,70,o),
(313,70,qs),
(239,70,o),
(160,156,o),
(160,230,qs)
);
}
);
width = 626;
}
);
note = U;
unicode = 85;
},
{
glyphname = V;
kernLeft = V;
kernRight = V;
layers = (
{
layerId = m01;
shapes = (
{
closed = 1;
nodes = (
(330,158,l),
(100,700,l),
(5,700,l),
(330,-35,l),
(655,700,l),
(560,700,l)
);
}
);
width = 660;
},
{
layerId = "2FFFB641-FAF4-44D5-BCCD-45A3ED2836BE";
shapes = (
{
closed = 1;
nodes = (
(330,158,l),
(100,700,l),
(5,700,l),
(330,-35,l),
(655,700,l),
(560,700,l)
);
}
);
width = 660;
},
{
layerId = "10EBB935-FE11-436B-A293-72D268A19F55";
shapes = (
{
closed = 1;
nodes = (
(330,158,l),
(100,700,l),
(5,700,l),
(330,-35,l),
(655,700,l),
(560,700,l)
);
}
);
width = 660;
}
);
note = V;
unicode = 86;
},
{
glyphname = W;
kernLeft = V;
kernRight = V;
layers = (
{
layerId = m01;
shapes = (
{
closed = 1;
nodes = (
(703,185,l),
(495,735,l),
(291,185,l),
(105,700,l),
(10,700,l),
(285,-35,l),
(495,509,l),
(705,-35,l),
(980,700,l),
(885,700,l)
);
}
);
width = 990;
},
{
layerId = "2FFFB641-FAF4-44D5-BCCD-45A3ED2836BE";
shapes = (
{
closed = 1;
nodes = (
(703,185,l),
(495,735,l),
(291,185,l),
(105,700,l),
(10,700,l),
(285,-35,l),
(495,509,l),
(705,-35,l),
(980,700,l),
(885,700,l)
);
}
);
width = 990;
},
{
layerId = "10EBB935-FE11-436B-A293-72D268A19F55";
shapes = (
{
closed = 1;
nodes = (
(703,185,l),
(495,735,l),
(291,185,l),
(105,700,l),
(10,700,l),
(285,-35,l),
(495,509,l),
(705,-35,l),
(980,700,l),
(885,700,l)
);
}
);
width = 990;
}
);
note = W;
unicode = 87;
},
{
glyphname = X;
kernLeft = X;
kernRight = K;
layers = (
{
layerId = m01;
shapes = (
{
closed = 1;
nodes = (
(430,700,l),
(281,441,l),
(135,700,l),
(35,700,l),
(238,367,l),
(15,8,ls),
(14,6,o),
(13,4,qs),
(12,2,o),
(10,0,q),
(76,0,l),
(76,0,o),
(77,0,o),
(77,0,q),
(77,0,o),
(77,0,o),
(77,0,q),
(81,0,l),
(81,0,o),
(82,0,o),
(82,0,q),
(82,0,o),
(82,0,o),
(82,0,q),
(110,0,l),
(112,4,o),
(114,7,qs),
(280,293,l),
(441,7,ls),
(443,4,o),
(445,0,q),
(468,0,l),
(468,0,o),
(469,0,o),
(469,0,q),
(473,0,l),
(473,0,o),
(474,0,o),
(474,0,q),
(545,0,l),
(544,3,o),
(542,5,q),
(323,367,l),
(530,700,l)
);
}
);
width = 555;
},
{
layerId = "2FFFB641-FAF4-44D5-BCCD-45A3ED2836BE";
shapes = (
{
closed = 1;
nodes = (
(430,700,l),
(281,441,l),
(135,700,l),
(35,700,l),
(238,367,l),
(96,138,ls),
(82,115,o),
(48,69,qs),
(23,35,o),
(0,0,q),
(48,-32,l),
(59,-13,o),
(86,30,o),
(102,53,qs),
(117,76,o),
(144,119,o),
(155,138,q),
(158,136,l),
(148,119,o),
(132,85,o),
(125,68,qs),
(117,51,o),
(101,17,o),
(91,0,q),
(112,-14,l),
(146,48,o),
(180,110,qs),
(280,293,l),
(405,71,ls),
(420,44,o),
(430,-6,q),
(454,0,l),
(450,20,o),
(439,52,o),
(430,69,q),
(433,71,l),
(449,47,o),
(499,-20,o),
(514,-36,q),
(557,0,l),
(533,27,o),
(502,71,q),
(323,367,l),
(530,700,l)
);
}
);
width = 555;
},
{
layerId = "10EBB935-FE11-436B-A293-72D268A19F55";
shapes = (
{
closed = 1;
nodes = (
(430,700,l),
(281,441,l),
(135,700,l),
(35,700,l),
(238,367,l),
(182,277,ls),
(140,208,o),
(92,139,qs),
(38,60,o),
(-10,0,q),
(30,-34,l),
(56,2,o),
(111,81,o),
(138,122,qs),
(165,162,o),
(213,241,o),
(234,277,q),
(237,275,l),
(218,241,o),
(182,172,o),
(165,138,qs),
(148,104,o),
(116,35,o),
(101,0,q),
(122,-13,l),
(185,129,o),
(270,276,qs),
(280,293,l),
(365,142,ls),
(398,85,o),
(415,-5,q),
(439,0,l),
(433,37,o),
(410,106,o),
(391,140,q),
(394,142,l),
(413,107,o),
(499,0,o),
(535,-36,q),
(575,0,l),
(497,80,o),
(458,144,qs),
(323,367,l),
(530,700,l)
);
}
);
width = 555;
}
);
note = X;
unicode = 88;
},
{
glyphname = Y;
kernLeft = T;
kernRight = T;
layers = (
{
layerId = m01;
shapes = (
{
closed = 1;
nodes = (
(461,700,l),
(280,376,l),
(100,700,l),
(5,700,l),
(238,301,l),
(238,1,l),
(238,1,o),
(238,0,o),
(238,0,q),
(299,0,l),
(299,0,o),
(300,0,o),
(300,0,q),
(304,0,l),
(304,0,o),
(305,0,o),
(305,0,q),
(323,0,l),
(323,0,o),
(323,1,o),
(323,1,q),
(323,302,l),
(556,700,l)
);
}
);
width = 561;
},
{
layerId = "2FFFB641-FAF4-44D5-BCCD-45A3ED2836BE";
shapes = (
{
closed = 1;
nodes = (
(461,700,l),
(280,376,l),
(100,700,l),
(5,700,l),
(238,301,l),
(238,125,ls),
(238,93,o),
(226,31,o),
(213,0,q),
(269,-20,l),
(282,12,o),
(300,94,o),
(300,125,q),
(304,125,l),
(304,94,o),
(319,24,o),
(333,-8,q),
(348,0,l),
(336,32,o),
(323,94,o),
(323,125,qs),
(323,302,l),
(556,700,l)
);
}
);
width = 561;
},
{
layerId = "10EBB935-FE11-436B-A293-72D268A19F55";
shapes = (
{
closed = 1;
nodes = (
(461,700,l),
(280,376,l),
(100,700,l),
(5,700,l),
(238,301,l),
(237,252,ls),
(233,190,o),
(208,64,o),
(188,0,q),
(244,-18,l),
(269,49,o),
(300,191,o),
(300,250,q),
(304,250,l),
(304,188,o),
(332,54,o),
(358,-8,q),
(373,0,l),
(347,61,o),
(323,186,o),
(323,250,qs),
(323,302,l),
(556,700,l)
);
}
);
width = 561;
}
);
note = Y;
unicode = 89;
},
{
glyphname = Z;
kernLeft = X;
kernRight = K;
layers = (
{
layerId = m01;
shapes = (
{
closed = 1;
nodes = (
(35,620,l),
(383,620,l),
(15,0,l),
(504,0,l),
(504,0,o),
(505,0,o),
(505,0,q),
(505,55,l),
(505,55,o),
(505,56,o),
(505,56,q),
(505,60,l),
(505,60,o),
(505,61,o),
(505,61,q),
(505,80,l),
(505,80,o),
(504,80,o),
(504,80,q),
(157,80,l),
(525,700,l),
(35,700,l)
);
}
);
width = 545;
},
{
layerId = "2FFFB641-FAF4-44D5-BCCD-45A3ED2836BE";
shapes = (
{
closed = 1;
nodes = (
(35,620,l),
(383,620,l),
(15,0,l),
(405,0,ls),
(430,0,o),
(481,-12,o),
(505,-25,q),
(525,22,l),
(499,35,o),
(429,56,o),
(405,56,q),
(405,60,l),
(430,60,o),
(488,76,o),
(513,89,q),
(505,105,l),
(481,92,o),
(431,80,o),
(405,80,qs),
(157,80,l),
(525,700,l),
(35,700,l)
);
}
);
width = 545;
},
{
layerId = "10EBB935-FE11-436B-A293-72D268A19F55";
shapes = (
{
closed = 1;
nodes = (
(35,620,l),
(383,620,l),
(15,0,l),
(305,0,ls),
(357,0,o),
(456,-24,o),
(505,-50,q),
(529,-5,l),
(478,22,o),
(355,56,o),
(305,56,q),
(305,60,l),
(355,60,o),
(463,88,o),
(513,114,q),
(505,130,l),
(456,104,o),
(356,80,o),
(305,80,qs),
(157,80,l),
(525,700,l),
(35,700,l)
);
}
);
width = 545;
}
);
note = Z;
unicode = 90;
},
{
glyphname = a;
kernLeft = a;
kernRight = a;
layers = (
{
layerId = m01;
shapes = (
{
closed = 1;
nodes = (
(35,158,o),
(96,49,o),
(200,-10,o),
(263,-10,qs),
(317,-10,o),
(400,41,o),
(425,88,q),
(425,0,l),
(500,0,l),
(500,460,l),
(425,460,l),
(425,372,l),
(400,419,o),
(317,470,o),
(263,470,qs),
(200,470,o),
(96,411,o),
(35,302,o),
(35,230,qs)
);
},
{
closed = 1;
nodes = (
(116,281,o),
(158,356,o),
(230,395,o),
(273,395,qs),
(309,395,o),
(377,356,o),
(420,281,o),
(420,230,qs),
(420,179,o),
(377,104,o),
(309,65,o),
(273,65,qs),
(230,65,o),
(158,104,o),
(116,179,o),
(116,230,qs)
);
}
);
width = 570;
},
{
layerId = "2FFFB641-FAF4-44D5-BCCD-45A3ED2836BE";
shapes = (
{
closed = 1;
nodes = (
(35,158,o),
(96,49,o),
(200,-10,o),
(263,-10,qs),
(317,-10,o),
(400,41,o),
(425,88,q),
(425,0,l),
(500,0,l),
(500,460,l),
(425,460,l),
(425,372,l),
(400,419,o),
(317,470,o),
(263,470,qs),
(200,470,o),
(96,411,o),
(35,302,o),
(35,230,qs)
);
},
{
closed = 1;
nodes = (
(116,281,o),
(158,356,o),
(230,395,o),
(273,395,qs),
(309,395,o),
(377,356,o),
(420,281,o),
(420,230,qs),
(420,179,o),
(377,104,o),
(309,65,o),
(273,65,qs),
(230,65,o),
(158,104,o),
(116,179,o),
(116,230,qs)
);
}
);
width = 570;
},
{
layerId = "10EBB935-FE11-436B-A293-72D268A19F55";
shapes = (
{
closed = 1;
nodes = (
(35,158,o),
(96,49,o),
(200,-10,o),
(263,-10,qs),
(317,-10,o),
(400,41,o),
(425,88,q),
(425,0,l),
(500,0,l),
(500,460,l),
(425,460,l),
(425,372,l),
(400,419,o),
(317,470,o),
(263,470,qs),
(200,470,o),
(96,411,o),
(35,302,o),
(35,230,qs)
);
},
{
closed = 1;
nodes = (
(116,281,o),
(158,356,o),
(230,395,o),
(273,395,qs),
(309,395,o),
(377,356,o),
(420,281,o),
(420,230,qs),
(420,179,o),
(377,104,o),
(309,65,o),
(273,65,qs),
(230,65,o),
(158,104,o),
(116,179,o),
(116,230,qs)
);
}
);
width = 570;
}
);
note = a;
unicode = 97;
},
{
glyphname = b;
kernRight = b;
layers = (
{
layerId = m01;
shapes = (
{
closed = 1;
nodes = (
(535,302,o),
(474,411,o),
(370,470,o),
(307,470,qs),
(256,470,o),
(176,424,o),
(150,381,q),
(150,780,l),
(70,780,l),
(70,0,l),
(150,0,l),
(150,79,l),
(176,36,o),
(256,-10,o),
(307,-10,qs),
(370,-10,o),
(474,49,o),
(535,158,o),
(535,230,qs)
);
},
{
closed = 1;
nodes = (
(454,179,o),
(412,104,o),
(340,65,o),
(297,65,qs),
(261,65,o),
(193,104,o),
(150,179,o),
(150,230,qs),
(150,281,o),
(193,356,o),
(261,395,o),
(297,395,qs),
(340,395,o),
(412,356,o),
(454,281,o),
(454,230,qs)
);
}
);
width = 570;
},
{
layerId = "2FFFB641-FAF4-44D5-BCCD-45A3ED2836BE";
shapes = (
{
closed = 1;
nodes = (
(535,302,o),
(474,411,o),
(370,470,o),
(307,470,qs),
(256,470,o),
(176,424,o),
(150,381,q),
(150,780,l),
(70,780,l),
(70,0,l),
(150,0,l),
(150,79,l),
(176,36,o),
(256,-10,o),
(307,-10,qs),
(370,-10,o),
(474,49,o),
(535,158,o),
(535,230,qs)
);
},
{
closed = 1;
nodes = (
(454,179,o),
(412,104,o),
(340,65,o),
(297,65,qs),
(261,65,o),
(193,104,o),
(150,179,o),
(150,230,qs),
(150,281,o),
(193,356,o),
(261,395,o),
(297,395,qs),
(340,395,o),
(412,356,o),
(454,281,o),
(454,230,qs)
);
}
);
width = 570;
},
{
layerId = "10EBB935-FE11-436B-A293-72D268A19F55";
shapes = (
{
closed = 1;
nodes = (
(535,302,o),
(474,411,o),
(370,470,o),
(307,470,qs),
(256,470,o),
(176,424,o),
(150,381,q),
(150,780,l),
(70,780,l),
(70,0,l),
(150,0,l),
(150,79,l),
(176,36,o),
(256,-10,o),
(307,-10,qs),
(370,-10,o),
(474,49,o),
(535,158,o),
(535,230,qs)
);
},
{
closed = 1;
nodes = (
(454,179,o),
(412,104,o),
(340,65,o),
(297,65,qs),
(261,65,o),
(193,104,o),
(150,179,o),
(150,230,qs),
(150,281,o),
(193,356,o),
(261,395,o),
(297,395,qs),
(340,395,o),
(412,356,o),
(454,281,o),
(454,230,qs)
);
}
);
width = 570;
}
);
note = b;
unicode = 98;
},
{
glyphname = c;
kernLeft = c;
kernRight = a;
layers = (
{
layerId = m01;
shapes = (
{
closed = 1;
nodes = (
(111,277,o),
(152,353,o),
(223,395,o),
(268,395,qs),
(322,395,o),
(412,346,o),
(428,311,q),
(428,411,l),
(404,438,o),
(316,470,o),
(268,470,qs),
(201,470,o),
(92,408,o),
(30,298,o),
(30,230,qs),
(30,162,o),
(92,52,o),
(201,-10,o),
(268,-10,qs),
(317,-10,o),
(405,21,o),
(428,49,q),
(428,149,l),
(412,114,o),
(322,65,o),
(268,65,qs),
(223,65,o),
(152,107,o),
(111,183,o),
(111,230,qs)
);
}
);
width = 478;
},
{
layerId = "2FFFB641-FAF4-44D5-BCCD-45A3ED2836BE";
shapes = (
{
closed = 1;
nodes = (
(111,277,o),
(152,353,o),
(223,395,o),
(268,395,qs),
(322,395,o),
(412,346,o),
(428,311,q),
(428,411,l),
(404,438,o),
(316,470,o),
(268,470,qs),
(201,470,o),
(92,408,o),
(30,298,o),
(30,230,qs),
(30,162,o),
(92,52,o),
(201,-10,o),
(268,-10,qs),
(317,-10,o),
(405,21,o),
(428,49,q),
(428,149,l),
(412,114,o),
(322,65,o),
(268,65,qs),
(223,65,o),
(152,107,o),
(111,183,o),
(111,230,qs)
);
}
);
width = 478;
},
{
layerId = "10EBB935-FE11-436B-A293-72D268A19F55";
shapes = (
{
closed = 1;
nodes = (
(111,277,o),
(152,353,o),
(223,395,o),
(268,395,qs),
(322,395,o),
(412,346,o),
(428,311,q),
(428,411,l),
(404,438,o),
(316,470,o),
(268,470,qs),
(201,470,o),
(92,408,o),
(30,298,o),
(30,230,qs),
(30,162,o),
(92,52,o),
(201,-10,o),
(268,-10,qs),
(317,-10,o),
(405,21,o),
(428,49,q),
(428,149,l),
(412,114,o),
(322,65,o),
(268,65,qs),
(223,65,o),
(152,107,o),
(111,183,o),
(111,230,qs)
);
}
);
width = 478;
}
);
note = c;
unicode = 99;
},
{
glyphname = d;
layers = (
{
layerId = m01;
shapes = (
{
closed = 1;
nodes = (
(35,158,o),
(96,49,o),
(200,-10,o),
(263,-10,qs),
(314,-10,o),
(394,36,o),
(420,79,q),
(420,0,l),
(500,0,l),
(500,780,l),
(420,780,l),
(420,381,l),
(394,424,o),
(314,470,o),
(263,470,qs),
(200,470,o),
(96,411,o),
(35,302,o),
(35,230,qs)
);
},
{
closed = 1;
nodes = (
(116,281,o),
(158,356,o),
(230,395,o),
(273,395,qs),
(309,395,o),
(377,356,o),
(420,281,o),
(420,230,qs),
(420,179,o),
(377,104,o),
(309,65,o),
(273,65,qs),
(230,65,o),
(158,104,o),
(116,179,o),
(116,230,qs)
);
}
);
width = 570;
},
{
layerId = "2FFFB641-FAF4-44D5-BCCD-45A3ED2836BE";
shapes = (
{
closed = 1;
nodes = (
(35,158,o),
(96,49,o),
(200,-10,o),
(263,-10,qs),
(314,-10,o),
(394,36,o),
(420,79,q),
(420,0,l),
(500,0,l),
(500,780,l),
(420,780,l),
(420,381,l),
(394,424,o),
(314,470,o),
(263,470,qs),
(200,470,o),
(96,411,o),
(35,302,o),
(35,230,qs)
);
},
{
closed = 1;
nodes = (
(116,281,o),
(158,356,o),
(230,395,o),
(273,395,qs),
(309,395,o),
(377,356,o),
(420,281,o),
(420,230,qs),
(420,179,o),
(377,104,o),
(309,65,o),
(273,65,qs),
(230,65,o),
(158,104,o),
(116,179,o),
(116,230,qs)
);
}
);
width = 570;
},
{
layerId = "10EBB935-FE11-436B-A293-72D268A19F55";
shapes = (
{
closed = 1;
nodes = (
(35,158,o),
(96,49,o),
(200,-10,o),
(263,-10,qs),
(314,-10,o),
(394,36,o),
(420,79,q),
(420,0,l),
(500,0,l),
(500,780,l),
(420,780,l),
(420,381,l),
(394,424,o),
(314,470,o),
(263,470,qs),
(200,470,o),
(96,411,o),
(35,302,o),
(35,230,qs)
);
},
{
closed = 1;
nodes = (
(116,281,o),
(158,356,o),
(230,395,o),
(273,395,qs),
(309,395,o),
(377,356,o),
(420,281,o),
(420,230,qs),
(420,179,o),
(377,104,o),
(309,65,o),
(273,65,qs),
(230,65,o),
(158,104,o),
(116,179,o),
(116,230,qs)
);
}
);
width = 570;
}
);
note = d;
unicode = 100;
},
{
glyphname = e;
kernLeft = c;
kernRight = b;
layers = (
{
layerId = m01;
shapes = (
{
closed = 1;
nodes = (
(400,-10,o),
(472,107,q),
(407,148,l),
(357,65,o),
(263,65,qs),
(198,65,o),
(122,140,o),
(117,210,q),
(479,210,l),
(480,234,ls),
(480,344,o),
(364,470,o),
(263,470,qs),
(196,470,o),
(92,410,o),
(35,301,o),
(35,230,qs),
(35,160,o),
(90,51,o),
(189,-10,o),
(253,-10,qs)
);
},
{
closed = 1;
nodes = (
(318,400,o),
(388,334,o),
(393,278,q),
(120,278,l),
(131,337,o),
(204,400,o),
(263,400,qs)
);
}
);
width = 515;
},
{
layerId = "2FFFB641-FAF4-44D5-BCCD-45A3ED2836BE";
shapes = (
{
closed = 1;
nodes = (
(400,-10,o),
(472,107,q),
(407,148,l),
(357,65,o),
(263,65,qs),
(198,65,o),
(122,140,o),
(117,210,q),
(479,210,l),
(480,234,ls),
(480,344,o),
(364,470,o),
(263,470,qs),
(196,470,o),
(92,410,o),
(35,301,o),
(35,230,qs),
(35,160,o),
(90,51,o),
(189,-10,o),
(253,-10,qs)
);
},
{
closed = 1;
nodes = (
(318,400,o),
(388,334,o),
(393,278,q),
(120,278,l),
(131,337,o),
(204,400,o),
(263,400,qs)
);
}
);
width = 515;
},
{
layerId = "10EBB935-FE11-436B-A293-72D268A19F55";
shapes = (
{
closed = 1;
nodes = (
(400,-10,o),
(472,107,q),
(407,148,l),
(357,65,o),
(263,65,qs),
(198,65,o),
(122,140,o),
(117,210,q),
(479,210,l),
(480,234,ls),
(480,344,o),
(364,470,o),
(263,470,qs),
(196,470,o),
(92,410,o),
(35,301,o),
(35,230,qs),
(35,160,o),
(90,51,o),
(189,-10,o),
(253,-10,qs)
);
},
{
closed = 1;
nodes = (
(318,400,o),
(388,334,o),
(393,278,q),
(120,278,l),
(131,337,o),
(204,400,o),
(263,400,qs)
);
}
);
width = 515;
}
);
note = e;
unicode = 101;
},
{
glyphname = f;
layers = (
{
layerId = m01;
shapes = (
{
closed = 1;
nodes = (
(85,460,l),
(40,460,l),
(40,385,l),
(85,385,l),
(85,0,l),
(165,0,l),
(165,385,l),
(270,385,l),
(270,460,l),
(165,460,l),
(165,620,ls),
(165,668,o),
(189,710,o),
(213,710,qs),
(246,710,o),
(262,684,q),
(306,750,l),
(293,767,o),
(248,790,o),
(218,790,qs),
(154,790,o),
(85,710,o),
(85,630,qs)
);
}
);
width = 286;
},
{
layerId = "2FFFB641-FAF4-44D5-BCCD-45A3ED2836BE";
shapes = (
{
closed = 1;
nodes = (
(85,460,l),
(40,460,l),
(40,385,l),
(85,385,l),
(85,0,l),
(165,0,l),
(165,385,l),
(270,385,l),
(270,460,l),
(165,460,l),
(165,620,ls),
(165,668,o),
(189,710,o),
(213,710,qs),
(246,710,o),
(262,684,q),
(306,750,l),
(293,767,o),
(248,790,o),
(218,790,qs),
(154,790,o),
(85,710,o),
(85,630,qs)
);
}
);
width = 286;
},
{
layerId = "10EBB935-FE11-436B-A293-72D268A19F55";
shapes = (
{
closed = 1;
nodes = (
(85,460,l),
(40,460,l),
(40,385,l),
(85,385,l),
(85,0,l),
(165,0,l),
(165,385,l),
(270,385,l),
(270,460,l),
(165,460,l),
(165,620,ls),
(165,668,o),
(189,710,o),
(213,710,qs),
(246,710,o),
(262,684,q),
(306,750,l),
(293,767,o),
(248,790,o),
(218,790,qs),
(154,790,o),
(85,710,o),
(85,630,qs)
);
}
);
width = 286;
}
);
note = f;
unicode = 102;
},
{
glyphname = g;
kernLeft = c;
kernRight = g;
layers = (
{
layerId = m01;
shapes = (
{
closed = 1;
nodes = (
(44,-30,l),
(44,-89,o),
(102,-180,o),
(205,-230,o),
(272,-230,qs),
(331,-230,o),
(436,-175,o),
(500,-66,o),
(500,10,qs),
(500,460,l),
(420,460,l),
(420,381,l),
(394,424,o),
(314,470,o),
(263,470,qs),
(200,470,o),
(96,411,o),
(35,302,o),
(35,230,qs),
(35,158,o),
(96,49,o),
(200,-10,o),
(263,-10,qs),
(314,-10,o),
(394,36,o),
(420,79,q),
(420,10,ls),
(420,-45,o),
(377,-119,o),
(309,-155,o),
(272,-155,qs),
(228,-155,o),
(161,-121,o),
(125,-63,o),
(125,-30,q)
);
},
{
closed = 1;
nodes = (
(116,281,o),
(158,356,o),
(230,395,o),
(273,395,qs),
(309,395,o),
(377,356,o),
(420,281,o),
(420,230,qs),
(420,179,o),
(377,104,o),
(309,65,o),
(273,65,qs),
(230,65,o),
(158,104,o),
(116,179,o),
(116,230,qs)
);
}
);
width = 570;
},
{
layerId = "2FFFB641-FAF4-44D5-BCCD-45A3ED2836BE";
shapes = (
{
closed = 1;
nodes = (
(44,-30,l),
(44,-89,o),
(102,-180,o),
(205,-230,o),
(272,-230,qs),
(331,-230,o),
(436,-175,o),
(500,-66,o),
(500,10,qs),
(500,460,l),
(420,460,l),
(420,381,l),
(394,424,o),
(314,470,o),
(263,470,qs),
(200,470,o),
(96,411,o),
(35,302,o),
(35,230,qs),
(35,158,o),
(96,49,o),
(200,-10,o),
(263,-10,qs),
(314,-10,o),
(394,36,o),
(420,79,q),
(420,10,ls),
(420,-45,o),
(377,-119,o),
(309,-155,o),
(272,-155,qs),
(228,-155,o),
(161,-121,o),
(125,-63,o),
(125,-30,q)
);
},
{
closed = 1;
nodes = (
(116,281,o),
(158,356,o),
(230,395,o),
(273,395,qs),
(309,395,o),
(377,356,o),
(420,281,o),
(420,230,qs),
(420,179,o),
(377,104,o),
(309,65,o),
(273,65,qs),
(230,65,o),
(158,104,o),
(116,179,o),
(116,230,qs)
);
}
);
width = 570;
},
{
layerId = "10EBB935-FE11-436B-A293-72D268A19F55";
shapes = (
{
closed = 1;
nodes = (
(44,-30,l),
(44,-89,o),
(102,-180,o),
(205,-230,o),
(272,-230,qs),
(331,-230,o),
(436,-175,o),
(500,-66,o),
(500,10,qs),
(500,460,l),
(420,460,l),
(420,381,l),
(394,424,o),
(314,470,o),
(263,470,qs),
(200,470,o),
(96,411,o),
(35,302,o),
(35,230,qs),
(35,158,o),
(96,49,o),
(200,-10,o),
(263,-10,qs),
(314,-10,o),
(394,36,o),
(420,79,q),
(420,10,ls),
(420,-45,o),
(377,-119,o),
(309,-155,o),
(272,-155,qs),
(228,-155,o),
(161,-121,o),
(125,-63,o),
(125,-30,q)
);
},
{
closed = 1;
nodes = (
(116,281,o),
(158,356,o),
(230,395,o),
(273,395,qs),
(309,395,o),
(377,356,o),
(420,281,o),
(420,230,qs),
(420,179,o),
(377,104,o),
(309,65,o),
(273,65,qs),
(230,65,o),
(158,104,o),
(116,179,o),
(116,230,qs)
);
}
);
width = 570;
}
);
note = g;
unicode = 103;
},
{
glyphname = h;
kernRight = h;
layers = (
{
layerId = m01;
shapes = (
{
closed = 1;
nodes = (
(370,0,l),
(450,0,l),
(450,290,ls),
(450,377,o),
(365,470,o),
(292,470,qs),
(248,470,o),
(176,426,o),
(155,387,q),
(155,780,l),
(75,780,l),
(75,0,l),
(155,0,l),
(155,280,ls),
(155,330,o),
(220,395,o),
(272,395,qs),
(370,395,o),
(370,280,qs)
);
}
);
width = 525;
},
{
layerId = "2FFFB641-FAF4-44D5-BCCD-45A3ED2836BE";
shapes = (
{
closed = 1;
nodes = (
(370,0,l),
(450,0,l),
(450,290,ls),
(450,377,o),
(365,470,o),
(292,470,qs),
(248,470,o),
(176,426,o),
(155,387,q),
(155,780,l),
(75,780,l),
(75,0,l),
(155,0,l),
(155,280,ls),
(155,330,o),
(220,395,o),
(272,395,qs),
(370,395,o),
(370,280,qs)
);
}
);
width = 525;
},
{
layerId = "10EBB935-FE11-436B-A293-72D268A19F55";
shapes = (
{
closed = 1;
nodes = (
(370,0,l),
(450,0,l),
(450,290,ls),
(450,377,o),
(365,470,o),
(292,470,qs),
(248,470,o),
(176,426,o),
(155,387,q),
(155,780,l),
(75,780,l),
(75,0,l),
(155,0,l),
(155,280,ls),
(155,330,o),
(220,395,o),
(272,395,qs),
(370,395,o),
(370,280,qs)
);
}
);
width = 525;
}
);
note = h;
unicode = 104;
},
{
glyphname = i;
layers = (
{
layerId = m01;
shapes = (
{
closed = 1;
nodes = (
(75,628,o),
(108,595,o),
(130,595,qs),
(153,595,o),
(185,628,o),
(185,650,qs),
(185,673,o),
(153,705,o),
(130,705,qs),
(108,705,o),
(75,673,o),
(75,650,qs)
);
},
{
closed = 1;
nodes = (
(90,460,l),
(90,0,l),
(170,0,l),
(170,460,l)
);
}
);
width = 260;
},
{
layerId = "2FFFB641-FAF4-44D5-BCCD-45A3ED2836BE";
shapes = (
{
closed = 1;
nodes = (
(75,628,o),
(108,595,o),
(130,595,qs),
(153,595,o),
(185,628,o),
(185,650,qs),
(185,673,o),
(153,705,o),
(130,705,qs),
(108,705,o),
(75,673,o),
(75,650,qs)
);
},
{
closed = 1;
nodes = (
(90,460,l),
(90,0,l),
(170,0,l),
(170,460,l)
);
}
);
width = 260;
},
{
layerId = "10EBB935-FE11-436B-A293-72D268A19F55";
shapes = (
{
closed = 1;
nodes = (
(75,628,o),
(108,595,o),
(130,595,qs),
(153,595,o),
(185,628,o),
(185,650,qs),
(185,673,o),
(153,705,o),
(130,705,qs),
(108,705,o),
(75,673,o),
(75,650,qs)
);
},
{
closed = 1;
nodes = (
(90,460,l),
(90,0,l),
(170,0,l),
(170,460,l)
);
}
);
width = 260;
}
);
note = i;
unicode = 105;
},
{
glyphname = j;
kernLeft = J;
kernRight = J;
layers = (
{
layerId = m01;
shapes = (
{
closed = 1;
nodes = (
(62,628,o),
(94,596,o),
(116,596,qs),
(139,596,o),
(170,628,o),
(170,650,qs),
(170,673,o),
(139,704,o),
(116,704,qs),
(94,704,o),
(62,673,o),
(62,650,qs)
);
},
{
closed = 1;
nodes = (
(-61,-180,l),
(-31,-220,o),
(27,-220,qs),
(90,-220,o),
(160,-136,o),
(160,-60,qs),
(160,460,l),
(80,460,l),
(80,-50,ls),
(80,-98,o),
(58,-140,o),
(32,-140,qs),
(16,-140,o),
(-9,-126,o),
(-17,-114,q)
);
}
);
width = 250;
},
{
layerId = "2FFFB641-FAF4-44D5-BCCD-45A3ED2836BE";
shapes = (
{
closed = 1;
nodes = (
(62,628,o),
(94,596,o),
(116,596,qs),
(139,596,o),
(170,628,o),
(170,650,qs),
(170,673,o),
(139,704,o),
(116,704,qs),
(94,704,o),
(62,673,o),
(62,650,qs)
);
},
{
closed = 1;
nodes = (
(-61,-180,l),
(-31,-220,o),
(27,-220,qs),
(90,-220,o),
(160,-136,o),
(160,-60,qs),
(160,460,l),
(80,460,l),
(80,-50,ls),
(80,-98,o),
(58,-140,o),
(32,-140,qs),
(16,-140,o),
(-9,-126,o),
(-17,-114,q)
);
}
);
width = 250;
},
{
layerId = "10EBB935-FE11-436B-A293-72D268A19F55";
shapes = (
{
closed = 1;
nodes = (
(62,628,o),
(94,596,o),
(116,596,qs),
(139,596,o),
(170,628,o),
(170,650,qs),
(170,673,o),
(139,704,o),
(116,704,qs),
(94,704,o),
(62,673,o),
(62,650,qs)
);
},
{
closed = 1;
nodes = (
(-61,-180,l),
(-31,-220,o),
(27,-220,qs),
(90,-220,o),
(160,-136,o),
(160,-60,qs),
(160,460,l),
(80,460,l),
(80,-50,ls),
(80,-98,o),
(58,-140,o),
(32,-140,qs),
(16,-140,o),
(-9,-126,o),
(-17,-114,q)
);
}
);
width = 250;
}
);
note = j;
unicode = 106;
},
{
glyphname = k;
kernRight = k;
layers = (
{
layerId = m01;
shapes = (
{
closed = 1;
nodes = (
(320,460,l),
(150,299,l),
(150,780,l),
(70,780,l),
(70,0,l),
(150,0,l),
(150,233,l),
(340,0,l),
(440,0,l),
(220,270,l),
(420,460,l)
);
}
);
width = 440;
},
{
layerId = "2FFFB641-FAF4-44D5-BCCD-45A3ED2836BE";
shapes = (
{
closed = 1;
nodes = (
(320,460,l),
(150,299,l),
(150,780,l),
(70,780,l),
(70,0,l),
(150,0,l),
(150,233,l),
(340,0,l),
(440,0,l),
(220,270,l),
(420,460,l)
);
}
);
width = 440;
},
{
layerId = "10EBB935-FE11-436B-A293-72D268A19F55";
shapes = (
{
closed = 1;
nodes = (
(320,460,l),
(150,299,l),
(150,780,l),
(70,780,l),
(70,0,l),
(150,0,l),
(150,233,l),
(340,0,l),
(440,0,l),
(220,270,l),
(420,460,l)
);
}
);
width = 440;
}
);
note = k;
unicode = 107;
},
{
glyphname = l;
layers = (
{
layerId = m01;
shapes = (
{
closed = 1;
nodes = (
(75,780,l),
(75,0,l),
(155,0,l),
(155,780,l)
);
}
);
width = 230;
},
{
layerId = "2FFFB641-FAF4-44D5-BCCD-45A3ED2836BE";
shapes = (
{
closed = 1;
nodes = (
(75,780,l),
(75,0,l),
(155,0,l),
(155,780,l)
);
}
);
width = 230;
},
{
layerId = "10EBB935-FE11-436B-A293-72D268A19F55";
shapes = (
{
closed = 1;
nodes = (
(75,780,l),
(75,0,l),
(155,0,l),
(155,780,l)
);
}
);
width = 230;
}
);
note = l;
unicode = 108;
},
{
glyphname = m;
kernLeft = m;
kernRight = h;
layers = (
{
layerId = m01;
shapes = (
{
closed = 1;
nodes = (
(705,290,ls),
(705,376,o),
(627,470,o),
(557,470,qs),
(463,470,o),
(415,384,q),
(399,425,o),
(330,470,o),
(282,470,qs),
(196,470,o),
(155,393,q),
(155,460,l),
(75,460,l),
(75,0,l),
(155,0,l),
(155,280,ls),
(155,334,o),
(212,395,o),
(262,395,qs),
(307,395,o),
(350,339,o),
(350,280,qs),
(350,0,l),
(430,0,l),
(430,280,ls),
(430,334,o),
(487,395,o),
(537,395,qs),
(582,395,o),
(625,339,o),
(625,280,qs),
(625,0,l),
(705,0,l)
);
}
);
width = 780;
},
{
layerId = "2FFFB641-FAF4-44D5-BCCD-45A3ED2836BE";
shapes = (
{
closed = 1;
nodes = (
(705,290,ls),
(705,376,o),
(627,470,o),
(557,470,qs),
(463,470,o),
(415,384,q),
(399,425,o),
(330,470,o),
(282,470,qs),
(196,470,o),
(155,393,q),
(155,460,l),
(75,460,l),
(75,0,l),
(155,0,l),
(155,280,ls),
(155,334,o),
(212,395,o),
(262,395,qs),
(307,395,o),
(350,339,o),
(350,280,qs),
(350,0,l),
(430,0,l),
(430,280,ls),
(430,334,o),
(487,395,o),
(537,395,qs),
(582,395,o),
(625,339,o),
(625,280,qs),
(625,0,l),
(705,0,l)
);
}
);
width = 780;
},
{
layerId = "10EBB935-FE11-436B-A293-72D268A19F55";
shapes = (
{
closed = 1;
nodes = (
(705,290,ls),
(705,376,o),
(627,470,o),
(557,470,qs),
(463,470,o),
(415,384,q),
(399,425,o),
(330,470,o),
(282,470,qs),
(196,470,o),
(155,393,q),
(155,460,l),
(75,460,l),
(75,0,l),
(155,0,l),
(155,280,ls),
(155,334,o),
(212,395,o),
(262,395,qs),
(307,395,o),
(350,339,o),
(350,280,qs),
(350,0,l),
(430,0,l),
(430,280,ls),
(430,334,o),
(487,395,o),
(537,395,qs),
(582,395,o),
(625,339,o),
(625,280,qs),
(625,0,l),
(705,0,l)
);
}
);
width = 780;
}
);
note = m;
unicode = 109;
},
{
glyphname = n;
kernLeft = m;
kernRight = h;
layers = (
{
layerId = m01;
shapes = (
{
closed = 1;
nodes = (
(370,0,l),
(450,0,l),
(450,290,ls),
(450,373,o),
(365,470,o),
(292,470,qs),
(200,470,o),
(155,388,q),
(155,460,l),
(75,460,l),
(75,0,l),
(155,0,l),
(155,280,ls),
(155,331,o),
(220,395,o),
(272,395,qs),
(320,395,o),
(370,337,o),
(370,280,qs)
);
}
);
width = 525;
},
{
layerId = "2FFFB641-FAF4-44D5-BCCD-45A3ED2836BE";
shapes = (
{
closed = 1;
nodes = (
(370,0,l),
(450,0,l),
(450,290,ls),
(450,373,o),
(365,470,o),
(292,470,qs),
(200,470,o),
(155,388,q),
(155,460,l),
(75,460,l),
(75,0,l),
(155,0,l),
(155,280,ls),
(155,331,o),
(220,395,o),
(272,395,qs),
(320,395,o),
(370,337,o),
(370,280,qs)
);
}
);
width = 525;
},
{
layerId = "10EBB935-FE11-436B-A293-72D268A19F55";
shapes = (
{
closed = 1;
nodes = (
(370,0,l),
(450,0,l),
(450,290,ls),
(450,373,o),
(365,470,o),
(292,470,qs),
(200,470,o),
(155,388,q),
(155,460,l),
(75,460,l),
(75,0,l),
(155,0,l),
(155,280,ls),
(155,331,o),
(220,395,o),
(272,395,qs),
(320,395,o),
(370,337,o),
(370,280,qs)
);
}
);
width = 525;
}
);
note = n;
unicode = 110;
},
{
glyphname = o;
kernLeft = c;
kernRight = b;
layers = (
{
layerId = m01;
shapes = (
{
closed = 1;
nodes = (
(35,162,o),
(97,52,o),
(206,-10,o),
(273,-10,qs),
(340,-10,o),
(449,52,o),
(511,162,o),
(511,230,qs),
(511,298,o),
(449,408,o),
(340,470,o),
(273,470,qs),
(206,470,o),
(97,408,o),
(35,298,o),
(35,230,qs)
);
},
{
closed = 1;
nodes = (
(116,277,o),
(157,353,o),
(228,395,o),
(273,395,qs),
(318,395,o),
(389,353,o),
(430,277,o),
(430,230,qs),
(430,183,o),
(389,107,o),
(318,65,o),
(273,65,qs),
(228,65,o),
(157,107,o),
(116,183,o),
(116,230,qs)
);
}
);
width = 546;
},
{
layerId = "2FFFB641-FAF4-44D5-BCCD-45A3ED2836BE";
shapes = (
{
closed = 1;
nodes = (
(35,162,o),
(97,52,o),
(206,-10,o),
(273,-10,qs),
(340,-10,o),
(449,52,o),
(511,162,o),
(511,230,qs),
(511,298,o),
(449,408,o),
(340,470,o),
(273,470,qs),
(206,470,o),
(97,408,o),
(35,298,o),
(35,230,qs)
);
},
{
closed = 1;
nodes = (
(116,277,o),
(157,353,o),
(228,395,o),
(273,395,qs),
(318,395,o),
(389,353,o),
(430,277,o),
(430,230,qs),
(430,183,o),
(389,107,o),
(318,65,o),
(273,65,qs),
(228,65,o),
(157,107,o),
(116,183,o),
(116,230,qs)
);
}
);
width = 546;
},
{
layerId = "10EBB935-FE11-436B-A293-72D268A19F55";
shapes = (
{
closed = 1;
nodes = (
(35,162,o),
(97,52,o),
(206,-10,o),
(273,-10,qs),
(340,-10,o),
(449,52,o),
(511,162,o),
(511,230,qs),
(511,298,o),
(449,408,o),
(340,470,o),
(273,470,qs),
(206,470,o),
(97,408,o),
(35,298,o),
(35,230,qs)
);
},
{
closed = 1;
nodes = (
(116,277,o),
(157,353,o),
(228,395,o),
(273,395,qs),
(318,395,o),
(389,353,o),
(430,277,o),
(430,230,qs),
(430,183,o),
(389,107,o),
(318,65,o),
(273,65,qs),
(228,65,o),
(157,107,o),
(116,183,o),
(116,230,qs)
);
}
);
width = 546;
}
);
note = o;
unicode = 111;
},
{
glyphname = p;
kernLeft = m;
kernRight = b;
layers = (
{
layerId = m01;
shapes = (
{
closed = 1;
nodes = (
(150,-220,l),
(150,79,l),
(176,36,o),
(256,-10,o),
(307,-10,qs),
(370,-10,o),
(474,49,o),
(535,158,o),
(535,230,qs),
(535,302,o),
(474,411,o),
(370,470,o),
(307,470,qs),
(256,470,o),
(176,424,o),
(150,381,q),
(150,460,l),
(70,460,l),
(70,-220,l)
);
},
{
closed = 1;
nodes = (
(454,179,o),
(412,104,o),
(340,65,o),
(297,65,qs),
(261,65,o),
(193,104,o),
(150,179,o),
(150,230,qs),
(150,281,o),
(193,356,o),
(261,395,o),
(297,395,qs),
(340,395,o),
(412,356,o),
(454,281,o),
(454,230,qs)
);
}
);
width = 570;
},
{
layerId = "2FFFB641-FAF4-44D5-BCCD-45A3ED2836BE";
shapes = (
{
closed = 1;
nodes = (
(150,-220,l),
(150,79,l),
(176,36,o),
(256,-10,o),
(307,-10,qs),
(370,-10,o),
(474,49,o),
(535,158,o),
(535,230,qs),
(535,302,o),
(474,411,o),
(370,470,o),
(307,470,qs),
(256,470,o),
(176,424,o),
(150,381,q),
(150,460,l),
(70,460,l),
(70,-220,l)
);
},
{
closed = 1;
nodes = (
(454,179,o),
(412,104,o),
(340,65,o),
(297,65,qs),
(261,65,o),
(193,104,o),
(150,179,o),
(150,230,qs),
(150,281,o),
(193,356,o),
(261,395,o),
(297,395,qs),
(340,395,o),
(412,356,o),
(454,281,o),
(454,230,qs)
);
}
);
width = 570;
},
{
layerId = "10EBB935-FE11-436B-A293-72D268A19F55";
shapes = (
{
closed = 1;
nodes = (
(150,-220,l),
(150,79,l),
(176,36,o),
(256,-10,o),
(307,-10,qs),
(370,-10,o),
(474,49,o),
(535,158,o),
(535,230,qs),
(535,302,o),
(474,411,o),
(370,470,o),
(307,470,qs),
(256,470,o),
(176,424,o),
(150,381,q),
(150,460,l),
(70,460,l),
(70,-220,l)
);
},
{
closed = 1;
nodes = (
(454,179,o),
(412,104,o),
(340,65,o),
(297,65,qs),
(261,65,o),
(193,104,o),
(150,179,o),
(150,230,qs),
(150,281,o),
(193,356,o),
(261,395,o),
(297,395,qs),
(340,395,o),
(412,356,o),
(454,281,o),
(454,230,qs)
);
}
);
width = 570;
}
);
note = p;
unicode = 112;
},
{
glyphname = q;
kernLeft = c;
kernRight = g;
layers = (
{
layerId = m01;
shapes = (
{
closed = 1;
nodes = (
(35,158,o),
(96,49,o),
(200,-10,o),
(263,-10,qs),
(314,-10,o),
(394,36,o),
(420,79,q),
(420,-220,l),
(500,-220,l),
(500,460,l),
(420,460,l),
(420,381,l),
(394,424,o),
(314,470,o),
(263,470,qs),
(200,470,o),
(96,411,o),
(35,302,o),
(35,230,qs)
);
},
{
closed = 1;
nodes = (
(116,281,o),
(158,356,o),
(230,395,o),
(273,395,qs),
(309,395,o),
(377,356,o),
(420,281,o),
(420,230,qs),
(420,179,o),
(377,104,o),
(309,65,o),
(273,65,qs),
(230,65,o),
(158,104,o),
(116,179,o),
(116,230,qs)
);
}
);
width = 570;
},
{
layerId = "2FFFB641-FAF4-44D5-BCCD-45A3ED2836BE";
shapes = (
{
closed = 1;
nodes = (
(35,158,o),
(96,49,o),
(200,-10,o),
(263,-10,qs),
(314,-10,o),
(394,36,o),
(420,79,q),
(420,-220,l),
(500,-220,l),
(500,460,l),
(420,460,l),
(420,381,l),
(394,424,o),
(314,470,o),
(263,470,qs),
(200,470,o),
(96,411,o),
(35,302,o),
(35,230,qs)
);
},
{
closed = 1;
nodes = (
(116,281,o),
(158,356,o),
(230,395,o),
(273,395,qs),
(309,395,o),
(377,356,o),
(420,281,o),
(420,230,qs),
(420,179,o),
(377,104,o),
(309,65,o),
(273,65,qs),
(230,65,o),
(158,104,o),
(116,179,o),
(116,230,qs)
);
}
);
width = 570;
},
{
layerId = "10EBB935-FE11-436B-A293-72D268A19F55";
shapes = (
{
closed = 1;
nodes = (
(35,158,o),
(96,49,o),
(200,-10,o),
(263,-10,qs),
(314,-10,o),
(394,36,o),
(420,79,q),
(420,-220,l),
(500,-220,l),
(500,460,l),
(420,460,l),
(420,381,l),
(394,424,o),
(314,470,o),
(263,470,qs),
(200,470,o),
(96,411,o),
(35,302,o),
(35,230,qs)
);
},
{
closed = 1;
nodes = (
(116,281,o),
(158,356,o),
(230,395,o),
(273,395,qs),
(309,395,o),
(377,356,o),
(420,281,o),
(420,230,qs),
(420,179,o),
(377,104,o),
(309,65,o),
(273,65,qs),
(230,65,o),
(158,104,o),
(116,179,o),
(116,230,qs)
);
}
);
width = 570;
}
);
note = q;
unicode = 113;
},
{
glyphname = r;
kernLeft = m;
kernRight = r;
layers = (
{
layerId = m01;
shapes = (
{
closed = 1;
nodes = (
(338,438,l),
(321,456,o),
(279,470,o),
(252,470,qs),
(226,470,o),
(175,436,o),
(155,407,q),
(155,460,l),
(75,460,l),
(75,0,l),
(155,0,l),
(155,280,ls),
(155,334,o),
(190,395,o),
(232,395,qs),
(251,395,o),
(276,385,o),
(294,372,q)
);
}
);
width = 343;
},
{
layerId = "2FFFB641-FAF4-44D5-BCCD-45A3ED2836BE";
shapes = (
{
closed = 1;
nodes = (
(338,438,l),
(321,456,o),
(279,470,o),
(252,470,qs),
(226,470,o),
(175,436,o),
(155,407,q),
(155,460,l),
(75,460,l),
(75,0,l),
(155,0,l),
(155,280,ls),
(155,334,o),
(190,395,o),
(232,395,qs),
(251,395,o),
(276,385,o),
(294,372,q)
);
}
);
width = 343;
},
{
layerId = "10EBB935-FE11-436B-A293-72D268A19F55";
shapes = (
{
closed = 1;
nodes = (
(338,438,l),
(321,456,o),
(279,470,o),
(252,470,qs),
(226,470,o),
(175,436,o),
(155,407,q),
(155,460,l),
(75,460,l),
(75,0,l),
(155,0,l),
(155,280,ls),
(155,334,o),
(190,395,o),
(232,395,qs),
(251,395,o),
(276,385,o),
(294,372,q)
);
}
);
width = 343;
}
);
note = r;
unicode = 114;
},
{
glyphname = s;
kernLeft = a;
kernRight = h;
layers = (
{
layerId = m01;
shapes = (
{
closed = 1;
nodes = (
(31,102,l),
(52,56,o),
(150,-10,o),
(215,-10,qs),
(285,-10,o),
(373,69,o),
(373,130,qs),
(373,169,o),
(336,221,o),
(277,256,o),
(228,276,qs),
(181,295,o),
(132,329,o),
(132,354,qs),
(132,376,o),
(167,399,o),
(193,399,qs),
(227,399,o),
(285,366,o),
(305,339,q),
(369,380,l),
(347,419,o),
(257,470,o),
(203,470,qs),
(142,470,o),
(54,407,o),
(54,349,qs),
(54,295,o),
(126,233,o),
(186,211,qs),
(237,192,o),
(292,153,o),
(292,121,qs),
(292,94,o),
(253,63,o),
(219,63,qs),
(145,63,o),
(94,141,q)
);
}
);
width = 403;
},
{
layerId = "2FFFB641-FAF4-44D5-BCCD-45A3ED2836BE";
shapes = (
{
closed = 1;
nodes = (
(31,102,l),
(52,56,o),
(150,-10,o),
(215,-10,qs),
(285,-10,o),
(373,69,o),
(373,130,qs),
(373,169,o),
(336,221,o),
(277,256,o),
(228,276,qs),
(181,295,o),
(132,329,o),
(132,354,qs),
(132,376,o),
(167,399,o),
(193,399,qs),
(227,399,o),
(285,366,o),
(305,339,q),
(369,380,l),
(347,419,o),
(257,470,o),
(203,470,qs),
(142,470,o),
(54,407,o),
(54,349,qs),
(54,295,o),
(126,233,o),
(186,211,qs),
(237,192,o),
(292,153,o),
(292,121,qs),
(292,94,o),
(253,63,o),
(219,63,qs),
(145,63,o),
(94,141,q)
);
}
);
width = 403;
},
{
layerId = "10EBB935-FE11-436B-A293-72D268A19F55";
shapes = (
{
closed = 1;
nodes = (
(31,102,l),
(52,56,o),
(150,-10,o),
(215,-10,qs),
(285,-10,o),
(373,69,o),
(373,130,qs),
(373,169,o),
(336,221,o),
(277,256,o),
(228,276,qs),
(181,295,o),
(132,329,o),
(132,354,qs),
(132,376,o),
(167,399,o),
(193,399,qs),
(227,399,o),
(285,366,o),
(305,339,q),
(369,380,l),
(347,419,o),
(257,470,o),
(203,470,qs),
(142,470,o),
(54,407,o),
(54,349,qs),
(54,295,o),
(126,233,o),
(186,211,qs),
(237,192,o),
(292,153,o),
(292,121,qs),
(292,94,o),
(253,63,o),
(219,63,qs),
(145,63,o),
(94,141,q)
);
}
);
width = 403;
}
);
note = s;
unicode = 115;
},
{
glyphname = t;
layers = (
{
layerId = m01;
shapes = (
{
closed = 1;
nodes = (
(5,460,l),
(5,385,l),
(80,385,l),
(80,0,l),
(160,0,l),
(160,385,l),
(235,385,l),
(235,460,l),
(160,460,l),
(160,620,l),
(80,620,l),
(80,460,l)
);
}
);
width = 240;
},
{
layerId = "2FFFB641-FAF4-44D5-BCCD-45A3ED2836BE";
shapes = (
{
closed = 1;
nodes = (
(5,460,l),
(5,385,l),
(80,385,l),
(80,0,l),
(160,0,l),
(160,385,l),
(235,385,l),
(235,460,l),
(160,460,l),
(160,620,l),
(80,620,l),
(80,460,l)
);
}
);
width = 240;
},
{
layerId = "10EBB935-FE11-436B-A293-72D268A19F55";
shapes = (
{
closed = 1;
nodes = (
(5,460,l),
(5,385,l),
(80,385,l),
(80,0,l),
(160,0,l),
(160,385,l),
(235,385,l),
(235,460,l),
(160,460,l),
(160,620,l),
(80,620,l),
(80,460,l)
);
}
);
width = 240;
}
);
note = t;
unicode = 116;
},
{
glyphname = u;
kernLeft = u;
kernRight = a;
layers = (
{
layerId = m01;
shapes = (
{
closed = 1;
nodes = (
(155,460,l),
(75,460,l),
(75,170,ls),
(75,88,o),
(161,-10,o),
(233,-10,qs),
(324,-10,o),
(370,72,q),
(370,0,l),
(450,0,l),
(450,460,l),
(370,460,l),
(370,180,ls),
(370,129,o),
(305,65,o),
(253,65,qs),
(205,65,o),
(155,124,o),
(155,180,qs)
);
}
);
width = 525;
},
{
layerId = "2FFFB641-FAF4-44D5-BCCD-45A3ED2836BE";
shapes = (
{
closed = 1;
nodes = (
(155,460,l),
(75,460,l),
(75,170,ls),
(75,88,o),
(161,-10,o),
(233,-10,qs),
(324,-10,o),
(370,72,q),
(370,0,l),
(450,0,l),
(450,460,l),
(370,460,l),
(370,180,ls),
(370,129,o),
(305,65,o),
(253,65,qs),
(205,65,o),
(155,124,o),
(155,180,qs)
);
}
);
width = 525;
},
{
layerId = "10EBB935-FE11-436B-A293-72D268A19F55";
shapes = (
{
closed = 1;
nodes = (
(155,460,l),
(75,460,l),
(75,170,ls),
(75,88,o),
(161,-10,o),
(233,-10,qs),
(324,-10,o),
(370,72,q),
(370,0,l),
(450,0,l),
(450,460,l),
(370,460,l),
(370,180,ls),
(370,129,o),
(305,65,o),
(253,65,qs),
(205,65,o),
(155,124,o),
(155,180,qs)
);
}
);
width = 525;
}
);
note = u;
unicode = 117;
},
{
glyphname = v;
kernLeft = v;
kernRight = r;
layers = (
{
layerId = m01;
shapes = (
{
closed = 1;
nodes = (
(0,460,l),
(220,-35,l),
(440,460,l),
(350,460,l),
(220,135,l),
(90,460,l)
);
}
);
width = 440;
},
{
layerId = "2FFFB641-FAF4-44D5-BCCD-45A3ED2836BE";
shapes = (
{
closed = 1;
nodes = (
(0,460,l),
(220,-35,l),
(440,460,l),
(350,460,l),
(220,135,l),
(90,460,l)
);
}
);
width = 440;
},
{
layerId = "10EBB935-FE11-436B-A293-72D268A19F55";
shapes = (
{
closed = 1;
nodes = (
(0,460,l),
(220,-35,l),
(440,460,l),
(350,460,l),
(220,135,l),
(90,460,l)
);
}
);
width = 440;
}
);
note = v;
unicode = 118;
},
{
glyphname = w;
kernLeft = v;
kernRight = r;
layers = (
{
layerId = m01;
shapes = (
{
closed = 1;
nodes = (
(5,460,l),
(205,-35,l),
(336,300,l),
(475,-35,l),
(675,460,l),
(585,460,l),
(469,159,l),
(335,495,l),
(210,161,l),
(95,460,l)
);
}
);
width = 680;
},
{
layerId = "2FFFB641-FAF4-44D5-BCCD-45A3ED2836BE";
shapes = (
{
closed = 1;
nodes = (
(5,460,l),
(205,-35,l),
(336,300,l),
(475,-35,l),
(675,460,l),
(585,460,l),
(469,159,l),
(335,495,l),
(210,161,l),
(95,460,l)
);
}
);
width = 680;
},
{
layerId = "10EBB935-FE11-436B-A293-72D268A19F55";
shapes = (
{
closed = 1;
nodes = (
(5,460,l),
(205,-35,l),
(336,300,l),
(475,-35,l),
(675,460,l),
(585,460,l),
(469,159,l),
(335,495,l),
(210,161,l),
(95,460,l)
);
}
);
width = 680;
}
);
note = w;
unicode = 119;
},
{
glyphname = x;
kernLeft = x;
kernRight = k;
layers = (
{
layerId = m01;
shapes = (
{
closed = 1;
nodes = (
(320,460,l),
(210,300,l),
(100,460,l),
(10,460,l),
(167,237,l),
(0,0,l),
(90,0,l),
(210,174,l),
(330,0,l),
(420,0,l),
(253,237,l),
(410,460,l)
);
}
);
width = 420;
},
{
layerId = "2FFFB641-FAF4-44D5-BCCD-45A3ED2836BE";
shapes = (
{
closed = 1;
nodes = (
(320,460,l),
(210,300,l),
(100,460,l),
(10,460,l),
(167,237,l),
(0,0,l),
(90,0,l),
(210,174,l),
(330,0,l),
(420,0,l),
(253,237,l),
(410,460,l)
);
}
);
width = 420;
},
{
layerId = "10EBB935-FE11-436B-A293-72D268A19F55";
shapes = (
{
closed = 1;
nodes = (
(320,460,l),
(210,300,l),
(100,460,l),
(10,460,l),
(167,237,l),
(0,0,l),
(90,0,l),
(210,174,l),
(330,0,l),
(420,0,l),
(253,237,l),
(410,460,l)
);
}
);
width = 420;
}
);
note = x;
unicode = 120;
},
{
glyphname = y;
kernLeft = v;
kernRight = r;
layers = (
{
layerId = m01;
shapes = (
{
closed = 1;
nodes = (
(440,460,l),
(350,460,l),
(224,143,l),
(95,460,l),
(0,460,l),
(176,65,l),
(50,-220,l),
(140,-220,l)
);
}
);
width = 440;
},
{
layerId = "2FFFB641-FAF4-44D5-BCCD-45A3ED2836BE";
shapes = (
{
closed = 1;
nodes = (
(440,460,l),
(350,460,l),
(224,143,l),
(95,460,l),
(0,460,l),
(176,65,l),
(50,-220,l),
(140,-220,l)
);
}
);
width = 440;
},
{
layerId = "10EBB935-FE11-436B-A293-72D268A19F55";
shapes = (
{
closed = 1;
nodes = (
(440,460,l),
(350,460,l),
(224,143,l),
(95,460,l),
(0,460,l),
(176,65,l),
(50,-220,l),
(140,-220,l)
);
}
);
width = 440;
}
);
note = y;
unicode = 121;
},
{
glyphname = z;
kernLeft = x;
kernRight = k;
layers = (
{
layerId = m01;
shapes = (
{
closed = 1;
nodes = (
(300,385,l),
(15,0,l),
(425,0,l),
(425,75,l),
(160,75,l),
(445,460,l),
(45,460,l),
(45,385,l)
);
}
);
width = 460;
},
{
layerId = "2FFFB641-FAF4-44D5-BCCD-45A3ED2836BE";
shapes = (
{
closed = 1;
nodes = (
(300,385,l),
(15,0,l),
(425,0,l),
(425,75,l),
(160,75,l),
(445,460,l),
(45,460,l),
(45,385,l)
);
}
);
width = 460;
},
{
layerId = "10EBB935-FE11-436B-A293-72D268A19F55";
shapes = (
{
closed = 1;
nodes = (
(300,385,l),
(15,0,l),
(425,0,l),
(425,75,l),
(160,75,l),
(445,460,l),
(45,460,l),
(45,385,l)
);
}
);
width = 460;
}
);
note = z;
unicode = 122;
},
{
glyphname = zero;
layers = (
{
layerId = m01;
shapes = (
{
closed = 1;
nodes = (
(40,246,o),
(106,82,o),
(224,-10,o),
(300,-10,qs),
(376,-10,o),
(494,82,o),
(560,246,o),
(560,350,qs),
(560,454,o),
(494,618,o),
(376,710,o),
(300,710,qs),
(224,710,o),
(106,618,o),
(40,454,o),
(40,350,qs)
);
},
{
closed = 1;
nodes = (
(125,431,o),
(168,559,o),
(247,630,o),
(300,630,qs),
(353,630,o),
(432,559,o),
(475,431,o),
(475,350,qs),
(475,269,o),
(432,141,o),
(353,70,o),
(300,70,qs),
(247,70,o),
(168,141,o),
(125,269,o),
(125,350,qs)
);
}
);
width = 600;
},
{
layerId = "2FFFB641-FAF4-44D5-BCCD-45A3ED2836BE";
shapes = (
{
closed = 1;
nodes = (
(40,246,o),
(106,82,o),
(224,-10,o),
(300,-10,qs),
(376,-10,o),
(494,82,o),
(560,246,o),
(560,350,qs),
(560,454,o),
(494,618,o),
(376,710,o),
(300,710,qs),
(224,710,o),
(106,618,o),
(40,454,o),
(40,350,qs)
);
},
{
closed = 1;
nodes = (
(125,431,o),
(168,559,o),
(247,630,o),
(300,630,qs),
(353,630,o),
(432,559,o),
(475,431,o),
(475,350,qs),
(475,269,o),
(432,141,o),
(353,70,o),
(300,70,qs),
(247,70,o),
(168,141,o),
(125,269,o),
(125,350,qs)
);
}
);
width = 600;
},
{
layerId = "10EBB935-FE11-436B-A293-72D268A19F55";
shapes = (
{
closed = 1;
nodes = (
(40,246,o),
(106,82,o),
(224,-10,o),
(300,-10,qs),
(376,-10,o),
(494,82,o),
(560,246,o),
(560,350,qs),
(560,454,o),
(494,618,o),
(376,710,o),
(300,710,qs),
(224,710,o),
(106,618,o),
(40,454,o),
(40,350,qs)
);
},
{
closed = 1;
nodes = (
(125,431,o),
(168,559,o),
(247,630,o),
(300,630,qs),
(353,630,o),
(432,559,o),
(475,431,o),
(475,350,qs),
(475,269,o),
(432,141,o),
(353,70,o),
(300,70,qs),
(247,70,o),
(168,141,o),
(125,269,o),
(125,350,qs)
);
}
);
width = 600;
}
);
note = zero;
unicode = 48;
},
{
glyphname = one;
layers = (
{
layerId = m01;
shapes = (
{
closed = 1;
nodes = (
(80,562,l),
(235,608,l),
(235,1,l),
(235,1,o),
(235,0,o),
(235,0,q),
(290,0,l),
(290,0,o),
(291,0,o),
(291,0,q),
(295,0,l),
(295,0,o),
(296,0,o),
(296,0,q),
(320,0,l),
(320,0,o),
(320,1,o),
(320,1,q),
(320,710,l),
(80,650,l)
);
}
);
width = 450;
},
{
layerId = "2FFFB641-FAF4-44D5-BCCD-45A3ED2836BE";
shapes = (
{
closed = 1;
nodes = (
(80,562,l),
(235,608,l),
(235,250,ls),
(235,189,o),
(222,63,o),
(210,0,q),
(266,-11,l),
(278,51,o),
(291,188,o),
(291,250,q),
(295,250,l),
(295,186,o),
(308,54,o),
(321,-6,q),
(345,0,l),
(332,60,o),
(320,185,o),
(320,250,qs),
(320,710,l),
(80,650,l)
);
}
);
width = 450;
},
{
layerId = "10EBB935-FE11-436B-A293-72D268A19F55";
shapes = (
{
closed = 1;
nodes = (
(80,562,l),
(235,608,l),
(235,500,ls),
(235,374,o),
(210,124,o),
(185,0,q),
(241,-12,l),
(266,111,o),
(291,372,o),
(291,500,q),
(295,500,l),
(295,377,o),
(322,123,o),
(347,-5,q),
(370,0,l),
(345,126,o),
(320,375,o),
(320,500,qs),
(320,710,l),
(80,650,l)
);
}
);
width = 450;
}
);
note = one;
unicode = 49;
},
{
glyphname = two;
layers = (
{
layerId = m01;
shapes = (
{
closed = 1;
nodes = (
(20,0,l),
(513,0,l),
(513,0,o),
(514,0,o),
(514,0,q),
(514,12,l),
(514,12,o),
(514,13,o),
(514,13,q),
(514,17,l),
(514,17,o),
(514,18,o),
(514,18,q),
(514,80,l),
(514,80,o),
(513,80,o),
(513,80,q),
(195,80,l),
(418,307,ls),
(461,350,o),
(511,457,o),
(511,509,qs),
(511,554,o),
(462,648,o),
(361,711,o),
(289,711,qs),
(182,711,o),
(60,574,o),
(60,460,q),
(145,460,l),
(145,540,o),
(222,631,o),
(289,631,qs),
(330,631,o),
(391,595,o),
(424,537,o),
(424,506,qs),
(424,466,o),
(387,392,o),
(351,353,qs)
);
}
);
width = 569;
},
{
layerId = "2FFFB641-FAF4-44D5-BCCD-45A3ED2836BE";
shapes = (
{
closed = 1;
nodes = (
(20,0,l),
(314,0,ls),
(363,0,o),
(462,-13,o),
(514,-25,q),
(517,-12,l),
(466,0,o),
(364,13,o),
(314,13,q),
(314,17,l),
(365,17,o),
(476,30,o),
(526,42,q),
(514,105,l),
(462,93,o),
(363,80,o),
(314,80,qs),
(195,80,l),
(418,307,ls),
(461,350,o),
(511,457,o),
(511,509,qs),
(511,554,o),
(462,648,o),
(361,711,o),
(289,711,qs),
(182,711,o),
(60,574,o),
(60,460,q),
(145,460,l),
(145,540,o),
(222,631,o),
(289,631,qs),
(330,631,o),
(391,595,o),
(424,537,o),
(424,506,qs),
(424,466,o),
(387,392,o),
(351,353,qs)
);
}
);
width = 569;
},
{
layerId = "10EBB935-FE11-436B-A293-72D268A19F55";
shapes = (
{
closed = 1;
nodes = (
(20,0,l),
(314,0,ls),
(364,0,o),
(463,-25,o),
(514,-50,q),
(520,-37,l),
(470,-12,o),
(365,13,o),
(314,13,q),
(314,17,l),
(364,17,o),
(484,48,o),
(535,73,q),
(514,130,l),
(463,105,o),
(364,80,o),
(314,80,qs),
(195,80,l),
(418,307,ls),
(461,350,o),
(511,457,o),
(511,509,qs),
(511,554,o),
(462,648,o),
(361,711,o),
(289,711,qs),
(182,711,o),
(60,574,o),
(60,460,q),
(145,460,l),
(145,540,o),
(222,631,o),
(289,631,qs),
(330,631,o),
(391,595,o),
(424,537,o),
(424,506,qs),
(424,466,o),
(387,392,o),
(351,353,qs)
);
}
);
width = 569;
}
);
note = two;
unicode = 50;
},
{
glyphname = three;
kernRight = B;
layers = (
{
layerId = m01;
shapes = (
{
closed = 1;
nodes = (
(345,-10,o),
(445,38,o),
(501,127,o),
(501,185,qs),
(501,256,o),
(427,346,o),
(362,365,q),
(418,388,o),
(481,472,o),
(481,524,qs),
(481,574,o),
(433,659,o),
(345,710,o),
(287,710,qs),
(230,710,o),
(140,663,o),
(90,580,o),
(90,526,q),
(171,526,l),
(171,571,o),
(239,633,o),
(288,633,qs),
(339,633,o),
(394,572,o),
(394,521,qs),
(394,469,o),
(318,400,o),
(253,400,q),
(253,325,l),
(324,325,o),
(414,257,o),
(414,195,qs),
(414,138,o),
(343,70,o),
(283,70,qs),
(223,70,o),
(146,135,o),
(146,185,q),
(60,185,l),
(60,131,o),
(116,42,o),
(217,-10,o),
(283,-10,qs)
);
}
);
width = 546;
},
{
layerId = "2FFFB641-FAF4-44D5-BCCD-45A3ED2836BE";
shapes = (
{
closed = 1;
nodes = (
(345,-10,o),
(445,38,o),
(501,127,o),
(501,185,qs),
(501,256,o),
(427,346,o),
(362,365,q),
(418,388,o),
(481,472,o),
(481,524,qs),
(481,574,o),
(433,659,o),
(345,710,o),
(287,710,qs),
(230,710,o),
(140,663,o),
(90,580,o),
(90,526,q),
(171,526,l),
(171,571,o),
(239,633,o),
(288,633,qs),
(339,633,o),
(394,572,o),
(394,521,qs),
(394,469,o),
(318,400,o),
(253,400,q),
(253,325,l),
(324,325,o),
(414,257,o),
(414,195,qs),
(414,138,o),
(343,70,o),
(283,70,qs),
(223,70,o),
(146,135,o),
(146,185,q),
(60,185,l),
(60,131,o),
(116,42,o),
(217,-10,o),
(283,-10,qs)
);
}
);
width = 546;
},
{
layerId = "10EBB935-FE11-436B-A293-72D268A19F55";
shapes = (
{
closed = 1;
nodes = (
(345,-10,o),
(445,38,o),
(501,127,o),
(501,185,qs),
(501,256,o),
(427,346,o),
(362,365,q),
(418,388,o),
(481,472,o),
(481,524,qs),
(481,574,o),
(433,659,o),
(345,710,o),
(287,710,qs),
(230,710,o),
(140,663,o),
(90,580,o),
(90,526,q),
(171,526,l),
(171,571,o),
(239,633,o),
(288,633,qs),
(339,633,o),
(394,572,o),
(394,521,qs),
(394,469,o),
(318,400,o),
(253,400,q),
(253,325,l),
(324,325,o),
(414,257,o),
(414,195,qs),
(414,138,o),
(343,70,o),
(283,70,qs),
(223,70,o),
(146,135,o),
(146,185,q),
(60,185,l),
(60,131,o),
(116,42,o),
(217,-10,o),
(283,-10,qs)
);
}
);
width = 546;
}
);
note = three;
unicode = 51;
},
{
glyphname = four;
layers = (
{
layerId = m01;
shapes = (
{
closed = 1;
nodes = (
(20,140,l),
(358,140,l),
(358,1,l),
(358,1,o),
(358,0,o),
(358,0,q),
(373,0,l),
(373,0,o),
(374,0,o),
(374,0,q),
(378,0,l),
(378,0,o),
(379,0,o),
(379,0,q),
(443,0,l),
(443,0,o),
(443,1,o),
(443,1,q),
(443,140,l),
(553,140,l),
(553,215,l),
(443,215,l),
(443,700,l),
(408,700,l)
);
},
{
closed = 1;
nodes = (
(160,215,l),
(358,511,l),
(358,215,l)
);
}
);
width = 583;
},
{
layerId = "2FFFB641-FAF4-44D5-BCCD-45A3ED2836BE";
shapes = (
{
closed = 1;
nodes = (
(20,140,l),
(358,140,l),
(358,70,ls),
(358,52,o),
(346,17,o),
(333,0,q),
(345,-9,l),
(358,8,o),
(374,53,o),
(374,70,q),
(378,70,l),
(378,52,o),
(398,-8,o),
(411,-25,q),
(468,0,l),
(455,17,o),
(443,52,o),
(443,70,qs),
(443,140,l),
(553,140,l),
(553,215,l),
(443,215,l),
(443,700,l),
(408,700,l)
);
},
{
closed = 1;
nodes = (
(160,215,l),
(358,511,l),
(358,215,l)
);
}
);
width = 583;
},
{
layerId = "10EBB935-FE11-436B-A293-72D268A19F55";
shapes = (
{
closed = 1;
nodes = (
(20,140,l),
(358,140,l),
(358,140,l),
(358,105,o),
(333,35,o),
(308,0,q),
(320,-8,l),
(346,27,o),
(374,105,o),
(374,140,q),
(378,140,l),
(378,106,o),
(417,7,o),
(443,-29,q),
(493,0,l),
(468,35,o),
(443,105,o),
(443,140,q),
(443,140,l),
(553,140,l),
(553,215,l),
(443,215,l),
(443,700,l),
(408,700,l)
);
},
{
closed = 1;
nodes = (
(160,215,l),
(358,511,l),
(358,215,l)
);
}
);
width = 583;
}
);
note = four;
unicode = 52;
},
{
glyphname = five;
layers = (
{
layerId = m01;
shapes = (
{
closed = 1;
nodes = (
(524,298,o),
(470,406,o),
(374,466,o),
(315,466,qs),
(261,466,o),
(211,440,q),
(258,625,l),
(522,625,l),
(522,700,l),
(192,700,l),
(100,327,l),
(152,364,o),
(228,390,o),
(279,390,qs),
(347,390,o),
(436,301,o),
(436,230,qs),
(436,157,o),
(353,70,o),
(279,70,qs),
(224,70,o),
(127,138,o),
(102,186,q),
(30,137,l),
(115,-10,o),
(279,-10,qs),
(348,-10,o),
(459,45,o),
(524,153,o),
(524,230,qs)
);
}
);
width = 564;
},
{
layerId = "2FFFB641-FAF4-44D5-BCCD-45A3ED2836BE";
shapes = (
{
closed = 1;
nodes = (
(524,298,o),
(470,406,o),
(374,466,o),
(315,466,qs),
(261,466,o),
(211,440,q),
(258,625,l),
(522,625,l),
(522,700,l),
(192,700,l),
(100,327,l),
(152,364,o),
(228,390,o),
(279,390,qs),
(347,390,o),
(436,301,o),
(436,230,qs),
(436,157,o),
(353,70,o),
(279,70,qs),
(224,70,o),
(127,138,o),
(102,186,q),
(30,137,l),
(115,-10,o),
(279,-10,qs),
(348,-10,o),
(459,45,o),
(524,153,o),
(524,230,qs)
);
}
);
width = 564;
},
{
layerId = "10EBB935-FE11-436B-A293-72D268A19F55";
shapes = (
{
closed = 1;
nodes = (
(524,298,o),
(470,406,o),
(374,466,o),
(315,466,qs),
(261,466,o),
(211,440,q),
(258,625,l),
(522,625,l),
(522,700,l),
(192,700,l),
(100,327,l),
(152,364,o),
(228,390,o),
(279,390,qs),
(347,390,o),
(436,301,o),
(436,230,qs),
(436,157,o),
(353,70,o),
(279,70,qs),
(224,70,o),
(127,138,o),
(102,186,q),
(30,137,l),
(115,-10,o),
(279,-10,qs),
(348,-10,o),
(459,45,o),
(524,153,o),
(524,230,qs)
);
}
);
width = 564;
}
);
note = five;
unicode = 53;
},
{
glyphname = six;
layers = (
{
layerId = m01;
shapes = (
{
closed = 1;
nodes = (
(437,700,l),
(330,700,l),
(94,375,ls),
(73,347,o),
(50,272,o),
(50,230,qs),
(50,159,o),
(112,50,o),
(221,-10,o),
(288,-10,qs),
(355,-10,o),
(464,50,o),
(526,159,o),
(526,230,qs),
(526,293,o),
(470,397,o),
(375,457,o),
(319,457,qs),
(269,457,o),
(240,440,q)
);
},
{
closed = 1;
nodes = (
(131,277,o),
(172,353,o),
(243,395,o),
(288,395,qs),
(333,395,o),
(404,353,o),
(445,277,o),
(445,230,qs),
(445,183,o),
(404,109,o),
(333,67,o),
(288,67,qs),
(243,67,o),
(172,109,o),
(131,183,o),
(131,230,qs)
);
}
);
width = 576;
},
{
layerId = "2FFFB641-FAF4-44D5-BCCD-45A3ED2836BE";
shapes = (
{
closed = 1;
nodes = (
(437,700,l),
(330,700,l),
(94,375,ls),
(73,347,o),
(50,272,o),
(50,230,qs),
(50,159,o),
(112,50,o),
(221,-10,o),
(288,-10,qs),
(355,-10,o),
(464,50,o),
(526,159,o),
(526,230,qs),
(526,293,o),
(470,397,o),
(375,457,o),
(319,457,qs),
(269,457,o),
(240,440,q)
);
},
{
closed = 1;
nodes = (
(131,277,o),
(172,353,o),
(243,395,o),
(288,395,qs),
(333,395,o),
(404,353,o),
(445,277,o),
(445,230,qs),
(445,183,o),
(404,109,o),
(333,67,o),
(288,67,qs),
(243,67,o),
(172,109,o),
(131,183,o),
(131,230,qs)
);
}
);
width = 576;
},
{
layerId = "10EBB935-FE11-436B-A293-72D268A19F55";
shapes = (
{
closed = 1;
nodes = (
(437,700,l),
(330,700,l),
(94,375,ls),
(73,347,o),
(50,272,o),
(50,230,qs),
(50,159,o),
(112,50,o),
(221,-10,o),
(288,-10,qs),
(355,-10,o),
(464,50,o),
(526,159,o),
(526,230,qs),
(526,293,o),
(470,397,o),
(375,457,o),
(319,457,qs),
(269,457,o),
(240,440,q)
);
},
{
closed = 1;
nodes = (
(131,277,o),
(172,353,o),
(243,395,o),
(288,395,qs),
(333,395,o),
(404,353,o),
(445,277,o),
(445,230,qs),
(445,183,o),
(404,109,o),
(333,67,o),
(288,67,qs),
(243,67,o),
(172,109,o),
(131,183,o),
(131,230,qs)
);
}
);
width = 576;
}
);
note = six;
unicode = 54;
},
{
glyphname = seven;
kernLeft = X;
kernRight = V;
layers = (
{
layerId = m01;
shapes = (
{
closed = 1;
nodes = (
(30,620,l),
(393,620,l),
(99,6,ls),
(98,3,o),
(96,0,q),
(151,0,l),
(151,0,o),
(152,0,o),
(152,0,q),
(156,0,l),
(156,0,o),
(157,0,o),
(157,0,q),
(185,0,l),
(187,3,o),
(188,6,qs),
(520,700,l),
(30,700,l)
);
}
);
width = 525;
},
{
layerId = "2FFFB641-FAF4-44D5-BCCD-45A3ED2836BE";
shapes = (
{
closed = 1;
nodes = (
(30,620,l),
(393,620,l),
(181,178,ls),
(136,84,o),
(71,0,q),
(109,-30,l),
(142,11,o),
(214,129,o),
(236,175,q),
(240,175,l),
(218,130,o),
(188,42,o),
(181,0,q),
(210,-5,l),
(226,87,o),
(268,174,qs),
(520,700,l),
(30,700,l)
);
}
);
width = 525;
},
{
layerId = "10EBB935-FE11-436B-A293-72D268A19F55";
shapes = (
{
closed = 1;
nodes = (
(30,620,l),
(393,620,l),
(264,351,ls),
(178,173,o),
(46,0,q),
(80,-30,l),
(150,61,o),
(280,265,o),
(322,350,q),
(326,350,l),
(284,264,o),
(225,90,o),
(206,0,q),
(235,-6,l),
(277,193,o),
(353,350,qs),
(520,700,l),
(30,700,l)
);
}
);
width = 525;
}
);
note = seven;
unicode = 55;
},
{
glyphname = eight;
kernRight = B;
layers = (
{
layerId = m01;
shapes = (
{
closed = 1;
nodes = (
(55,136,o),
(112,44,o),
(212,-10,o),
(273,-10,qs),
(334,-10,o),
(434,44,o),
(491,136,o),
(491,190,qs),
(491,256,o),
(423,351,o),
(367,373,q),
(414,394,o),
(466,475,o),
(466,531,qs),
(466,580,o),
(415,662,o),
(327,710,o),
(273,710,qs),
(219,710,o),
(131,662,o),
(80,580,o),
(80,531,qs),
(80,475,o),
(132,394,o),
(179,373,q),
(123,351,o),
(55,256,o),
(55,190,qs)
);
},
{
closed = 1;
nodes = (
(161,571,o),
(224,635,o),
(273,635,qs),
(322,635,o),
(385,571,o),
(385,521,qs),
(385,473,o),
(319,410,o),
(273,410,qs),
(227,410,o),
(161,473,o),
(161,521,qs)
);
},
{
closed = 1;
nodes = (
(136,237,o),
(175,299,o),
(238,335,o),
(273,335,qs),
(308,335,o),
(371,299,o),
(410,237,o),
(410,200,qs),
(410,159,o),
(372,97,o),
(309,65,o),
(273,65,qs),
(237,65,o),
(174,97,o),
(136,159,o),
(136,200,qs)
);
}
);
width = 546;
},
{
layerId = "2FFFB641-FAF4-44D5-BCCD-45A3ED2836BE";
shapes = (
{
closed = 1;
nodes = (
(55,136,o),
(112,44,o),
(212,-10,o),
(273,-10,qs),
(334,-10,o),
(434,44,o),
(491,136,o),
(491,190,qs),
(491,256,o),
(423,351,o),
(367,373,q),
(414,394,o),
(466,475,o),
(466,531,qs),
(466,580,o),
(415,662,o),
(327,710,o),
(273,710,qs),
(219,710,o),
(131,662,o),
(80,580,o),
(80,531,qs),
(80,475,o),
(132,394,o),
(179,373,q),
(123,351,o),
(55,256,o),
(55,190,qs)
);
},
{
closed = 1;
nodes = (
(161,571,o),
(224,635,o),
(273,635,qs),
(322,635,o),
(385,571,o),
(385,521,qs),
(385,473,o),
(319,410,o),
(273,410,qs),
(227,410,o),
(161,473,o),
(161,521,qs)
);
},
{
closed = 1;
nodes = (
(136,237,o),
(175,299,o),
(238,335,o),
(273,335,qs),
(308,335,o),
(371,299,o),
(410,237,o),
(410,200,qs),
(410,159,o),
(372,97,o),
(309,65,o),
(273,65,qs),
(237,65,o),
(174,97,o),
(136,159,o),
(136,200,qs)
);
}
);
width = 546;
},
{
layerId = "10EBB935-FE11-436B-A293-72D268A19F55";
shapes = (
{
closed = 1;
nodes = (
(55,136,o),
(112,44,o),
(212,-10,o),
(273,-10,qs),
(334,-10,o),
(434,44,o),
(491,136,o),
(491,190,qs),
(491,256,o),
(423,351,o),
(367,373,q),
(414,394,o),
(466,475,o),
(466,531,qs),
(466,580,o),
(415,662,o),
(327,710,o),
(273,710,qs),
(219,710,o),
(131,662,o),
(80,580,o),
(80,531,qs),
(80,475,o),
(132,394,o),
(179,373,q),
(123,351,o),
(55,256,o),
(55,190,qs)
);
},
{
closed = 1;
nodes = (
(161,571,o),
(224,635,o),
(273,635,qs),
(322,635,o),
(385,571,o),
(385,521,qs),
(385,473,o),
(319,410,o),
(273,410,qs),
(227,410,o),
(161,473,o),
(161,521,qs)
);
},
{
closed = 1;
nodes = (
(136,237,o),
(175,299,o),
(238,335,o),
(273,335,qs),
(308,335,o),
(371,299,o),
(410,237,o),
(410,200,qs),
(410,159,o),
(372,97,o),
(309,65,o),
(273,65,qs),
(237,65,o),
(174,97,o),
(136,159,o),
(136,200,qs)
);
}
);
width = 546;
}
);
note = eight;
unicode = 56;
},
{
glyphname = nine;
kernRight = F;
layers = (
{
layerId = m01;
shapes = (
{
closed = 1;
nodes = (
(139,0,l),
(246,0,l),
(482,325,ls),
(503,353,o),
(526,428,o),
(526,470,qs),
(526,541,o),
(464,650,o),
(355,710,o),
(288,710,qs),
(221,710,o),
(112,650,o),
(50,541,o),
(50,470,qs),
(50,407,o),
(106,303,o),
(201,243,o),
(257,243,qs),
(307,243,o),
(336,260,q)
);
},
{
closed = 1;
nodes = (
(445,423,o),
(404,347,o),
(333,305,o),
(288,305,qs),
(243,305,o),
(172,347,o),
(131,423,o),
(131,470,qs),
(131,517,o),
(172,591,o),
(243,633,o),
(288,633,qs),
(333,633,o),
(404,591,o),
(445,517,o),
(445,470,qs)
);
}
);
width = 576;
},
{
layerId = "2FFFB641-FAF4-44D5-BCCD-45A3ED2836BE";
shapes = (
{
closed = 1;
nodes = (
(139,0,l),
(246,0,l),
(482,325,ls),
(503,353,o),
(526,428,o),
(526,470,qs),
(526,541,o),
(464,650,o),
(355,710,o),
(288,710,qs),
(221,710,o),
(112,650,o),
(50,541,o),
(50,470,qs),
(50,407,o),
(106,303,o),
(201,243,o),
(257,243,qs),
(307,243,o),
(336,260,q)
);
},
{
closed = 1;
nodes = (
(445,423,o),
(404,347,o),
(333,305,o),
(288,305,qs),
(243,305,o),
(172,347,o),
(131,423,o),
(131,470,qs),
(131,517,o),
(172,591,o),
(243,633,o),
(288,633,qs),
(333,633,o),
(404,591,o),
(445,517,o),
(445,470,qs)
);
}
);
width = 576;
},
{
layerId = "10EBB935-FE11-436B-A293-72D268A19F55";
shapes = (
{
closed = 1;
nodes = (
(139,0,l),
(246,0,l),
(482,325,ls),
(503,353,o),
(526,428,o),
(526,470,qs),
(526,541,o),
(464,650,o),
(355,710,o),
(288,710,qs),
(221,710,o),
(112,650,o),
(50,541,o),
(50,470,qs),
(50,407,o),
(106,303,o),
(201,243,o),
(257,243,qs),
(307,243,o),
(336,260,q)
);
},
{
closed = 1;
nodes = (
(445,423,o),
(404,347,o),
(333,305,o),
(288,305,qs),
(243,305,o),
(172,347,o),
(131,423,o),
(131,470,qs),
(131,517,o),
(172,591,o),
(243,633,o),
(288,633,qs),
(333,633,o),
(404,591,o),
(445,517,o),
(445,470,qs)
);
}
);
width = 576;
}
);
note = nine;
unicode = 57;
},
{
glyphname = period;
kernLeft = A;
layers = (
{
layerId = m01;
shapes = (
{
closed = 1;
nodes = (
(95,18,o),
(128,-15,o),
(150,-15,qs),
(173,-15,o),
(205,18,o),
(205,40,qs),
(205,63,o),
(173,95,o),
(150,95,qs),
(128,95,o),
(95,63,o),
(95,40,qs)
);
}
);
width = 300;
},
{
layerId = "2FFFB641-FAF4-44D5-BCCD-45A3ED2836BE";
shapes = (
{
closed = 1;
nodes = (
(95,18,o),
(128,-15,o),
(150,-15,qs),
(173,-15,o),
(205,18,o),
(205,40,qs),
(205,63,o),
(173,95,o),
(150,95,qs),
(128,95,o),
(95,63,o),
(95,40,qs)
);
}
);
width = 300;
},
{
layerId = "10EBB935-FE11-436B-A293-72D268A19F55";
shapes = (
{
closed = 1;
nodes = (
(95,18,o),
(128,-15,o),
(150,-15,qs),
(173,-15,o),
(205,18,o),
(205,40,qs),
(205,63,o),
(173,95,o),
(150,95,qs),
(128,95,o),
(95,63,o),
(95,40,qs)
);
}
);
width = 300;
}
);
note = period;
unicode = 46;
},
{
glyphname = comma;
kernLeft = A;
layers = (
{
layerId = m01;
shapes = (
{
closed = 1;
nodes = (
(148,110,l),
(60,-149,l),
(118,-170,l),
(228,80,l)
);
}
);
width = 308;
},
{
layerId = "2FFFB641-FAF4-44D5-BCCD-45A3ED2836BE";
shapes = (
{
closed = 1;
nodes = (
(148,110,l),
(60,-149,l),
(118,-170,l),
(228,80,l)
);
}
);
width = 308;
},
{
layerId = "10EBB935-FE11-436B-A293-72D268A19F55";
shapes = (
{
closed = 1;
nodes = (
(148,110,l),
(60,-149,l),
(118,-170,l),
(228,80,l)
);
}
);
width = 308;
}
);
note = comma;
unicode = 44;
},
{
glyphname = colon;
layers = (
{
layerId = m01;
shapes = (
{
closed = 1;
nodes = (
(95,398,o),
(128,365,o),
(150,365,qs),
(173,365,o),
(205,398,o),
(205,420,qs),
(205,443,o),
(173,475,o),
(150,475,qs),
(128,475,o),
(95,443,o),
(95,420,qs)
);
},
{
closed = 1;
nodes = (
(95,18,o),
(128,-15,o),
(150,-15,qs),
(173,-15,o),
(205,18,o),
(205,40,qs),
(205,63,o),
(173,95,o),
(150,95,qs),
(128,95,o),
(95,63,o),
(95,40,qs)
);
}
);
width = 300;
},
{
layerId = "2FFFB641-FAF4-44D5-BCCD-45A3ED2836BE";
shapes = (
{
closed = 1;
nodes = (
(95,398,o),
(128,365,o),
(150,365,qs),
(173,365,o),
(205,398,o),
(205,420,qs),
(205,443,o),
(173,475,o),
(150,475,qs),
(128,475,o),
(95,443,o),
(95,420,qs)
);
},
{
closed = 1;
nodes = (
(95,18,o),
(128,-15,o),
(150,-15,qs),
(173,-15,o),
(205,18,o),
(205,40,qs),
(205,63,o),
(173,95,o),
(150,95,qs),
(128,95,o),
(95,63,o),
(95,40,qs)
);
}
);
width = 300;
},
{
layerId = "10EBB935-FE11-436B-A293-72D268A19F55";
shapes = (
{
closed = 1;
nodes = (
(95,398,o),
(128,365,o),
(150,365,qs),
(173,365,o),
(205,398,o),
(205,420,qs),
(205,443,o),
(173,475,o),
(150,475,qs),
(128,475,o),
(95,443,o),
(95,420,qs)
);
},
{
closed = 1;
nodes = (
(95,18,o),
(128,-15,o),
(150,-15,qs),
(173,-15,o),
(205,18,o),
(205,40,qs),
(205,63,o),
(173,95,o),
(150,95,qs),
(128,95,o),
(95,63,o),
(95,40,qs)
);
}
);
width = 300;
}
);
note = colon;
unicode = 58;
},
{
glyphname = semicolon;
layers = (
{
layerId = m01;
shapes = (
{
closed = 1;
nodes = (
(125,398,o),
(158,365,o),
(180,365,qs),
(203,365,o),
(235,398,o),
(235,420,qs),
(235,443,o),
(203,475,o),
(180,475,qs),
(158,475,o),
(125,443,o),
(125,420,qs)
);
},
{
closed = 1;
nodes = (
(148,110,l),
(60,-149,l),
(118,-170,l),
(228,80,l)
);
}
);
width = 330;
},
{
layerId = "2FFFB641-FAF4-44D5-BCCD-45A3ED2836BE";
shapes = (
{
closed = 1;
nodes = (
(125,398,o),
(158,365,o),
(180,365,qs),
(203,365,o),
(235,398,o),
(235,420,qs),
(235,443,o),
(203,475,o),
(180,475,qs),
(158,475,o),
(125,443,o),
(125,420,qs)
);
},
{
closed = 1;
nodes = (
(148,110,l),
(60,-149,l),
(118,-170,l),
(228,80,l)
);
}
);
width = 330;
},
{
layerId = "10EBB935-FE11-436B-A293-72D268A19F55";
shapes = (
{
closed = 1;
nodes = (
(125,398,o),
(158,365,o),
(180,365,qs),
(203,365,o),
(235,398,o),
(235,420,qs),
(235,443,o),
(203,475,o),
(180,475,qs),
(158,475,o),
(125,443,o),
(125,420,qs)
);
},
{
closed = 1;
nodes = (
(148,110,l),
(60,-149,l),
(118,-170,l),
(228,80,l)
);
}
);
width = 330;
}
);
note = semicolon;
unicode = 59;
},
{
glyphname = ellipsis;
layers = (
{
layerId = m01;
shapes = (
{
closed = 1;
nodes = (
(95,18,o),
(128,-15,o),
(150,-15,qs),
(173,-15,o),
(205,18,o),
(205,40,qs),
(205,63,o),
(173,95,o),
(150,95,qs),
(128,95,o),
(95,63,o),
(95,40,qs)
);
},
{
closed = 1;
nodes = (
(395,18,o),
(428,-15,o),
(450,-15,qs),
(473,-15,o),
(505,18,o),
(505,40,qs),
(505,63,o),
(473,95,o),
(450,95,qs),
(428,95,o),
(395,63,o),
(395,40,qs)
);
},
{
closed = 1;
nodes = (
(695,18,o),
(728,-15,o),
(750,-15,qs),
(773,-15,o),
(805,18,o),
(805,40,qs),
(805,63,o),
(773,95,o),
(750,95,qs),
(728,95,o),
(695,63,o),
(695,40,qs)
);
}
);
width = 900;
},
{
layerId = "2FFFB641-FAF4-44D5-BCCD-45A3ED2836BE";
shapes = (
{
closed = 1;
nodes = (
(95,18,o),
(128,-15,o),
(150,-15,qs),
(173,-15,o),
(205,18,o),
(205,40,qs),
(205,63,o),
(173,95,o),
(150,95,qs),
(128,95,o),
(95,63,o),
(95,40,qs)
);
},
{
closed = 1;
nodes = (
(395,18,o),
(428,-15,o),
(450,-15,qs),
(473,-15,o),
(505,18,o),
(505,40,qs),
(505,63,o),
(473,95,o),
(450,95,qs),
(428,95,o),
(395,63,o),
(395,40,qs)
);
},
{
closed = 1;
nodes = (
(695,18,o),
(728,-15,o),
(750,-15,qs),
(773,-15,o),
(805,18,o),
(805,40,qs),
(805,63,o),
(773,95,o),
(750,95,qs),
(728,95,o),
(695,63,o),
(695,40,qs)
);
}
);
width = 900;
},
{
layerId = "10EBB935-FE11-436B-A293-72D268A19F55";
shapes = (
{
closed = 1;
nodes = (
(95,18,o),
(128,-15,o),
(150,-15,qs),
(173,-15,o),
(205,18,o),
(205,40,qs),
(205,63,o),
(173,95,o),
(150,95,qs),
(128,95,o),
(95,63,o),
(95,40,qs)
);
},
{
closed = 1;
nodes = (
(395,18,o),
(428,-15,o),
(450,-15,qs),
(473,-15,o),
(505,18,o),
(505,40,qs),
(505,63,o),
(473,95,o),
(450,95,qs),
(428,95,o),
(395,63,o),
(395,40,qs)
);
},
{
closed = 1;
nodes = (
(695,18,o),
(728,-15,o),
(750,-15,qs),
(773,-15,o),
(805,18,o),
(805,40,qs),
(805,63,o),
(773,95,o),
(750,95,qs),
(728,95,o),
(695,63,o),
(695,40,qs)
);
}
);
width = 900;
}
);
note = ellipsis;
unicode = 8230;
},
{
glyphname = exclam;
layers = (
{
layerId = m01;
shapes = (
{
closed = 1;
nodes = (
(100,700,l),
(120,200,l),
(180,200,l),
(200,700,l)
);
},
{
closed = 1;
nodes = (
(95,18,o),
(128,-15,o),
(150,-15,qs),
(173,-15,o),
(205,18,o),
(205,40,qs),
(205,63,o),
(173,95,o),
(150,95,qs),
(128,95,o),
(95,63,o),
(95,40,qs)
);
}
);
width = 300;
},
{
layerId = "2FFFB641-FAF4-44D5-BCCD-45A3ED2836BE";
shapes = (
{
closed = 1;
nodes = (
(100,700,l),
(120,200,l),
(180,200,l),
(200,700,l)
);
},
{
closed = 1;
nodes = (
(95,18,o),
(128,-15,o),
(150,-15,qs),
(173,-15,o),
(205,18,o),
(205,40,qs),
(205,63,o),
(173,95,o),
(150,95,qs),
(128,95,o),
(95,63,o),
(95,40,qs)
);
}
);
width = 300;
},
{
layerId = "10EBB935-FE11-436B-A293-72D268A19F55";
shapes = (
{
closed = 1;
nodes = (
(100,700,l),
(120,200,l),
(180,200,l),
(200,700,l)
);
},
{
closed = 1;
nodes = (
(95,18,o),
(128,-15,o),
(150,-15,qs),
(173,-15,o),
(205,18,o),
(205,40,qs),
(205,63,o),
(173,95,o),
(150,95,qs),
(128,95,o),
(95,63,o),
(95,40,qs)
);
}
);
width = 300;
}
);
note = exclam;
unicode = 33;
},
{
glyphname = question;
kernRight = F;
layers = (
{
layerId = m01;
shapes = (
{
closed = 1;
nodes = (
(416,461,o),
(369,390,o),
(281,345,o),
(224,345,qs),
(198,345,l),
(218,170,l),
(278,170,l),
(285,290,l),
(340,293,o),
(438,350,o),
(497,444,o),
(497,500,qs),
(497,559,o),
(440,655,o),
(341,710,o),
(279,710,qs),
(196,710,o),
(98,652,o),
(60,593,q),
(125,552,l),
(176,635,o),
(269,635,qs),
(337,635,o),
(416,564,o),
(416,500,qs)
);
},
{
closed = 1;
nodes = (
(195,18,o),
(228,-15,o),
(250,-15,qs),
(273,-15,o),
(305,18,o),
(305,40,qs),
(305,63,o),
(273,95,o),
(250,95,qs),
(228,95,o),
(195,63,o),
(195,40,qs)
);
}
);
width = 557;
},
{
layerId = "2FFFB641-FAF4-44D5-BCCD-45A3ED2836BE";
shapes = (
{
closed = 1;
nodes = (
(416,461,o),
(369,390,o),
(281,345,o),
(224,345,qs),
(198,345,l),
(218,170,l),
(278,170,l),
(285,290,l),
(340,293,o),
(438,350,o),
(497,444,o),
(497,500,qs),
(497,559,o),
(440,655,o),
(341,710,o),
(279,710,qs),
(196,710,o),
(98,652,o),
(60,593,q),
(125,552,l),
(176,635,o),
(269,635,qs),
(337,635,o),
(416,564,o),
(416,500,qs)
);
},
{
closed = 1;
nodes = (
(195,18,o),
(228,-15,o),
(250,-15,qs),
(273,-15,o),
(305,18,o),
(305,40,qs),
(305,63,o),
(273,95,o),
(250,95,qs),
(228,95,o),
(195,63,o),
(195,40,qs)
);
}
);
width = 557;
},
{
layerId = "10EBB935-FE11-436B-A293-72D268A19F55";
shapes = (
{
closed = 1;
nodes = (
(416,461,o),
(369,390,o),
(281,345,o),
(224,345,qs),
(198,345,l),
(218,170,l),
(278,170,l),
(285,290,l),
(340,293,o),
(438,350,o),
(497,444,o),
(497,500,qs),
(497,559,o),
(440,655,o),
(341,710,o),
(279,710,qs),
(196,710,o),
(98,652,o),
(60,593,q),
(125,552,l),
(176,635,o),
(269,635,qs),
(337,635,o),
(416,564,o),
(416,500,qs)
);
},
{
closed = 1;
nodes = (
(195,18,o),
(228,-15,o),
(250,-15,qs),
(273,-15,o),
(305,18,o),
(305,40,qs),
(305,63,o),
(273,95,o),
(250,95,qs),
(228,95,o),
(195,63,o),
(195,40,qs)
);
}
);
width = 557;
}
);
note = question;
unicode = 63;
},
{
glyphname = bullet;
layers = (
{
layerId = m01;
shapes = (
{
closed = 1;
nodes = (
(95,393,o),
(128,360,o),
(150,360,qs),
(173,360,o),
(205,393,o),
(205,415,qs),
(205,438,o),
(173,470,o),
(150,470,qs),
(128,470,o),
(95,438,o),
(95,415,qs)
);
}
);
width = 300;
},
{
layerId = "2FFFB641-FAF4-44D5-BCCD-45A3ED2836BE";
shapes = (
{
closed = 1;
nodes = (
(95,393,o),
(128,360,o),
(150,360,qs),
(173,360,o),
(205,393,o),
(205,415,qs),
(205,438,o),
(173,470,o),
(150,470,qs),
(128,470,o),
(95,438,o),
(95,415,qs)
);
}
);
width = 300;
},
{
layerId = "10EBB935-FE11-436B-A293-72D268A19F55";
shapes = (
{
closed = 1;
nodes = (
(95,393,o),
(128,360,o),
(150,360,qs),
(173,360,o),
(205,393,o),
(205,415,qs),
(205,438,o),
(173,470,o),
(150,470,qs),
(128,470,o),
(95,438,o),
(95,415,qs)
);
}
);
width = 300;
}
);
note = bullet;
unicode = 8226;
},
{
glyphname = asterisk;
kernLeft = asterisk;
kernRight = asterisk;
layers = (
{
layerId = m01;
shapes = (
{
closed = 1;
nodes = (
(210,327,l),
(296,459,l),
(382,327,l),
(439,368,l),
(340,491,l),
(492,532,l),
(471,599,l),
(323,542,l),
(331,700,l),
(261,700,l),
(269,542,l),
(121,599,l),
(100,532,l),
(252,491,l),
(153,368,l)
);
}
);
width = 592;
},
{
layerId = "2FFFB641-FAF4-44D5-BCCD-45A3ED2836BE";
shapes = (
{
closed = 1;
nodes = (
(210,327,l),
(296,459,l),
(382,327,l),
(439,368,l),
(340,491,l),
(492,532,l),
(471,599,l),
(323,542,l),
(331,700,l),
(261,700,l),
(269,542,l),
(121,599,l),
(100,532,l),
(252,491,l),
(153,368,l)
);
}
);
width = 592;
},
{
layerId = "10EBB935-FE11-436B-A293-72D268A19F55";
shapes = (
{
closed = 1;
nodes = (
(210,327,l),
(296,459,l),
(382,327,l),
(439,368,l),
(340,491,l),
(492,532,l),
(471,599,l),
(323,542,l),
(331,700,l),
(261,700,l),
(269,542,l),
(121,599,l),
(100,532,l),
(252,491,l),
(153,368,l)
);
}
);
width = 592;
}
);
note = asterisk;
unicode = 42;
},
{
glyphname = numbersign;
layers = (
{
layerId = m01;
shapes = (
{
closed = 1;
nodes = (
(35,200,l),
(124,200,l),
(75,0,l),
(150,0,l),
(199,200,l),
(333,200,l),
(285,0,l),
(360,0,l),
(409,200,l),
(530,200,l),
(530,265,l),
(424,265,l),
(467,440,l),
(570,440,l),
(570,505,l),
(483,505,l),
(530,700,l),
(455,700,l),
(408,505,l),
(273,505,l),
(320,700,l),
(245,700,l),
(198,505,l),
(75,505,l),
(75,440,l),
(182,440,l),
(139,265,l),
(35,265,l)
);
},
{
closed = 1;
nodes = (
(214,265,l),
(257,440,l),
(392,440,l),
(350,265,l)
);
}
);
width = 605;
},
{
layerId = "2FFFB641-FAF4-44D5-BCCD-45A3ED2836BE";
shapes = (
{
closed = 1;
nodes = (
(35,200,l),
(124,200,l),
(75,0,l),
(150,0,l),
(199,200,l),
(333,200,l),
(285,0,l),
(360,0,l),
(409,200,l),
(530,200,l),
(530,265,l),
(424,265,l),
(467,440,l),
(570,440,l),
(570,505,l),
(483,505,l),
(530,700,l),
(455,700,l),
(408,505,l),
(273,505,l),
(320,700,l),
(245,700,l),
(198,505,l),
(75,505,l),
(75,440,l),
(182,440,l),
(139,265,l),
(35,265,l)
);
},
{
closed = 1;
nodes = (
(214,265,l),
(257,440,l),
(392,440,l),
(350,265,l)
);
}
);
width = 605;
},
{
layerId = "10EBB935-FE11-436B-A293-72D268A19F55";
shapes = (
{
closed = 1;
nodes = (
(35,200,l),
(124,200,l),
(75,0,l),
(150,0,l),
(199,200,l),
(333,200,l),
(285,0,l),
(360,0,l),
(409,200,l),
(530,200,l),
(530,265,l),
(424,265,l),
(467,440,l),
(570,440,l),
(570,505,l),
(483,505,l),
(530,700,l),
(455,700,l),
(408,505,l),
(273,505,l),
(320,700,l),
(245,700,l),
(198,505,l),
(75,505,l),
(75,440,l),
(182,440,l),
(139,265,l),
(35,265,l)
);
},
{
closed = 1;
nodes = (
(214,265,l),
(257,440,l),
(392,440,l),
(350,265,l)
);
}
);
width = 605;
}
);
note = numbersign;
unicode = 35;
},
{
glyphname = slash;
kernLeft = A;
kernRight = V;
layers = (
{
layerId = m01;
shapes = (
{
closed = 1;
nodes = (
(15,0,l),
(100,0,l),
(500,700,l),
(415,700,l)
);
}
);
width = 515;
},
{
layerId = "2FFFB641-FAF4-44D5-BCCD-45A3ED2836BE";
shapes = (
{
closed = 1;
nodes = (
(15,0,l),
(100,0,l),
(500,700,l),
(415,700,l)
);
}
);
width = 515;
},
{
layerId = "10EBB935-FE11-436B-A293-72D268A19F55";
shapes = (
{
closed = 1;
nodes = (
(15,0,l),
(100,0,l),
(500,700,l),
(415,700,l)
);
}
);
width = 515;
}
);
note = slash;
unicode = 47;
},
{
glyphname = backslash;
kernLeft = V;
kernRight = A;
layers = (
{
layerId = m01;
shapes = (
{
closed = 1;
nodes = (
(15,700,l),
(415,0,l),
(500,0,l),
(100,700,l)
);
}
);
width = 515;
},
{
layerId = "2FFFB641-FAF4-44D5-BCCD-45A3ED2836BE";
shapes = (
{
closed = 1;
nodes = (
(15,700,l),
(415,0,l),
(500,0,l),
(100,700,l)
);
}
);
width = 515;
},
{
layerId = "10EBB935-FE11-436B-A293-72D268A19F55";
shapes = (
{
closed = 1;
nodes = (
(15,700,l),
(415,0,l),
(500,0,l),
(100,700,l)
);
}
);
width = 515;
}
);
note = backslash;
unicode = 92;
},
{
glyphname = hyphen;
layers = (
{
layerId = m01;
shapes = (
{
closed = 1;
nodes = (
(5,200,l),
(205,200,l),
(205,275,l),
(5,275,l)
);
}
);
width = 210;
},
{
layerId = "2FFFB641-FAF4-44D5-BCCD-45A3ED2836BE";
shapes = (
{
closed = 1;
nodes = (
(5,200,l),
(205,200,l),
(205,275,l),
(5,275,l)
);
}
);
width = 210;
},
{
layerId = "10EBB935-FE11-436B-A293-72D268A19F55";
shapes = (
{
closed = 1;
nodes = (
(5,200,l),
(205,200,l),
(205,275,l),
(5,275,l)
);
}
);
width = 210;
}
);
note = hyphen;
unicode = 45;
},
{
glyphname = endash;
layers = (
{
layerId = m01;
shapes = (
{
closed = 1;
nodes = (
(70,200,l),
(670,200,l),
(670,275,l),
(70,275,l)
);
}
);
width = 740;
},
{
layerId = "2FFFB641-FAF4-44D5-BCCD-45A3ED2836BE";
shapes = (
{
closed = 1;
nodes = (
(70,200,l),
(670,200,l),
(670,275,l),
(70,275,l)
);
}
);
width = 740;
},
{
layerId = "10EBB935-FE11-436B-A293-72D268A19F55";
shapes = (
{
closed = 1;
nodes = (
(70,200,l),
(670,200,l),
(670,275,l),
(70,275,l)
);
}
);
width = 740;
}
);
note = endash;
unicode = 8211;
},
{
glyphname = emdash;
layers = (
{
layerId = m01;
shapes = (
{
closed = 1;
nodes = (
(70,200,l),
(820,200,l),
(820,275,l),
(70,275,l)
);
}
);
width = 890;
},
{
layerId = "2FFFB641-FAF4-44D5-BCCD-45A3ED2836BE";
shapes = (
{
closed = 1;
nodes = (
(70,200,l),
(820,200,l),
(820,275,l),
(70,275,l)
);
}
);
width = 890;
},
{
layerId = "10EBB935-FE11-436B-A293-72D268A19F55";
shapes = (
{
closed = 1;
nodes = (
(70,200,l),
(820,200,l),
(820,275,l),
(70,275,l)
);
}
);
width = 890;
}
);
note = emdash;
unicode = 8212;
},
{
glyphname = underscore;
layers = (
{
layerId = m01;
shapes = (
{
closed = 1;
nodes = (
(0,-133,l),
(500,-133,l),
(500,-78,l),
(0,-78,l)
);
}
);
width = 500;
},
{
layerId = "2FFFB641-FAF4-44D5-BCCD-45A3ED2836BE";
shapes = (
{
closed = 1;
nodes = (
(0,-133,l),
(500,-133,l),
(500,-78,l),
(0,-78,l)
);
}
);
width = 500;
},
{
layerId = "10EBB935-FE11-436B-A293-72D268A19F55";
shapes = (
{
closed = 1;
nodes = (
(0,-133,l),
(500,-133,l),
(500,-78,l),
(0,-78,l)
);
}
);
width = 500;
}
);
note = underscore;
unicode = 95;
},
{
glyphname = parenleft;
layers = (
{
layerId = m01;
shapes = (
{
closed = 1;
nodes = (
(205,780,l),
(147,670,o),
(90,422,o),
(90,290,qs),
(90,159,o),
(147,-90,o),
(205,-200,q),
(280,-200,l),
(180,14,o),
(180,290,qs),
(180,566,o),
(280,780,q)
);
}
);
width = 310;
},
{
layerId = "2FFFB641-FAF4-44D5-BCCD-45A3ED2836BE";
shapes = (
{
closed = 1;
nodes = (
(205,780,l),
(147,670,o),
(90,422,o),
(90,290,qs),
(90,159,o),
(147,-90,o),
(205,-200,q),
(280,-200,l),
(180,14,o),
(180,290,qs),
(180,566,o),
(280,780,q)
);
}
);
width = 310;
},
{
layerId = "10EBB935-FE11-436B-A293-72D268A19F55";
shapes = (
{
closed = 1;
nodes = (
(205,780,l),
(147,670,o),
(90,422,o),
(90,290,qs),
(90,159,o),
(147,-90,o),
(205,-200,q),
(280,-200,l),
(180,14,o),
(180,290,qs),
(180,566,o),
(280,780,q)
);
}
);
width = 310;
}
);
note = parenleft;
unicode = 40;
},
{
glyphname = parenright;
layers = (
{
layerId = m01;
shapes = (
{
closed = 1;
nodes = (
(105,-200,l),
(163,-90,o),
(220,159,o),
(220,290,qs),
(220,422,o),
(163,670,o),
(105,780,q),
(30,780,l),
(130,566,o),
(130,290,qs),
(130,14,o),
(30,-200,q)
);
}
);
width = 310;
},
{
layerId = "2FFFB641-FAF4-44D5-BCCD-45A3ED2836BE";
shapes = (
{
closed = 1;
nodes = (
(105,-200,l),
(163,-90,o),
(220,159,o),
(220,290,qs),
(220,422,o),
(163,670,o),
(105,780,q),
(30,780,l),
(130,566,o),
(130,290,qs),
(130,14,o),
(30,-200,q)
);
}
);
width = 310;
},
{
layerId = "10EBB935-FE11-436B-A293-72D268A19F55";
shapes = (
{
closed = 1;
nodes = (
(105,-200,l),
(163,-90,o),
(220,159,o),
(220,290,qs),
(220,422,o),
(163,670,o),
(105,780,q),
(30,780,l),
(130,566,o),
(130,290,qs),
(130,14,o),
(30,-200,q)
);
}
);
width = 310;
}
);
note = parenright;
unicode = 41;
},
{
glyphname = braceleft;
layers = (
{
layerId = m01;
shapes = (
{
closed = 1;
nodes = (
(178,660,ls),
(178,680,o),
(204,710,o),
(226,710,qs),
(261,710,l),
(261,780,l),
(201,780,ls),
(177,780,o),
(130,750,o),
(98,686,o),
(98,640,qs),
(98,430,ls),
(98,376,o),
(74,328,o),
(50,320,q),
(50,260,l),
(74,252,o),
(98,204,o),
(98,150,qs),
(98,-60,ls),
(98,-106,o),
(130,-170,o),
(177,-200,o),
(201,-200,qs),
(261,-200,l),
(261,-130,l),
(226,-130,ls),
(204,-130,o),
(178,-100,o),
(178,-80,qs),
(178,90,ls),
(178,166,o),
(154,269,o),
(112,290,q),
(154,311,o),
(178,414,o),
(178,490,qs)
);
}
);
width = 311;
},
{
layerId = "2FFFB641-FAF4-44D5-BCCD-45A3ED2836BE";
shapes = (
{
closed = 1;
nodes = (
(178,660,ls),
(178,680,o),
(204,710,o),
(226,710,qs),
(261,710,l),
(261,780,l),
(201,780,ls),
(177,780,o),
(130,750,o),
(98,686,o),
(98,640,qs),
(98,430,ls),
(98,376,o),
(74,328,o),
(50,320,q),
(50,260,l),
(74,252,o),
(98,204,o),
(98,150,qs),
(98,-60,ls),
(98,-106,o),
(130,-170,o),
(177,-200,o),
(201,-200,qs),
(261,-200,l),
(261,-130,l),
(226,-130,ls),
(204,-130,o),
(178,-100,o),
(178,-80,qs),
(178,90,ls),
(178,166,o),
(154,269,o),
(112,290,q),
(154,311,o),
(178,414,o),
(178,490,qs)
);
}
);
width = 311;
},
{
layerId = "10EBB935-FE11-436B-A293-72D268A19F55";
shapes = (
{
closed = 1;
nodes = (
(178,660,ls),
(178,680,o),
(204,710,o),
(226,710,qs),
(261,710,l),
(261,780,l),
(201,780,ls),
(177,780,o),
(130,750,o),
(98,686,o),
(98,640,qs),
(98,430,ls),
(98,376,o),
(74,328,o),
(50,320,q),
(50,260,l),
(74,252,o),
(98,204,o),
(98,150,qs),
(98,-60,ls),
(98,-106,o),
(130,-170,o),
(177,-200,o),
(201,-200,qs),
(261,-200,l),
(261,-130,l),
(226,-130,ls),
(204,-130,o),
(178,-100,o),
(178,-80,qs),
(178,90,ls),
(178,166,o),
(154,269,o),
(112,290,q),
(154,311,o),
(178,414,o),
(178,490,qs)
);
}
);
width = 311;
}
);
note = braceleft;
unicode = 123;
},
{
glyphname = braceright;
layers = (
{
layerId = m01;
shapes = (
{
closed = 1;
nodes = (
(142,-80,ls),
(142,-100,o),
(116,-130,o),
(94,-130,qs),
(59,-130,l),
(59,-200,l),
(119,-200,ls),
(143,-200,o),
(190,-170,o),
(222,-106,o),
(222,-60,qs),
(222,150,ls),
(222,204,o),
(246,252,o),
(270,260,q),
(270,320,l),
(246,328,o),
(222,376,o),
(222,430,qs),
(222,640,ls),
(222,686,o),
(190,750,o),
(143,780,o),
(119,780,qs),
(59,780,l),
(59,710,l),
(94,710,ls),
(116,710,o),
(142,680,o),
(142,660,qs),
(142,490,ls),
(142,414,o),
(166,311,o),
(208,290,q),
(166,269,o),
(142,166,o),
(142,90,qs)
);
}
);
width = 311;
},
{
layerId = "2FFFB641-FAF4-44D5-BCCD-45A3ED2836BE";
shapes = (
{
closed = 1;
nodes = (
(142,-80,ls),
(142,-100,o),
(116,-130,o),
(94,-130,qs),
(59,-130,l),
(59,-200,l),
(119,-200,ls),
(143,-200,o),
(190,-170,o),
(222,-106,o),
(222,-60,qs),
(222,150,ls),
(222,204,o),
(246,252,o),
(270,260,q),
(270,320,l),
(246,328,o),
(222,376,o),
(222,430,qs),
(222,640,ls),
(222,686,o),
(190,750,o),
(143,780,o),
(119,780,qs),
(59,780,l),
(59,710,l),
(94,710,ls),
(116,710,o),
(142,680,o),
(142,660,qs),
(142,490,ls),
(142,414,o),
(166,311,o),
(208,290,q),
(166,269,o),
(142,166,o),
(142,90,qs)
);
}
);
width = 311;
},
{
layerId = "10EBB935-FE11-436B-A293-72D268A19F55";
shapes = (
{
closed = 1;
nodes = (
(142,-80,ls),
(142,-100,o),
(116,-130,o),
(94,-130,qs),
(59,-130,l),
(59,-200,l),
(119,-200,ls),
(143,-200,o),
(190,-170,o),
(222,-106,o),
(222,-60,qs),
(222,150,ls),
(222,204,o),
(246,252,o),
(270,260,q),
(270,320,l),
(246,328,o),
(222,376,o),
(222,430,qs),
(222,640,ls),
(222,686,o),
(190,750,o),
(143,780,o),
(119,780,qs),
(59,780,l),
(59,710,l),
(94,710,ls),
(116,710,o),
(142,680,o),
(142,660,qs),
(142,490,ls),
(142,414,o),
(166,311,o),
(208,290,q),
(166,269,o),
(142,166,o),
(142,90,qs)
);
}
);
width = 311;
}
);
note = braceright;
unicode = 125;
},
{
glyphname = bracketleft;
layers = (
{
layerId = m01;
shapes = (
{
closed = 1;
nodes = (
(179,705,l),
(280,705,l),
(280,780,l),
(100,780,l),
(100,-220,l),
(280,-220,l),
(280,-145,l),
(179,-145,l)
);
}
);
width = 300;
},
{
layerId = "2FFFB641-FAF4-44D5-BCCD-45A3ED2836BE";
shapes = (
{
closed = 1;
nodes = (
(179,705,l),
(280,705,l),
(280,780,l),
(100,780,l),
(100,-220,l),
(280,-220,l),
(280,-145,l),
(179,-145,l)
);
}
);
width = 300;
},
{
layerId = "10EBB935-FE11-436B-A293-72D268A19F55";
shapes = (
{
closed = 1;
nodes = (
(179,705,l),
(280,705,l),
(280,780,l),
(100,780,l),
(100,-220,l),
(280,-220,l),
(280,-145,l),
(179,-145,l)
);
}
);
width = 300;
}
);
note = bracketleft;
unicode = 91;
},
{
glyphname = bracketright;
layers = (
{
layerId = m01;
shapes = (
{
closed = 1;
nodes = (
(121,-145,l),
(20,-145,l),
(20,-220,l),
(200,-220,l),
(200,780,l),
(20,780,l),
(20,705,l),
(121,705,l)
);
}
);
width = 300;
},
{
layerId = "2FFFB641-FAF4-44D5-BCCD-45A3ED2836BE";
shapes = (
{
closed = 1;
nodes = (
(121,-145,l),
(20,-145,l),
(20,-220,l),
(200,-220,l),
(200,780,l),
(20,780,l),
(20,705,l),
(121,705,l)
);
}
);
width = 300;
},
{
layerId = "10EBB935-FE11-436B-A293-72D268A19F55";
shapes = (
{
closed = 1;
nodes = (
(121,-145,l),
(20,-145,l),
(20,-220,l),
(200,-220,l),
(200,780,l),
(20,780,l),
(20,705,l),
(121,705,l)
);
}
);
width = 300;
}
);
note = bracketright;
unicode = 93;
},
{
glyphname = quotedblleft;
kernLeft = asterisk;
kernRight = asterisk;
layers = (
{
layerId = m01;
shapes = (
{
closed = 1;
nodes = (
(165,470,l),
(225,700,l),
(170,700,l),
(70,470,l)
);
},
{
closed = 1;
nodes = (
(365,470,l),
(425,700,l),
(370,700,l),
(270,470,l)
);
}
);
width = 475;
},
{
layerId = "2FFFB641-FAF4-44D5-BCCD-45A3ED2836BE";
shapes = (
{
closed = 1;
nodes = (
(165,470,l),
(225,700,l),
(170,700,l),
(70,470,l)
);
},
{
closed = 1;
nodes = (
(365,470,l),
(425,700,l),
(370,700,l),
(270,470,l)
);
}
);
width = 475;
},
{
layerId = "10EBB935-FE11-436B-A293-72D268A19F55";
shapes = (
{
closed = 1;
nodes = (
(165,470,l),
(225,700,l),
(170,700,l),
(70,470,l)
);
},
{
closed = 1;
nodes = (
(365,470,l),
(425,700,l),
(370,700,l),
(270,470,l)
);
}
);
width = 475;
}
);
note = quotedblleft;
unicode = 8220;
},
{
glyphname = quotedblright;
kernLeft = asterisk;
kernRight = asterisk;
layers = (
{
layerId = m01;
shapes = (
{
closed = 1;
nodes = (
(110,700,l),
(50,470,l),
(105,470,l),
(205,700,l)
);
},
{
closed = 1;
nodes = (
(310,700,l),
(250,470,l),
(305,470,l),
(405,700,l)
);
}
);
width = 475;
},
{
layerId = "2FFFB641-FAF4-44D5-BCCD-45A3ED2836BE";
shapes = (
{
closed = 1;
nodes = (
(110,700,l),
(50,470,l),
(105,470,l),
(205,700,l)
);
},
{
closed = 1;
nodes = (
(310,700,l),
(250,470,l),
(305,470,l),
(405,700,l)
);
}
);
width = 475;
},
{
layerId = "10EBB935-FE11-436B-A293-72D268A19F55";
shapes = (
{
closed = 1;
nodes = (
(110,700,l),
(50,470,l),
(105,470,l),
(205,700,l)
);
},
{
closed = 1;
nodes = (
(310,700,l),
(250,470,l),
(305,470,l),
(405,700,l)
);
}
);
width = 475;
}
);
note = quotedblright;
unicode = 8221;
},
{
glyphname = quoteleft;
kernLeft = asterisk;
kernRight = asterisk;
layers = (
{
layerId = m01;
shapes = (
{
closed = 1;
nodes = (
(165,470,l),
(225,700,l),
(170,700,l),
(70,470,l)
);
}
);
width = 275;
},
{
layerId = "2FFFB641-FAF4-44D5-BCCD-45A3ED2836BE";
shapes = (
{
closed = 1;
nodes = (
(165,470,l),
(225,700,l),
(170,700,l),
(70,470,l)
);
}
);
width = 275;
},
{
layerId = "10EBB935-FE11-436B-A293-72D268A19F55";
shapes = (
{
closed = 1;
nodes = (
(165,470,l),
(225,700,l),
(170,700,l),
(70,470,l)
);
}
);
width = 275;
}
);
note = quoteleft;
unicode = 8216;
},
{
glyphname = quoteright;
kernLeft = asterisk;
kernRight = asterisk;
layers = (
{
layerId = m01;
shapes = (
{
closed = 1;
nodes = (
(110,700,l),
(50,470,l),
(105,470,l),
(205,700,l)
);
}
);
width = 275;
},
{
layerId = "2FFFB641-FAF4-44D5-BCCD-45A3ED2836BE";
shapes = (
{
closed = 1;
nodes = (
(110,700,l),
(50,470,l),
(105,470,l),
(205,700,l)
);
}
);
width = 275;
},
{
layerId = "10EBB935-FE11-436B-A293-72D268A19F55";
shapes = (
{
closed = 1;
nodes = (
(110,700,l),
(50,470,l),
(105,470,l),
(205,700,l)
);
}
);
width = 275;
}
);
note = quoteright;
unicode = 8217;
},
{
glyphname = guillemotleft;
layers = (
{
layerId = m01;
shapes = (
{
closed = 1;
nodes = (
(290,259,l),
(440,445,l),
(390,490,l),
(200,255,l),
(390,20,l),
(440,65,l)
);
},
{
closed = 1;
nodes = (
(130,259,l),
(280,445,l),
(230,490,l),
(40,255,l),
(230,20,l),
(280,65,l)
);
}
);
width = 510;
},
{
layerId = "2FFFB641-FAF4-44D5-BCCD-45A3ED2836BE";
shapes = (
{
closed = 1;
nodes = (
(290,259,l),
(440,445,l),
(390,490,l),
(200,255,l),
(390,20,l),
(440,65,l)
);
},
{
closed = 1;
nodes = (
(130,259,l),
(280,445,l),
(230,490,l),
(40,255,l),
(230,20,l),
(280,65,l)
);
}
);
width = 510;
},
{
layerId = "10EBB935-FE11-436B-A293-72D268A19F55";
shapes = (
{
closed = 1;
nodes = (
(290,259,l),
(440,445,l),
(390,490,l),
(200,255,l),
(390,20,l),
(440,65,l)
);
},
{
closed = 1;
nodes = (
(130,259,l),
(280,445,l),
(230,490,l),
(40,255,l),
(230,20,l),
(280,65,l)
);
}
);
width = 510;
}
);
note = guillemotleft;
unicode = 171;
},
{
glyphname = guillemotright;
layers = (
{
layerId = m01;
shapes = (
{
closed = 1;
nodes = (
(220,251,l),
(70,65,l),
(120,20,l),
(310,255,l),
(120,490,l),
(70,445,l)
);
},
{
closed = 1;
nodes = (
(380,251,l),
(230,65,l),
(280,20,l),
(470,255,l),
(280,490,l),
(230,445,l)
);
}
);
width = 510;
},
{
layerId = "2FFFB641-FAF4-44D5-BCCD-45A3ED2836BE";
shapes = (
{
closed = 1;
nodes = (
(220,251,l),
(70,65,l),
(120,20,l),
(310,255,l),
(120,490,l),
(70,445,l)
);
},
{
closed = 1;
nodes = (
(380,251,l),
(230,65,l),
(280,20,l),
(470,255,l),
(280,490,l),
(230,445,l)
);
}
);
width = 510;
},
{
layerId = "10EBB935-FE11-436B-A293-72D268A19F55";
shapes = (
{
closed = 1;
nodes = (
(220,251,l),
(70,65,l),
(120,20,l),
(310,255,l),
(120,490,l),
(70,445,l)
);
},
{
closed = 1;
nodes = (
(380,251,l),
(230,65,l),
(280,20,l),
(470,255,l),
(280,490,l),
(230,445,l)
);
}
);
width = 510;
}
);
note = guillemotright;
unicode = 187;
},
{
glyphname = guilsinglleft;
layers = (
{
layerId = m01;
shapes = (
{
closed = 1;
nodes = (
(130,259,l),
(280,445,l),
(230,490,l),
(40,255,l),
(230,20,l),
(280,65,l)
);
}
);
width = 350;
},
{
layerId = "2FFFB641-FAF4-44D5-BCCD-45A3ED2836BE";
shapes = (
{
closed = 1;
nodes = (
(130,259,l),
(280,445,l),
(230,490,l),
(40,255,l),
(230,20,l),
(280,65,l)
);
}
);
width = 350;
},
{
layerId = "10EBB935-FE11-436B-A293-72D268A19F55";
shapes = (
{
closed = 1;
nodes = (
(130,259,l),
(280,445,l),
(230,490,l),
(40,255,l),
(230,20,l),
(280,65,l)
);
}
);
width = 350;
}
);
note = guilsinglleft;
unicode = 8249;
},
{
glyphname = guilsinglright;
layers = (
{
layerId = m01;
shapes = (
{
closed = 1;
nodes = (
(220,251,l),
(70,65,l),
(120,20,l),
(310,255,l),
(120,490,l),
(70,445,l)
);
}
);
width = 350;
},
{
layerId = "2FFFB641-FAF4-44D5-BCCD-45A3ED2836BE";
shapes = (
{
closed = 1;
nodes = (
(220,251,l),
(70,65,l),
(120,20,l),
(310,255,l),
(120,490,l),
(70,445,l)
);
}
);
width = 350;
},
{
layerId = "10EBB935-FE11-436B-A293-72D268A19F55";
shapes = (
{
closed = 1;
nodes = (
(220,251,l),
(70,65,l),
(120,20,l),
(310,255,l),
(120,490,l),
(70,445,l)
);
}
);
width = 350;
}
);
note = guilsinglright;
unicode = 8250;
},
{
glyphname = quotedbl;
kernLeft = asterisk;
kernRight = asterisk;
layers = (
{
layerId = m01;
shapes = (
{
closed = 1;
nodes = (
(130,700,l),
(80,400,l),
(135,400,l),
(225,700,l)
);
},
{
closed = 1;
nodes = (
(310,700,l),
(260,400,l),
(315,400,l),
(405,700,l)
);
}
);
width = 465;
},
{
layerId = "2FFFB641-FAF4-44D5-BCCD-45A3ED2836BE";
shapes = (
{
closed = 1;
nodes = (
(130,700,l),
(80,400,l),
(135,400,l),
(225,700,l)
);
},
{
closed = 1;
nodes = (
(310,700,l),
(260,400,l),
(315,400,l),
(405,700,l)
);
}
);
width = 465;
},
{
layerId = "10EBB935-FE11-436B-A293-72D268A19F55";
shapes = (
{
closed = 1;
nodes = (
(130,700,l),
(80,400,l),
(135,400,l),
(225,700,l)
);
},
{
closed = 1;
nodes = (
(310,700,l),
(260,400,l),
(315,400,l),
(405,700,l)
);
}
);
width = 465;
}
);
note = quotedbl;
unicode = 34;
},
{
glyphname = quotesingle;
kernLeft = asterisk;
kernRight = asterisk;
layers = (
{
layerId = m01;
shapes = (
{
closed = 1;
nodes = (
(130,700,l),
(80,400,l),
(135,400,l),
(225,700,l)
);
}
);
width = 285;
},
{
layerId = "2FFFB641-FAF4-44D5-BCCD-45A3ED2836BE";
shapes = (
{
closed = 1;
nodes = (
(130,700,l),
(80,400,l),
(135,400,l),
(225,700,l)
);
}
);
width = 285;
},
{
layerId = "10EBB935-FE11-436B-A293-72D268A19F55";
shapes = (
{
closed = 1;
nodes = (
(130,700,l),
(80,400,l),
(135,400,l),
(225,700,l)
);
}
);
width = 285;
}
);
note = quotesingle;
unicode = 39;
},
{
glyphname = at;
kernLeft = C;
kernRight = D;
layers = (
{
layerId = m01;
shapes = (
{
closed = 1;
nodes = (
(35,220,o),
(111,71,o),
(260,-10,o),
(365,-10,qs),
(445,-10,o),
(551,20,o),
(601,50,q),
(566,107,l),
(520,78,o),
(423,55,o),
(365,55,qs),
(287,55,o),
(169,120,o),
(105,239,o),
(105,320,qs),
(105,411,o),
(182,560,o),
(323,645,o),
(415,645,qs),
(496,645,o),
(608,575,o),
(665,459,o),
(665,390,qs),
(665,332,o),
(630,254,o),
(584,216,o),
(566,216,qs),
(543,216,o),
(527,241,o),
(527,262,qs),
(528,276,o),
(529,289,q),
(570,520,l),
(495,520,l),
(485,453,l),
(471,488,o),
(417,530,o),
(378,530,qs),
(334,530,o),
(246,480,o),
(190,383,o),
(190,317,qs),
(190,269,o),
(228,198,o),
(291,160,o),
(328,160,qs),
(371,160,o),
(442,197,o),
(466,233,q),
(471,196,o),
(520,150,o),
(556,150,qs),
(597,150,o),
(680,200,o),
(735,308,o),
(735,390,qs),
(735,473,o),
(662,619,o),
(517,710,o),
(415,710,qs),
(305,710,o),
(132,607,o),
(35,429,o),
(35,320,qs)
);
},
{
closed = 1;
nodes = (
(266,361,o),
(298,425,o),
(350,460,o),
(378,460,qs),
(416,460,o),
(465,411,o),
(465,370,qs),
(465,298,o),
(393,230,o),
(348,230,qs),
(307,230,o),
(266,277,o),
(266,320,qs)
);
}
);
width = 770;
},
{
layerId = "2FFFB641-FAF4-44D5-BCCD-45A3ED2836BE";
shapes = (
{
closed = 1;
nodes = (
(35,220,o),
(111,71,o),
(260,-10,o),
(365,-10,qs),
(445,-10,o),
(551,20,o),
(601,50,q),
(566,107,l),
(520,78,o),
(423,55,o),
(365,55,qs),
(287,55,o),
(169,120,o),
(105,239,o),
(105,320,qs),
(105,411,o),
(182,560,o),
(323,645,o),
(415,645,qs),
(496,645,o),
(608,575,o),
(665,459,o),
(665,390,qs),
(665,332,o),
(630,254,o),
(584,216,o),
(566,216,qs),
(543,216,o),
(527,241,o),
(527,262,qs),
(528,276,o),
(529,289,q),
(570,520,l),
(495,520,l),
(485,453,l),
(471,488,o),
(417,530,o),
(378,530,qs),
(334,530,o),
(246,480,o),
(190,383,o),
(190,317,qs),
(190,269,o),
(228,198,o),
(291,160,o),
(328,160,qs),
(371,160,o),
(442,197,o),
(466,233,q),
(471,196,o),
(520,150,o),
(556,150,qs),
(597,150,o),
(680,200,o),
(735,308,o),
(735,390,qs),
(735,473,o),
(662,619,o),
(517,710,o),
(415,710,qs),
(305,710,o),
(132,607,o),
(35,429,o),
(35,320,qs)
);
},
{
closed = 1;
nodes = (
(266,361,o),
(298,425,o),
(350,460,o),
(378,460,qs),
(416,460,o),
(465,411,o),
(465,370,qs),
(465,298,o),
(393,230,o),
(348,230,qs),
(307,230,o),
(266,277,o),
(266,320,qs)
);
}
);
width = 770;
},
{
layerId = "10EBB935-FE11-436B-A293-72D268A19F55";
shapes = (
{
closed = 1;
nodes = (
(35,220,o),
(111,71,o),
(260,-10,o),
(365,-10,qs),
(445,-10,o),
(551,20,o),
(601,50,q),
(566,107,l),
(520,78,o),
(423,55,o),
(365,55,qs),
(287,55,o),
(169,120,o),
(105,239,o),
(105,320,qs),
(105,411,o),
(182,560,o),
(323,645,o),
(415,645,qs),
(496,645,o),
(608,575,o),
(665,459,o),
(665,390,qs),
(665,332,o),
(630,254,o),
(584,216,o),
(566,216,qs),
(543,216,o),
(527,241,o),
(527,262,qs),
(528,276,o),
(529,289,q),
(570,520,l),
(495,520,l),
(485,453,l),
(471,488,o),
(417,530,o),
(378,530,qs),
(334,530,o),
(246,480,o),
(190,383,o),
(190,317,qs),
(190,269,o),
(228,198,o),
(291,160,o),
(328,160,qs),
(371,160,o),
(442,197,o),
(466,233,q),
(471,196,o),
(520,150,o),
(556,150,qs),
(597,150,o),
(680,200,o),
(735,308,o),
(735,390,qs),
(735,473,o),
(662,619,o),
(517,710,o),
(415,710,qs),
(305,710,o),
(132,607,o),
(35,429,o),
(35,320,qs)
);
},
{
closed = 1;
nodes = (
(266,361,o),
(298,425,o),
(350,460,o),
(378,460,qs),
(416,460,o),
(465,411,o),
(465,370,qs),
(465,298,o),
(393,230,o),
(348,230,qs),
(307,230,o),
(266,277,o),
(266,320,qs)
);
}
);
width = 770;
}
);
note = at;
unicode = 64;
},
{
glyphname = ampersand;
layers = (
{
layerId = m01;
shapes = (
{
closed = 1;
nodes = (
(559,0,l),
(655,0,l),
(543,129,l),
(592,180,o),
(664,277,q),
(602,316,l),
(545,238,o),
(494,185,q),
(325,380,l),
(456,462,o),
(456,554,qs),
(456,596,o),
(415,668,o),
(339,711,o),
(288,711,qs),
(212,711,o),
(117,626,o),
(117,556,qs),
(117,515,o),
(162,449,o),
(200,409,qs),
(212,396,l),
(163,371,o),
(92,320,o),
(40,239,o),
(40,183,qs),
(40,126,o),
(103,38,o),
(207,-10,o),
(265,-10,qs),
(383,-10,o),
(490,79,q)
);
},
{
closed = 1;
nodes = (
(201,595,o),
(247,640,o),
(288,640,qs),
(329,640,o),
(375,593,o),
(375,554,qs),
(375,524,o),
(325,461,o),
(279,432,q),
(263,450,ls),
(232,484,o),
(201,531,o),
(201,556,qs)
);
},
{
closed = 1;
nodes = (
(125,241,o),
(195,309,o),
(259,343,q),
(441,135,l),
(353,64,o),
(270,64,qs),
(208,64,o),
(125,132,o),
(125,188,qs)
);
}
);
width = 675;
},
{
layerId = "2FFFB641-FAF4-44D5-BCCD-45A3ED2836BE";
shapes = (
{
closed = 1;
nodes = (
(559,0,l),
(655,0,l),
(543,129,l),
(592,180,o),
(664,277,q),
(602,316,l),
(545,238,o),
(494,185,q),
(325,380,l),
(456,462,o),
(456,554,qs),
(456,596,o),
(415,668,o),
(339,711,o),
(288,711,qs),
(212,711,o),
(117,626,o),
(117,556,qs),
(117,515,o),
(162,449,o),
(200,409,qs),
(212,396,l),
(163,371,o),
(92,320,o),
(40,239,o),
(40,183,qs),
(40,126,o),
(103,38,o),
(207,-10,o),
(265,-10,qs),
(383,-10,o),
(490,79,q)
);
},
{
closed = 1;
nodes = (
(201,595,o),
(247,640,o),
(288,640,qs),
(329,640,o),
(375,593,o),
(375,554,qs),
(375,524,o),
(325,461,o),
(279,432,q),
(263,450,ls),
(232,484,o),
(201,531,o),
(201,556,qs)
);
},
{
closed = 1;
nodes = (
(125,241,o),
(195,309,o),
(259,343,q),
(441,135,l),
(353,64,o),
(270,64,qs),
(208,64,o),
(125,132,o),
(125,188,qs)
);
}
);
width = 675;
},
{
layerId = "10EBB935-FE11-436B-A293-72D268A19F55";
shapes = (
{
closed = 1;
nodes = (
(559,0,l),
(655,0,l),
(543,129,l),
(592,180,o),
(664,277,q),
(602,316,l),
(545,238,o),
(494,185,q),
(325,380,l),
(456,462,o),
(456,554,qs),
(456,596,o),
(415,668,o),
(339,711,o),
(288,711,qs),
(212,711,o),
(117,626,o),
(117,556,qs),
(117,515,o),
(162,449,o),
(200,409,qs),
(212,396,l),
(163,371,o),
(92,320,o),
(40,239,o),
(40,183,qs),
(40,126,o),
(103,38,o),
(207,-10,o),
(265,-10,qs),
(383,-10,o),
(490,79,q)
);
},
{
closed = 1;
nodes = (
(201,595,o),
(247,640,o),
(288,640,qs),
(329,640,o),
(375,593,o),
(375,554,qs),
(375,524,o),
(325,461,o),
(279,432,q),
(263,450,ls),
(232,484,o),
(201,531,o),
(201,556,qs)
);
},
{
closed = 1;
nodes = (
(125,241,o),
(195,309,o),
(259,343,q),
(441,135,l),
(353,64,o),
(270,64,qs),
(208,64,o),
(125,132,o),
(125,188,qs)
);
}
);
width = 675;
}
);
note = ampersand;
unicode = 38;
},
{
glyphname = bar;
layers = (
{
layerId = m01;
shapes = (
{
closed = 1;
nodes = (
(100,785,l),
(100,-215,l),
(174,-215,l),
(174,785,l)
);
}
);
width = 274;
},
{
layerId = "2FFFB641-FAF4-44D5-BCCD-45A3ED2836BE";
shapes = (
{
closed = 1;
nodes = (
(100,785,l),
(100,-215,l),
(174,-215,l),
(174,785,l)
);
}
);
width = 274;
},
{
layerId = "10EBB935-FE11-436B-A293-72D268A19F55";
shapes = (
{
closed = 1;
nodes = (
(100,785,l),
(100,-215,l),
(174,-215,l),
(174,785,l)
);
}
);
width = 274;
}
);
note = bar;
unicode = 124;
},
{
glyphname = dollar;
layers = (
{
layerId = m01;
shapes = (
{
closed = 1;
nodes = (
(509,560,l),
(488,612,o),
(396,696,o),
(333,707,q),
(333,818,l),
(259,818,l),
(259,708,l),
(186,698,o),
(90,604,o),
(90,540,qs),
(90,456,o),
(193,364,o),
(266,338,qs),
(344,310,o),
(430,243,o),
(430,183,qs),
(430,130,o),
(369,70,o),
(310,70,qs),
(248,70,o),
(160,150,o),
(127,226,q),
(55,183,l),
(84,107,o),
(190,7,o),
(259,-6,q),
(259,-112,l),
(333,-112,l),
(333,-9,l),
(422,-2,o),
(518,105,o),
(518,190,qs),
(518,274,o),
(416,368,o),
(341,396,qs),
(286,417,o),
(222,449,o),
(179,498,o),
(179,534,qs),
(179,629,o),
(294,629,qs),
(346,629,o),
(412,567,o),
(440,514,q)
);
}
);
width = 580;
},
{
layerId = "2FFFB641-FAF4-44D5-BCCD-45A3ED2836BE";
shapes = (
{
closed = 1;
nodes = (
(509,560,l),
(488,612,o),
(396,696,o),
(333,707,q),
(333,818,l),
(259,818,l),
(259,708,l),
(186,698,o),
(90,604,o),
(90,540,qs),
(90,456,o),
(193,364,o),
(266,338,qs),
(344,310,o),
(430,243,o),
(430,183,qs),
(430,130,o),
(369,70,o),
(310,70,qs),
(248,70,o),
(160,150,o),
(127,226,q),
(55,183,l),
(84,107,o),
(190,7,o),
(259,-6,q),
(259,-112,l),
(333,-112,l),
(333,-9,l),
(422,-2,o),
(518,105,o),
(518,190,qs),
(518,274,o),
(416,368,o),
(341,396,qs),
(286,417,o),
(222,449,o),
(179,498,o),
(179,534,qs),
(179,629,o),
(294,629,qs),
(346,629,o),
(412,567,o),
(440,514,q)
);
}
);
width = 580;
},
{
layerId = "10EBB935-FE11-436B-A293-72D268A19F55";
shapes = (
{
closed = 1;
nodes = (
(509,560,l),
(488,612,o),
(396,696,o),
(333,707,q),
(333,818,l),
(259,818,l),
(259,708,l),
(186,698,o),
(90,604,o),
(90,540,qs),
(90,456,o),
(193,364,o),
(266,338,qs),
(344,310,o),
(430,243,o),
(430,183,qs),
(430,130,o),
(369,70,o),
(310,70,qs),
(248,70,o),
(160,150,o),
(127,226,q),
(55,183,l),
(84,107,o),
(190,7,o),
(259,-6,q),
(259,-112,l),
(333,-112,l),
(333,-9,l),
(422,-2,o),
(518,105,o),
(518,190,qs),
(518,274,o),
(416,368,o),
(341,396,qs),
(286,417,o),
(222,449,o),
(179,498,o),
(179,534,qs),
(179,629,o),
(294,629,qs),
(346,629,o),
(412,567,o),
(440,514,q)
);
}
);
width = 580;
}
);
note = dollar;
unicode = 36;
},
{
glyphname = plus;
layers = (
{
layerId = m01;
shapes = (
{
closed = 1;
nodes = (
(65,215,l),
(265,215,l),
(265,10,l),
(350,10,l),
(350,215,l),
(550,215,l),
(550,295,l),
(350,295,l),
(350,500,l),
(265,500,l),
(265,295,l),
(65,295,l)
);
}
);
width = 615;
},
{
layerId = "2FFFB641-FAF4-44D5-BCCD-45A3ED2836BE";
shapes = (
{
closed = 1;
nodes = (
(65,215,l),
(265,215,l),
(265,10,l),
(350,10,l),
(350,215,l),
(550,215,l),
(550,295,l),
(350,295,l),
(350,500,l),
(265,500,l),
(265,295,l),
(65,295,l)
);
}
);
width = 615;
},
{
layerId = "10EBB935-FE11-436B-A293-72D268A19F55";
shapes = (
{
closed = 1;
nodes = (
(65,215,l),
(265,215,l),
(265,10,l),
(350,10,l),
(350,215,l),
(550,215,l),
(550,295,l),
(350,295,l),
(350,500,l),
(265,500,l),
(265,295,l),
(65,295,l)
);
}
);
width = 615;
}
);
note = plus;
unicode = 43;
},
{
glyphname = minus;
layers = (
{
layerId = m01;
shapes = (
{
closed = 1;
nodes = (
(70,200,l),
(520,200,l),
(520,275,l),
(70,275,l)
);
}
);
width = 590;
},
{
layerId = "2FFFB641-FAF4-44D5-BCCD-45A3ED2836BE";
shapes = (
{
closed = 1;
nodes = (
(70,200,l),
(520,200,l),
(520,275,l),
(70,275,l)
);
}
);
width = 590;
},
{
layerId = "10EBB935-FE11-436B-A293-72D268A19F55";
shapes = (
{
closed = 1;
nodes = (
(70,200,l),
(520,200,l),
(520,275,l),
(70,275,l)
);
}
);
width = 590;
}
);
note = minus;
unicode = 8722;
},
{
glyphname = multiply;
kernLeft = x;
layers = (
{
layerId = m01;
shapes = (
{
closed = 1;
nodes = (
(121,22,l),
(298,204,l),
(475,22,l),
(531,78,l),
(349,255,l),
(531,432,l),
(475,488,l),
(298,306,l),
(121,488,l),
(65,432,l),
(247,255,l),
(65,78,l)
);
}
);
width = 596;
},
{
layerId = "2FFFB641-FAF4-44D5-BCCD-45A3ED2836BE";
shapes = (
{
closed = 1;
nodes = (
(121,22,l),
(298,204,l),
(475,22,l),
(531,78,l),
(349,255,l),
(531,432,l),
(475,488,l),
(298,306,l),
(121,488,l),
(65,432,l),
(247,255,l),
(65,78,l)
);
}
);
width = 596;
},
{
layerId = "10EBB935-FE11-436B-A293-72D268A19F55";
shapes = (
{
closed = 1;
nodes = (
(121,22,l),
(298,204,l),
(475,22,l),
(531,78,l),
(349,255,l),
(531,432,l),
(475,488,l),
(298,306,l),
(121,488,l),
(65,432,l),
(247,255,l),
(65,78,l)
);
}
);
width = 596;
}
);
note = multiply;
unicode = 215;
},
{
glyphname = divide;
layers = (
{
layerId = m01;
shapes = (
{
closed = 1;
nodes = (
(255,428,o),
(288,395,o),
(310,395,qs),
(333,395,o),
(365,428,o),
(365,450,qs),
(365,473,o),
(333,505,o),
(310,505,qs),
(288,505,o),
(255,473,o),
(255,450,qs)
);
},
{
closed = 1;
nodes = (
(60,225,l),
(560,225,l),
(560,305,l),
(60,305,l)
);
},
{
closed = 1;
nodes = (
(255,48,o),
(288,15,o),
(310,15,qs),
(333,15,o),
(365,48,o),
(365,70,qs),
(365,93,o),
(333,125,o),
(310,125,qs),
(288,125,o),
(255,93,o),
(255,70,qs)
);
}
);
width = 623;
},
{
layerId = "2FFFB641-FAF4-44D5-BCCD-45A3ED2836BE";
shapes = (
{
closed = 1;
nodes = (
(255,428,o),
(288,395,o),
(310,395,qs),
(333,395,o),
(365,428,o),
(365,450,qs),
(365,473,o),
(333,505,o),
(310,505,qs),
(288,505,o),
(255,473,o),
(255,450,qs)
);
},
{
closed = 1;
nodes = (
(60,225,l),
(560,225,l),
(560,305,l),
(60,305,l)
);
},
{
closed = 1;
nodes = (
(255,48,o),
(288,15,o),
(310,15,qs),
(333,15,o),
(365,48,o),
(365,70,qs),
(365,93,o),
(333,125,o),
(310,125,qs),
(288,125,o),
(255,93,o),
(255,70,qs)
);
}
);
width = 623;
},
{
layerId = "10EBB935-FE11-436B-A293-72D268A19F55";
shapes = (
{
closed = 1;
nodes = (
(255,428,o),
(288,395,o),
(310,395,qs),
(333,395,o),
(365,428,o),
(365,450,qs),
(365,473,o),
(333,505,o),
(310,505,qs),
(288,505,o),
(255,473,o),
(255,450,qs)
);
},
{
closed = 1;
nodes = (
(60,225,l),
(560,225,l),
(560,305,l),
(60,305,l)
);
},
{
closed = 1;
nodes = (
(255,48,o),
(288,15,o),
(310,15,qs),
(333,15,o),
(365,48,o),
(365,70,qs),
(365,93,o),
(333,125,o),
(310,125,qs),
(288,125,o),
(255,93,o),
(255,70,qs)
);
}
);
width = 623;
}
);
note = divide;
unicode = 247;
},
{
glyphname = equal;
layers = (
{
layerId = m01;
shapes = (
{
closed = 1;
nodes = (
(65,290,l),
(550,290,l),
(550,365,l),
(65,365,l)
);
},
{
closed = 1;
nodes = (
(65,140,l),
(550,140,l),
(550,215,l),
(65,215,l)
);
}
);
width = 615;
},
{
layerId = "2FFFB641-FAF4-44D5-BCCD-45A3ED2836BE";
shapes = (
{
closed = 1;
nodes = (
(65,290,l),
(550,290,l),
(550,365,l),
(65,365,l)
);
},
{
closed = 1;
nodes = (
(65,140,l),
(550,140,l),
(550,215,l),
(65,215,l)
);
}
);
width = 615;
},
{
layerId = "10EBB935-FE11-436B-A293-72D268A19F55";
shapes = (
{
closed = 1;
nodes = (
(65,290,l),
(550,290,l),
(550,365,l),
(65,365,l)
);
},
{
closed = 1;
nodes = (
(65,140,l),
(550,140,l),
(550,215,l),
(65,215,l)
);
}
);
width = 615;
}
);
note = equal;
unicode = 61;
},
{
glyphname = greater;
layers = (
{
layerId = m01;
shapes = (
{
closed = 1;
nodes = (
(443,253,l),
(65,95,l),
(65,15,l),
(575,235,l),
(575,280,l),
(65,500,l),
(65,420,l)
);
}
);
width = 640;
},
{
layerId = "2FFFB641-FAF4-44D5-BCCD-45A3ED2836BE";
shapes = (
{
closed = 1;
nodes = (
(443,253,l),
(65,95,l),
(65,15,l),
(575,235,l),
(575,280,l),
(65,500,l),
(65,420,l)
);
}
);
width = 640;
},
{
layerId = "10EBB935-FE11-436B-A293-72D268A19F55";
shapes = (
{
closed = 1;
nodes = (
(443,253,l),
(65,95,l),
(65,15,l),
(575,235,l),
(575,280,l),
(65,500,l),
(65,420,l)
);
}
);
width = 640;
}
);
note = greater;
unicode = 62;
},
{
glyphname = less;
layers = (
{
layerId = m01;
shapes = (
{
closed = 1;
nodes = (
(197,262,l),
(575,420,l),
(575,500,l),
(65,280,l),
(65,235,l),
(575,15,l),
(575,95,l)
);
}
);
width = 640;
},
{
layerId = "2FFFB641-FAF4-44D5-BCCD-45A3ED2836BE";
shapes = (
{
closed = 1;
nodes = (
(197,262,l),
(575,420,l),
(575,500,l),
(65,280,l),
(65,235,l),
(575,15,l),
(575,95,l)
);
}
);
width = 640;
},
{
layerId = "10EBB935-FE11-436B-A293-72D268A19F55";
shapes = (
{
closed = 1;
nodes = (
(197,262,l),
(575,420,l),
(575,500,l),
(65,280,l),
(65,235,l),
(575,15,l),
(575,95,l)
);
}
);
width = 640;
}
);
note = less;
unicode = 60;
},
{
glyphname = asciitilde;
layers = (
{
layerId = m01;
shapes = (
{
closed = 1;
nodes = (
(142,176,l),
(138,187,o),
(138,198,qs),
(138,224,o),
(166,253,o),
(193,253,qs),
(236,253,o),
(279,220,qs),
(344,172,o),
(394,172,qs),
(452,172,o),
(488,219,qs),
(510,249,o),
(510,290,qs),
(510,302,o),
(506,318,q),
(427,323,l),
(432,311,o),
(432,296,qs),
(432,247,o),
(390,247,qs),
(359,247,o),
(317,279,qs),
(254,327,o),
(194,327,qs),
(128,327,o),
(89,275,qs),
(65,243,o),
(65,205,qs),
(65,192,o),
(68,181,q)
);
}
);
width = 575;
},
{
layerId = "2FFFB641-FAF4-44D5-BCCD-45A3ED2836BE";
shapes = (
{
closed = 1;
nodes = (
(142,176,l),
(138,187,o),
(138,198,qs),
(138,224,o),
(166,253,o),
(193,253,qs),
(236,253,o),
(279,220,qs),
(344,172,o),
(394,172,qs),
(452,172,o),
(488,219,qs),
(510,249,o),
(510,290,qs),
(510,302,o),
(506,318,q),
(427,323,l),
(432,311,o),
(432,296,qs),
(432,247,o),
(390,247,qs),
(359,247,o),
(317,279,qs),
(254,327,o),
(194,327,qs),
(128,327,o),
(89,275,qs),
(65,243,o),
(65,205,qs),
(65,192,o),
(68,181,q)
);
}
);
width = 575;
},
{
layerId = "10EBB935-FE11-436B-A293-72D268A19F55";
shapes = (
{
closed = 1;
nodes = (
(142,176,l),
(138,187,o),
(138,198,qs),
(138,224,o),
(166,253,o),
(193,253,qs),
(236,253,o),
(279,220,qs),
(344,172,o),
(394,172,qs),
(452,172,o),
(488,219,qs),
(510,249,o),
(510,290,qs),
(510,302,o),
(506,318,q),
(427,323,l),
(432,311,o),
(432,296,qs),
(432,247,o),
(390,247,qs),
(359,247,o),
(317,279,qs),
(254,327,o),
(194,327,qs),
(128,327,o),
(89,275,qs),
(65,243,o),
(65,205,qs),
(65,192,o),
(68,181,q)
);
}
);
width = 575;
}
);
note = asciitilde;
unicode = 126;
},
{
glyphname = asciicircum;
layers = (
{
layerId = m01;
shapes = (
{
closed = 1;
nodes = (
(255,621,l),
(365,460,l),
(445,460,l),
(275,710,l),
(235,710,l),
(65,460,l),
(145,460,l)
);
}
);
width = 510;
},
{
layerId = "2FFFB641-FAF4-44D5-BCCD-45A3ED2836BE";
shapes = (
{
closed = 1;
nodes = (
(255,621,l),
(365,460,l),
(445,460,l),
(275,710,l),
(235,710,l),
(65,460,l),
(145,460,l)
);
}
);
width = 510;
},
{
layerId = "10EBB935-FE11-436B-A293-72D268A19F55";
shapes = (
{
closed = 1;
nodes = (
(255,621,l),
(365,460,l),
(445,460,l),
(275,710,l),
(235,710,l),
(65,460,l),
(145,460,l)
);
}
);
width = 510;
}
);
note = asciicircum;
unicode = 94;
},
{
glyphname = percent;
layers = (
{
layerId = m01;
shapes = (
{
closed = 1;
nodes = (
(35,506,o),
(75,432,o),
(147,390,o),
(193,390,qs),
(239,390,o),
(311,432,o),
(351,506,o),
(351,550,qs),
(351,594,o),
(311,668,o),
(239,710,o),
(193,710,qs),
(147,710,o),
(75,668,o),
(35,594,o),
(35,550,qs)
);
},
{
closed = 1;
nodes = (
(563,700,l),
(113,0,l),
(188,0,l),
(638,700,l)
);
},
{
closed = 1;
nodes = (
(106,590,o),
(153,645,o),
(193,645,qs),
(233,645,o),
(280,590,o),
(280,550,qs),
(280,510,o),
(233,455,o),
(193,455,qs),
(153,455,o),
(106,510,o),
(106,550,qs)
);
},
{
closed = 1;
nodes = (
(400,106,o),
(440,32,o),
(512,-10,o),
(558,-10,qs),
(604,-10,o),
(676,32,o),
(716,106,o),
(716,150,qs),
(716,194,o),
(676,268,o),
(604,310,o),
(558,310,qs),
(512,310,o),
(440,268,o),
(400,194,o),
(400,150,qs)
);
},
{
closed = 1;
nodes = (
(471,190,o),
(518,245,o),
(558,245,qs),
(598,245,o),
(645,190,o),
(645,150,qs),
(645,110,o),
(598,55,o),
(558,55,qs),
(518,55,o),
(471,110,o),
(471,150,qs)
);
}
